<?xml version="1.0" encoding="utf-8" standalone="no"?>
<!DOCTYPE svg PUBLIC "-//W3C//DTD SVG 1.1//EN"
  "http://www.w3.org/Graphics/SVG/1.1/DTD/svg11.dtd">
<svg height="216pt" version="1.1" viewBox="0 0 720 216" width="720pt" xmlns="http://www.w3.org/2000/svg" xmlns:xlink="http://www.w3.org/1999/xlink">
 <metadata>
  <rdf:RDF xmlns:cc="http://creativecommons.org/ns#" xmlns:dc="http://purl.org/dc/elements/1.1/" xmlns:rdf="http://www.w3.org/1999/02/22-rdf-syntax-ns#">
   <cc:Work>
    <dc:type rdf:resource="http://purl.org/dc/dcmitype/StillImage"/>
    <dc:date>2024-06-04T11:22:52.024741</dc:date>
    <dc:format>image/svg+xml</dc:format>
    <dc:creator>
     <cc:Agent>
      <dc:title>Matplotlib v3.4.3, https://matplotlib.org/</dc:title>
     </cc:Agent>
    </dc:creator>
   </cc:Work>
  </rdf:RDF>
 </metadata>
 <defs>
  <style type="text/css">*{stroke-linecap:butt;stroke-linejoin:round;}</style>
 </defs>
 <g id="figure_1">
  <g id="patch_1">
   <path d="M 0 216 
L 720 216 
L 720 0 
L 0 0 
z
" style="fill:#ffffff;"/>
  </g>
  <g id="axes_1">
   <g id="patch_2">
    <path d="M 144 172.8 
L 648 172.8 
L 648 25.92 
L 144 25.92 
z
" style="fill:#ffffff;"/>
   </g>
   <g id="patch_3">
    <path clip-path="url(#pb1526c4361)" d="M 144 166.123636 
L 624 166.123636 
L 624 127.972987 
L 144 127.972987 
z
" style="fill:#fa7070;fill-opacity:0.74902;"/>
   </g>
   <g id="patch_4">
    <path clip-path="url(#pb1526c4361)" d="M 144 118.435325 
L 356.222903 118.435325 
L 356.222903 80.284675 
L 144 80.284675 
z
" style="fill:#7aa2e3;"/>
   </g>
   <g id="patch_5">
    <path clip-path="url(#pb1526c4361)" d="M 144 70.747013 
L 386.792407 70.747013 
L 386.792407 32.596364 
L 144 32.596364 
z
" style="fill:#ffe699;"/>
   </g>
   <g id="matplotlib.axis_1">
    <g id="xtick_1">
     <g id="line2d_1">
      <path clip-path="url(#pb1526c4361)" d="M 144 172.8 
L 144 25.92 
" style="fill:none;stroke:#bfbfbf;stroke-dasharray:2.96,1.28;stroke-dashoffset:0;stroke-opacity:0.1;stroke-width:0.8;"/>
     </g>
     <g id="line2d_2">
      <defs>
       <path d="M 0 0 
L 0 4 
" id="mf592f46c5a" style="stroke:#000000;stroke-width:0.6;"/>
      </defs>
      <g>
       <use style="stroke:#000000;stroke-width:0.6;" x="144" xlink:href="#mf592f46c5a" y="172.8"/>
      </g>
     </g>
     <g id="text_1">
      <!-- 0 -->
      <g transform="translate(139 192.6875)scale(0.2 -0.2)">
       <defs>
        <path d="M 231 2094 
Q 231 2819 450 3342 
Q 669 3866 1031 4122 
Q 1313 4325 1613 4325 
Q 2100 4325 2488 3828 
Q 2972 3213 2972 2159 
Q 2972 1422 2759 906 
Q 2547 391 2217 158 
Q 1888 -75 1581 -75 
Q 975 -75 572 641 
Q 231 1244 231 2094 
z
M 844 2016 
Q 844 1141 1059 588 
Q 1238 122 1591 122 
Q 1759 122 1940 273 
Q 2122 425 2216 781 
Q 2359 1319 2359 2297 
Q 2359 3022 2209 3506 
Q 2097 3866 1919 4016 
Q 1791 4119 1609 4119 
Q 1397 4119 1231 3928 
Q 1006 3669 925 3112 
Q 844 2556 844 2016 
z
" id="TimesNewRomanPSMT-30" transform="scale(0.015625)"/>
       </defs>
       <use xlink:href="#TimesNewRomanPSMT-30"/>
      </g>
     </g>
    </g>
    <g id="xtick_2">
     <g id="line2d_3">
      <path clip-path="url(#pb1526c4361)" d="M 217.484385 172.8 
L 217.484385 25.92 
" style="fill:none;stroke:#bfbfbf;stroke-dasharray:2.96,1.28;stroke-dashoffset:0;stroke-opacity:0.1;stroke-width:0.8;"/>
     </g>
     <g id="line2d_4">
      <g>
       <use style="stroke:#000000;stroke-width:0.6;" x="217.484385" xlink:href="#mf592f46c5a" y="172.8"/>
      </g>
     </g>
     <g id="text_2">
      <!-- 250 -->
      <g transform="translate(202.484385 192.6875)scale(0.2 -0.2)">
       <defs>
        <path d="M 2934 816 
L 2638 0 
L 138 0 
L 138 116 
Q 1241 1122 1691 1759 
Q 2141 2397 2141 2925 
Q 2141 3328 1894 3587 
Q 1647 3847 1303 3847 
Q 991 3847 742 3664 
Q 494 3481 375 3128 
L 259 3128 
Q 338 3706 661 4015 
Q 984 4325 1469 4325 
Q 1984 4325 2329 3994 
Q 2675 3663 2675 3213 
Q 2675 2891 2525 2569 
Q 2294 2063 1775 1497 
Q 997 647 803 472 
L 1909 472 
Q 2247 472 2383 497 
Q 2519 522 2628 598 
Q 2738 675 2819 816 
L 2934 816 
z
" id="TimesNewRomanPSMT-32" transform="scale(0.015625)"/>
        <path d="M 2778 4238 
L 2534 3706 
L 1259 3706 
L 981 3138 
Q 1809 3016 2294 2522 
Q 2709 2097 2709 1522 
Q 2709 1188 2573 903 
Q 2438 619 2231 419 
Q 2025 219 1772 97 
Q 1413 -75 1034 -75 
Q 653 -75 479 54 
Q 306 184 306 341 
Q 306 428 378 495 
Q 450 563 559 563 
Q 641 563 702 538 
Q 763 513 909 409 
Q 1144 247 1384 247 
Q 1750 247 2026 523 
Q 2303 800 2303 1197 
Q 2303 1581 2056 1914 
Q 1809 2247 1375 2428 
Q 1034 2569 447 2591 
L 1259 4238 
L 2778 4238 
z
" id="TimesNewRomanPSMT-35" transform="scale(0.015625)"/>
       </defs>
       <use xlink:href="#TimesNewRomanPSMT-32"/>
       <use x="50" xlink:href="#TimesNewRomanPSMT-35"/>
       <use x="100" xlink:href="#TimesNewRomanPSMT-30"/>
      </g>
     </g>
    </g>
    <g id="xtick_3">
     <g id="line2d_5">
      <path clip-path="url(#pb1526c4361)" d="M 290.968769 172.8 
L 290.968769 25.92 
" style="fill:none;stroke:#bfbfbf;stroke-dasharray:2.96,1.28;stroke-dashoffset:0;stroke-opacity:0.1;stroke-width:0.8;"/>
     </g>
     <g id="line2d_6">
      <g>
       <use style="stroke:#000000;stroke-width:0.6;" x="290.968769" xlink:href="#mf592f46c5a" y="172.8"/>
      </g>
     </g>
     <g id="text_3">
      <!-- 500 -->
      <g transform="translate(275.968769 192.6875)scale(0.2 -0.2)">
       <use xlink:href="#TimesNewRomanPSMT-35"/>
       <use x="50" xlink:href="#TimesNewRomanPSMT-30"/>
       <use x="100" xlink:href="#TimesNewRomanPSMT-30"/>
      </g>
     </g>
    </g>
    <g id="xtick_4">
     <g id="line2d_7">
      <path clip-path="url(#pb1526c4361)" d="M 364.453154 172.8 
L 364.453154 25.92 
" style="fill:none;stroke:#bfbfbf;stroke-dasharray:2.96,1.28;stroke-dashoffset:0;stroke-opacity:0.1;stroke-width:0.8;"/>
     </g>
     <g id="line2d_8">
      <g>
       <use style="stroke:#000000;stroke-width:0.6;" x="364.453154" xlink:href="#mf592f46c5a" y="172.8"/>
      </g>
     </g>
     <g id="text_4">
      <!-- 750 -->
      <g transform="translate(349.453154 192.6875)scale(0.2 -0.2)">
       <defs>
        <path d="M 644 4238 
L 2916 4238 
L 2916 4119 
L 1503 -88 
L 1153 -88 
L 2419 3728 
L 1253 3728 
Q 900 3728 750 3644 
Q 488 3500 328 3200 
L 238 3234 
L 644 4238 
z
" id="TimesNewRomanPSMT-37" transform="scale(0.015625)"/>
       </defs>
       <use xlink:href="#TimesNewRomanPSMT-37"/>
       <use x="50" xlink:href="#TimesNewRomanPSMT-35"/>
       <use x="100" xlink:href="#TimesNewRomanPSMT-30"/>
      </g>
     </g>
    </g>
    <g id="xtick_5">
     <g id="line2d_9">
      <path clip-path="url(#pb1526c4361)" d="M 437.937538 172.8 
L 437.937538 25.92 
" style="fill:none;stroke:#bfbfbf;stroke-dasharray:2.96,1.28;stroke-dashoffset:0;stroke-opacity:0.1;stroke-width:0.8;"/>
     </g>
     <g id="line2d_10">
      <g>
       <use style="stroke:#000000;stroke-width:0.6;" x="437.937538" xlink:href="#mf592f46c5a" y="172.8"/>
      </g>
     </g>
     <g id="text_5">
      <!-- 1000 -->
      <g transform="translate(417.937538 192.6875)scale(0.2 -0.2)">
       <defs>
        <path d="M 750 3822 
L 1781 4325 
L 1884 4325 
L 1884 747 
Q 1884 391 1914 303 
Q 1944 216 2037 169 
Q 2131 122 2419 116 
L 2419 0 
L 825 0 
L 825 116 
Q 1125 122 1212 167 
Q 1300 213 1334 289 
Q 1369 366 1369 747 
L 1369 3034 
Q 1369 3497 1338 3628 
Q 1316 3728 1258 3775 
Q 1200 3822 1119 3822 
Q 1003 3822 797 3725 
L 750 3822 
z
" id="TimesNewRomanPSMT-31" transform="scale(0.015625)"/>
       </defs>
       <use xlink:href="#TimesNewRomanPSMT-31"/>
       <use x="50" xlink:href="#TimesNewRomanPSMT-30"/>
       <use x="100" xlink:href="#TimesNewRomanPSMT-30"/>
       <use x="150" xlink:href="#TimesNewRomanPSMT-30"/>
      </g>
     </g>
    </g>
    <g id="xtick_6">
     <g id="line2d_11">
      <path clip-path="url(#pb1526c4361)" d="M 511.421923 172.8 
L 511.421923 25.92 
" style="fill:none;stroke:#bfbfbf;stroke-dasharray:2.96,1.28;stroke-dashoffset:0;stroke-opacity:0.1;stroke-width:0.8;"/>
     </g>
     <g id="line2d_12">
      <g>
       <use style="stroke:#000000;stroke-width:0.6;" x="511.421923" xlink:href="#mf592f46c5a" y="172.8"/>
      </g>
     </g>
     <g id="text_6">
      <!-- 1250 -->
      <g transform="translate(491.421923 192.6875)scale(0.2 -0.2)">
       <use xlink:href="#TimesNewRomanPSMT-31"/>
       <use x="50" xlink:href="#TimesNewRomanPSMT-32"/>
       <use x="100" xlink:href="#TimesNewRomanPSMT-35"/>
       <use x="150" xlink:href="#TimesNewRomanPSMT-30"/>
      </g>
     </g>
    </g>
    <g id="xtick_7">
     <g id="line2d_13">
      <path clip-path="url(#pb1526c4361)" d="M 584.906307 172.8 
L 584.906307 25.92 
" style="fill:none;stroke:#bfbfbf;stroke-dasharray:2.96,1.28;stroke-dashoffset:0;stroke-opacity:0.1;stroke-width:0.8;"/>
     </g>
     <g id="line2d_14">
      <g>
       <use style="stroke:#000000;stroke-width:0.6;" x="584.906307" xlink:href="#mf592f46c5a" y="172.8"/>
      </g>
     </g>
     <g id="text_7">
      <!-- 1500 -->
      <g transform="translate(564.906307 192.6875)scale(0.2 -0.2)">
       <use xlink:href="#TimesNewRomanPSMT-31"/>
       <use x="50" xlink:href="#TimesNewRomanPSMT-35"/>
       <use x="100" xlink:href="#TimesNewRomanPSMT-30"/>
       <use x="150" xlink:href="#TimesNewRomanPSMT-30"/>
      </g>
     </g>
    </g>
    <g id="xtick_8">
     <g id="line2d_15">
      <defs>
       <path d="M 0 0 
L 0 2 
" id="m7702de7f20" style="stroke:#000000;stroke-width:0.48;"/>
      </defs>
      <g>
       <use style="stroke:#000000;stroke-width:0.48;" x="158.696877" xlink:href="#m7702de7f20" y="172.8"/>
      </g>
     </g>
    </g>
    <g id="xtick_9">
     <g id="line2d_16">
      <g>
       <use style="stroke:#000000;stroke-width:0.48;" x="173.393754" xlink:href="#m7702de7f20" y="172.8"/>
      </g>
     </g>
    </g>
    <g id="xtick_10">
     <g id="line2d_17">
      <g>
       <use style="stroke:#000000;stroke-width:0.48;" x="188.090631" xlink:href="#m7702de7f20" y="172.8"/>
      </g>
     </g>
    </g>
    <g id="xtick_11">
     <g id="line2d_18">
      <g>
       <use style="stroke:#000000;stroke-width:0.48;" x="202.787508" xlink:href="#m7702de7f20" y="172.8"/>
      </g>
     </g>
    </g>
    <g id="xtick_12">
     <g id="line2d_19">
      <g>
       <use style="stroke:#000000;stroke-width:0.48;" x="232.181261" xlink:href="#m7702de7f20" y="172.8"/>
      </g>
     </g>
    </g>
    <g id="xtick_13">
     <g id="line2d_20">
      <g>
       <use style="stroke:#000000;stroke-width:0.48;" x="246.878138" xlink:href="#m7702de7f20" y="172.8"/>
      </g>
     </g>
    </g>
    <g id="xtick_14">
     <g id="line2d_21">
      <g>
       <use style="stroke:#000000;stroke-width:0.48;" x="261.575015" xlink:href="#m7702de7f20" y="172.8"/>
      </g>
     </g>
    </g>
    <g id="xtick_15">
     <g id="line2d_22">
      <g>
       <use style="stroke:#000000;stroke-width:0.48;" x="276.271892" xlink:href="#m7702de7f20" y="172.8"/>
      </g>
     </g>
    </g>
    <g id="xtick_16">
     <g id="line2d_23">
      <g>
       <use style="stroke:#000000;stroke-width:0.48;" x="305.665646" xlink:href="#m7702de7f20" y="172.8"/>
      </g>
     </g>
    </g>
    <g id="xtick_17">
     <g id="line2d_24">
      <g>
       <use style="stroke:#000000;stroke-width:0.48;" x="320.362523" xlink:href="#m7702de7f20" y="172.8"/>
      </g>
     </g>
    </g>
    <g id="xtick_18">
     <g id="line2d_25">
      <g>
       <use style="stroke:#000000;stroke-width:0.48;" x="335.0594" xlink:href="#m7702de7f20" y="172.8"/>
      </g>
     </g>
    </g>
    <g id="xtick_19">
     <g id="line2d_26">
      <g>
       <use style="stroke:#000000;stroke-width:0.48;" x="349.756277" xlink:href="#m7702de7f20" y="172.8"/>
      </g>
     </g>
    </g>
    <g id="xtick_20">
     <g id="line2d_27">
      <g>
       <use style="stroke:#000000;stroke-width:0.48;" x="379.150031" xlink:href="#m7702de7f20" y="172.8"/>
      </g>
     </g>
    </g>
    <g id="xtick_21">
     <g id="line2d_28">
      <g>
       <use style="stroke:#000000;stroke-width:0.48;" x="393.846908" xlink:href="#m7702de7f20" y="172.8"/>
      </g>
     </g>
    </g>
    <g id="xtick_22">
     <g id="line2d_29">
      <g>
       <use style="stroke:#000000;stroke-width:0.48;" x="408.543784" xlink:href="#m7702de7f20" y="172.8"/>
      </g>
     </g>
    </g>
    <g id="xtick_23">
     <g id="line2d_30">
      <g>
       <use style="stroke:#000000;stroke-width:0.48;" x="423.240661" xlink:href="#m7702de7f20" y="172.8"/>
      </g>
     </g>
    </g>
    <g id="xtick_24">
     <g id="line2d_31">
      <g>
       <use style="stroke:#000000;stroke-width:0.48;" x="452.634415" xlink:href="#m7702de7f20" y="172.8"/>
      </g>
     </g>
    </g>
    <g id="xtick_25">
     <g id="line2d_32">
      <g>
       <use style="stroke:#000000;stroke-width:0.48;" x="467.331292" xlink:href="#m7702de7f20" y="172.8"/>
      </g>
     </g>
    </g>
    <g id="xtick_26">
     <g id="line2d_33">
      <g>
       <use style="stroke:#000000;stroke-width:0.48;" x="482.028169" xlink:href="#m7702de7f20" y="172.8"/>
      </g>
     </g>
    </g>
    <g id="xtick_27">
     <g id="line2d_34">
      <g>
       <use style="stroke:#000000;stroke-width:0.48;" x="496.725046" xlink:href="#m7702de7f20" y="172.8"/>
      </g>
     </g>
    </g>
    <g id="xtick_28">
     <g id="line2d_35">
      <g>
       <use style="stroke:#000000;stroke-width:0.48;" x="526.1188" xlink:href="#m7702de7f20" y="172.8"/>
      </g>
     </g>
    </g>
    <g id="xtick_29">
     <g id="line2d_36">
      <g>
       <use style="stroke:#000000;stroke-width:0.48;" x="540.815677" xlink:href="#m7702de7f20" y="172.8"/>
      </g>
     </g>
    </g>
    <g id="xtick_30">
     <g id="line2d_37">
      <g>
       <use style="stroke:#000000;stroke-width:0.48;" x="555.512554" xlink:href="#m7702de7f20" y="172.8"/>
      </g>
     </g>
    </g>
    <g id="xtick_31">
     <g id="line2d_38">
      <g>
       <use style="stroke:#000000;stroke-width:0.48;" x="570.20943" xlink:href="#m7702de7f20" y="172.8"/>
      </g>
     </g>
    </g>
    <g id="xtick_32">
     <g id="line2d_39">
      <g>
       <use style="stroke:#000000;stroke-width:0.48;" x="599.603184" xlink:href="#m7702de7f20" y="172.8"/>
      </g>
     </g>
    </g>
    <g id="xtick_33">
     <g id="line2d_40">
      <g>
       <use style="stroke:#000000;stroke-width:0.48;" x="614.300061" xlink:href="#m7702de7f20" y="172.8"/>
      </g>
     </g>
    </g>
    <g id="xtick_34">
     <g id="line2d_41">
      <g>
       <use style="stroke:#000000;stroke-width:0.48;" x="628.996938" xlink:href="#m7702de7f20" y="172.8"/>
      </g>
     </g>
    </g>
    <g id="xtick_35">
     <g id="line2d_42">
      <g>
       <use style="stroke:#000000;stroke-width:0.48;" x="643.693815" xlink:href="#m7702de7f20" y="172.8"/>
      </g>
     </g>
    </g>
    <g id="text_8">
     <!-- ACC -->
     <g transform="translate(375.4375 214.853125)scale(0.2 -0.2)">
      <defs>
       <path d="M 2928 1419 
L 1288 1419 
L 1000 750 
Q 894 503 894 381 
Q 894 284 986 211 
Q 1078 138 1384 116 
L 1384 0 
L 50 0 
L 50 116 
Q 316 163 394 238 
Q 553 388 747 847 
L 2238 4334 
L 2347 4334 
L 3822 809 
Q 4000 384 4145 257 
Q 4291 131 4550 116 
L 4550 0 
L 2878 0 
L 2878 116 
Q 3131 128 3220 200 
Q 3309 272 3309 375 
Q 3309 513 3184 809 
L 2928 1419 
z
M 2841 1650 
L 2122 3363 
L 1384 1650 
L 2841 1650 
z
" id="TimesNewRomanPSMT-41" transform="scale(0.015625)"/>
       <path d="M 3853 4334 
L 3950 2894 
L 3853 2894 
Q 3659 3541 3300 3825 
Q 2941 4109 2438 4109 
Q 2016 4109 1675 3895 
Q 1334 3681 1139 3212 
Q 944 2744 944 2047 
Q 944 1472 1128 1050 
Q 1313 628 1683 403 
Q 2053 178 2528 178 
Q 2941 178 3256 354 
Q 3572 531 3950 1056 
L 4047 994 
Q 3728 428 3303 165 
Q 2878 -97 2294 -97 
Q 1241 -97 663 684 
Q 231 1266 231 2053 
Q 231 2688 515 3219 
Q 800 3750 1298 4042 
Q 1797 4334 2388 4334 
Q 2847 4334 3294 4109 
Q 3425 4041 3481 4041 
Q 3566 4041 3628 4100 
Q 3709 4184 3744 4334 
L 3853 4334 
z
" id="TimesNewRomanPSMT-43" transform="scale(0.015625)"/>
      </defs>
      <use xlink:href="#TimesNewRomanPSMT-41"/>
      <use x="72.216797" xlink:href="#TimesNewRomanPSMT-43"/>
      <use x="138.916016" xlink:href="#TimesNewRomanPSMT-43"/>
     </g>
    </g>
   </g>
   <g id="matplotlib.axis_2">
    <g id="ytick_1">
     <g id="line2d_43">
      <path clip-path="url(#pb1526c4361)" d="M 144 147.048312 
L 648 147.048312 
" style="fill:none;stroke:#bfbfbf;stroke-dasharray:2.96,1.28;stroke-dashoffset:0;stroke-opacity:0.1;stroke-width:0.8;"/>
     </g>
     <g id="line2d_44">
      <defs>
       <path d="M 0 0 
L -4 0 
" id="mad3428b213" style="stroke:#000000;stroke-width:0.6;"/>
      </defs>
      <g>
       <use style="stroke:#000000;stroke-width:0.6;" x="144" xlink:href="#mad3428b213" y="147.048312"/>
      </g>
     </g>
     <g id="text_9">
      <!-- limitation 1 -->
      <g transform="translate(45.228125 153.992062)scale(0.2 -0.2)">
       <defs>
        <path d="M 1184 4444 
L 1184 647 
Q 1184 378 1223 290 
Q 1263 203 1344 158 
Q 1425 113 1647 113 
L 1647 0 
L 244 0 
L 244 113 
Q 441 113 512 153 
Q 584 194 625 287 
Q 666 381 666 647 
L 666 3247 
Q 666 3731 644 3842 
Q 622 3953 573 3993 
Q 525 4034 450 4034 
Q 369 4034 244 3984 
L 191 4094 
L 1044 4444 
L 1184 4444 
z
" id="TimesNewRomanPSMT-6c" transform="scale(0.015625)"/>
        <path d="M 928 4444 
Q 1059 4444 1151 4351 
Q 1244 4259 1244 4128 
Q 1244 3997 1151 3903 
Q 1059 3809 928 3809 
Q 797 3809 703 3903 
Q 609 3997 609 4128 
Q 609 4259 701 4351 
Q 794 4444 928 4444 
z
M 1188 2947 
L 1188 647 
Q 1188 378 1227 289 
Q 1266 200 1342 156 
Q 1419 113 1622 113 
L 1622 0 
L 231 0 
L 231 113 
Q 441 113 512 153 
Q 584 194 626 287 
Q 669 381 669 647 
L 669 1750 
Q 669 2216 641 2353 
Q 619 2453 572 2492 
Q 525 2531 444 2531 
Q 356 2531 231 2484 
L 188 2597 
L 1050 2947 
L 1188 2947 
z
" id="TimesNewRomanPSMT-69" transform="scale(0.015625)"/>
        <path d="M 1050 2338 
Q 1363 2650 1419 2697 
Q 1559 2816 1721 2881 
Q 1884 2947 2044 2947 
Q 2313 2947 2506 2790 
Q 2700 2634 2766 2338 
Q 3088 2713 3309 2830 
Q 3531 2947 3766 2947 
Q 3994 2947 4170 2830 
Q 4347 2713 4450 2447 
Q 4519 2266 4519 1878 
L 4519 647 
Q 4519 378 4559 278 
Q 4591 209 4675 161 
Q 4759 113 4950 113 
L 4950 0 
L 3538 0 
L 3538 113 
L 3597 113 
Q 3781 113 3884 184 
Q 3956 234 3988 344 
Q 4000 397 4000 647 
L 4000 1878 
Q 4000 2228 3916 2372 
Q 3794 2572 3525 2572 
Q 3359 2572 3192 2489 
Q 3025 2406 2788 2181 
L 2781 2147 
L 2788 2013 
L 2788 647 
Q 2788 353 2820 281 
Q 2853 209 2943 161 
Q 3034 113 3253 113 
L 3253 0 
L 1806 0 
L 1806 113 
Q 2044 113 2133 169 
Q 2222 225 2256 338 
Q 2272 391 2272 647 
L 2272 1878 
Q 2272 2228 2169 2381 
Q 2031 2581 1784 2581 
Q 1616 2581 1450 2491 
Q 1191 2353 1050 2181 
L 1050 647 
Q 1050 366 1089 281 
Q 1128 197 1204 155 
Q 1281 113 1516 113 
L 1516 0 
L 100 0 
L 100 113 
Q 297 113 375 155 
Q 453 197 493 289 
Q 534 381 534 647 
L 534 1741 
Q 534 2213 506 2350 
Q 484 2453 437 2492 
Q 391 2531 309 2531 
Q 222 2531 100 2484 
L 53 2597 
L 916 2947 
L 1050 2947 
L 1050 2338 
z
" id="TimesNewRomanPSMT-6d" transform="scale(0.015625)"/>
        <path d="M 1031 3803 
L 1031 2863 
L 1700 2863 
L 1700 2644 
L 1031 2644 
L 1031 788 
Q 1031 509 1111 412 
Q 1191 316 1316 316 
Q 1419 316 1516 380 
Q 1613 444 1666 569 
L 1788 569 
Q 1678 263 1478 108 
Q 1278 -47 1066 -47 
Q 922 -47 784 33 
Q 647 113 581 261 
Q 516 409 516 719 
L 516 2644 
L 63 2644 
L 63 2747 
Q 234 2816 414 2980 
Q 594 3144 734 3369 
Q 806 3488 934 3803 
L 1031 3803 
z
" id="TimesNewRomanPSMT-74" transform="scale(0.015625)"/>
        <path d="M 1822 413 
Q 1381 72 1269 19 
Q 1100 -59 909 -59 
Q 613 -59 420 144 
Q 228 347 228 678 
Q 228 888 322 1041 
Q 450 1253 767 1440 
Q 1084 1628 1822 1897 
L 1822 2009 
Q 1822 2438 1686 2597 
Q 1550 2756 1291 2756 
Q 1094 2756 978 2650 
Q 859 2544 859 2406 
L 866 2225 
Q 866 2081 792 2003 
Q 719 1925 600 1925 
Q 484 1925 411 2006 
Q 338 2088 338 2228 
Q 338 2497 613 2722 
Q 888 2947 1384 2947 
Q 1766 2947 2009 2819 
Q 2194 2722 2281 2516 
Q 2338 2381 2338 1966 
L 2338 994 
Q 2338 584 2353 492 
Q 2369 400 2405 369 
Q 2441 338 2488 338 
Q 2538 338 2575 359 
Q 2641 400 2828 588 
L 2828 413 
Q 2478 -56 2159 -56 
Q 2006 -56 1915 50 
Q 1825 156 1822 413 
z
M 1822 616 
L 1822 1706 
Q 1350 1519 1213 1441 
Q 966 1303 859 1153 
Q 753 1003 753 825 
Q 753 600 887 451 
Q 1022 303 1197 303 
Q 1434 303 1822 616 
z
" id="TimesNewRomanPSMT-61" transform="scale(0.015625)"/>
        <path d="M 1600 2947 
Q 2250 2947 2644 2453 
Q 2978 2031 2978 1484 
Q 2978 1100 2793 706 
Q 2609 313 2286 112 
Q 1963 -88 1566 -88 
Q 919 -88 538 428 
Q 216 863 216 1403 
Q 216 1797 411 2186 
Q 606 2575 925 2761 
Q 1244 2947 1600 2947 
z
M 1503 2744 
Q 1338 2744 1170 2645 
Q 1003 2547 900 2300 
Q 797 2053 797 1666 
Q 797 1041 1045 587 
Q 1294 134 1700 134 
Q 2003 134 2200 384 
Q 2397 634 2397 1244 
Q 2397 2006 2069 2444 
Q 1847 2744 1503 2744 
z
" id="TimesNewRomanPSMT-6f" transform="scale(0.015625)"/>
        <path d="M 1034 2341 
Q 1538 2947 1994 2947 
Q 2228 2947 2397 2830 
Q 2566 2713 2666 2444 
Q 2734 2256 2734 1869 
L 2734 647 
Q 2734 375 2778 278 
Q 2813 200 2889 156 
Q 2966 113 3172 113 
L 3172 0 
L 1756 0 
L 1756 113 
L 1816 113 
Q 2016 113 2095 173 
Q 2175 234 2206 353 
Q 2219 400 2219 647 
L 2219 1819 
Q 2219 2209 2117 2386 
Q 2016 2563 1775 2563 
Q 1403 2563 1034 2156 
L 1034 647 
Q 1034 356 1069 288 
Q 1113 197 1189 155 
Q 1266 113 1500 113 
L 1500 0 
L 84 0 
L 84 113 
L 147 113 
Q 366 113 442 223 
Q 519 334 519 647 
L 519 1709 
Q 519 2225 495 2337 
Q 472 2450 423 2490 
Q 375 2531 294 2531 
Q 206 2531 84 2484 
L 38 2597 
L 900 2947 
L 1034 2947 
L 1034 2341 
z
" id="TimesNewRomanPSMT-6e" transform="scale(0.015625)"/>
        <path id="TimesNewRomanPSMT-20" transform="scale(0.015625)"/>
       </defs>
       <use xlink:href="#TimesNewRomanPSMT-6c"/>
       <use x="27.783203" xlink:href="#TimesNewRomanPSMT-69"/>
       <use x="55.566406" xlink:href="#TimesNewRomanPSMT-6d"/>
       <use x="133.349609" xlink:href="#TimesNewRomanPSMT-69"/>
       <use x="161.132812" xlink:href="#TimesNewRomanPSMT-74"/>
       <use x="188.916016" xlink:href="#TimesNewRomanPSMT-61"/>
       <use x="233.300781" xlink:href="#TimesNewRomanPSMT-74"/>
       <use x="261.083984" xlink:href="#TimesNewRomanPSMT-69"/>
       <use x="288.867188" xlink:href="#TimesNewRomanPSMT-6f"/>
       <use x="338.867188" xlink:href="#TimesNewRomanPSMT-6e"/>
       <use x="388.867188" xlink:href="#TimesNewRomanPSMT-20"/>
       <use x="413.867188" xlink:href="#TimesNewRomanPSMT-31"/>
      </g>
     </g>
    </g>
    <g id="ytick_2">
     <g id="line2d_45">
      <path clip-path="url(#pb1526c4361)" d="M 144 99.36 
L 648 99.36 
" style="fill:none;stroke:#bfbfbf;stroke-dasharray:2.96,1.28;stroke-dashoffset:0;stroke-opacity:0.1;stroke-width:0.8;"/>
     </g>
     <g id="line2d_46">
      <g>
       <use style="stroke:#000000;stroke-width:0.6;" x="144" xlink:href="#mad3428b213" y="99.36"/>
      </g>
     </g>
     <g id="text_10">
      <!-- limitation 2 -->
      <g transform="translate(45.228125 106.30375)scale(0.2 -0.2)">
       <use xlink:href="#TimesNewRomanPSMT-6c"/>
       <use x="27.783203" xlink:href="#TimesNewRomanPSMT-69"/>
       <use x="55.566406" xlink:href="#TimesNewRomanPSMT-6d"/>
       <use x="133.349609" xlink:href="#TimesNewRomanPSMT-69"/>
       <use x="161.132812" xlink:href="#TimesNewRomanPSMT-74"/>
       <use x="188.916016" xlink:href="#TimesNewRomanPSMT-61"/>
       <use x="233.300781" xlink:href="#TimesNewRomanPSMT-74"/>
       <use x="261.083984" xlink:href="#TimesNewRomanPSMT-69"/>
       <use x="288.867188" xlink:href="#TimesNewRomanPSMT-6f"/>
       <use x="338.867188" xlink:href="#TimesNewRomanPSMT-6e"/>
       <use x="388.867188" xlink:href="#TimesNewRomanPSMT-20"/>
       <use x="413.867188" xlink:href="#TimesNewRomanPSMT-32"/>
      </g>
     </g>
    </g>
    <g id="ytick_3">
     <g id="line2d_47">
      <path clip-path="url(#pb1526c4361)" d="M 144 51.671688 
L 648 51.671688 
" style="fill:none;stroke:#bfbfbf;stroke-dasharray:2.96,1.28;stroke-dashoffset:0;stroke-opacity:0.1;stroke-width:0.8;"/>
     </g>
     <g id="line2d_48">
      <g>
       <use style="stroke:#000000;stroke-width:0.6;" x="144" xlink:href="#mad3428b213" y="51.671688"/>
      </g>
     </g>
     <g id="text_11">
      <!-- limitation 3 -->
      <g transform="translate(45.228125 58.615438)scale(0.2 -0.2)">
       <defs>
        <path d="M 325 3431 
Q 506 3859 782 4092 
Q 1059 4325 1472 4325 
Q 1981 4325 2253 3994 
Q 2459 3747 2459 3466 
Q 2459 3003 1878 2509 
Q 2269 2356 2469 2072 
Q 2669 1788 2669 1403 
Q 2669 853 2319 450 
Q 1863 -75 997 -75 
Q 569 -75 414 31 
Q 259 138 259 259 
Q 259 350 332 419 
Q 406 488 509 488 
Q 588 488 669 463 
Q 722 447 909 348 
Q 1097 250 1169 231 
Q 1284 197 1416 197 
Q 1734 197 1970 444 
Q 2206 691 2206 1028 
Q 2206 1275 2097 1509 
Q 2016 1684 1919 1775 
Q 1784 1900 1550 2001 
Q 1316 2103 1072 2103 
L 972 2103 
L 972 2197 
Q 1219 2228 1467 2375 
Q 1716 2522 1828 2728 
Q 1941 2934 1941 3181 
Q 1941 3503 1739 3701 
Q 1538 3900 1238 3900 
Q 753 3900 428 3381 
L 325 3431 
z
" id="TimesNewRomanPSMT-33" transform="scale(0.015625)"/>
       </defs>
       <use xlink:href="#TimesNewRomanPSMT-6c"/>
       <use x="27.783203" xlink:href="#TimesNewRomanPSMT-69"/>
       <use x="55.566406" xlink:href="#TimesNewRomanPSMT-6d"/>
       <use x="133.349609" xlink:href="#TimesNewRomanPSMT-69"/>
       <use x="161.132812" xlink:href="#TimesNewRomanPSMT-74"/>
       <use x="188.916016" xlink:href="#TimesNewRomanPSMT-61"/>
       <use x="233.300781" xlink:href="#TimesNewRomanPSMT-74"/>
       <use x="261.083984" xlink:href="#TimesNewRomanPSMT-69"/>
       <use x="288.867188" xlink:href="#TimesNewRomanPSMT-6f"/>
       <use x="338.867188" xlink:href="#TimesNewRomanPSMT-6e"/>
       <use x="388.867188" xlink:href="#TimesNewRomanPSMT-20"/>
       <use x="413.867188" xlink:href="#TimesNewRomanPSMT-33"/>
      </g>
     </g>
    </g>
    <g id="ytick_4">
     <g id="line2d_49">
      <defs>
       <path d="M 0 0 
L -2 0 
" id="m6740da76ae" style="stroke:#000000;stroke-width:0.48;"/>
      </defs>
      <g>
       <use style="stroke:#000000;stroke-width:0.48;" x="144" xlink:href="#m6740da76ae" y="166.123636"/>
      </g>
     </g>
    </g>
    <g id="ytick_5">
     <g id="line2d_50">
      <g>
       <use style="stroke:#000000;stroke-width:0.48;" x="144" xlink:href="#m6740da76ae" y="156.585974"/>
      </g>
     </g>
    </g>
    <g id="ytick_6">
     <g id="line2d_51">
      <g>
       <use style="stroke:#000000;stroke-width:0.48;" x="144" xlink:href="#m6740da76ae" y="137.510649"/>
      </g>
     </g>
    </g>
    <g id="ytick_7">
     <g id="line2d_52">
      <g>
       <use style="stroke:#000000;stroke-width:0.48;" x="144" xlink:href="#m6740da76ae" y="127.972987"/>
      </g>
     </g>
    </g>
    <g id="ytick_8">
     <g id="line2d_53">
      <g>
       <use style="stroke:#000000;stroke-width:0.48;" x="144" xlink:href="#m6740da76ae" y="118.435325"/>
      </g>
     </g>
    </g>
    <g id="ytick_9">
     <g id="line2d_54">
      <g>
       <use style="stroke:#000000;stroke-width:0.48;" x="144" xlink:href="#m6740da76ae" y="108.897662"/>
      </g>
     </g>
    </g>
    <g id="ytick_10">
     <g id="line2d_55">
      <g>
       <use style="stroke:#000000;stroke-width:0.48;" x="144" xlink:href="#m6740da76ae" y="89.822338"/>
      </g>
     </g>
    </g>
    <g id="ytick_11">
     <g id="line2d_56">
      <g>
       <use style="stroke:#000000;stroke-width:0.48;" x="144" xlink:href="#m6740da76ae" y="80.284675"/>
      </g>
     </g>
    </g>
    <g id="ytick_12">
     <g id="line2d_57">
      <g>
       <use style="stroke:#000000;stroke-width:0.48;" x="144" xlink:href="#m6740da76ae" y="70.747013"/>
      </g>
     </g>
    </g>
    <g id="ytick_13">
     <g id="line2d_58">
      <g>
       <use style="stroke:#000000;stroke-width:0.48;" x="144" xlink:href="#m6740da76ae" y="61.209351"/>
      </g>
     </g>
    </g>
    <g id="ytick_14">
     <g id="line2d_59">
      <g>
       <use style="stroke:#000000;stroke-width:0.48;" x="144" xlink:href="#m6740da76ae" y="42.134026"/>
      </g>
     </g>
    </g>
    <g id="ytick_15">
     <g id="line2d_60">
      <g>
       <use style="stroke:#000000;stroke-width:0.48;" x="144" xlink:href="#m6740da76ae" y="32.596364"/>
      </g>
     </g>
    </g>
   </g>
   <g id="patch_6">
    <path d="M 144 172.8 
L 144 25.92 
" style="fill:none;stroke:#000000;stroke-linecap:square;stroke-linejoin:miter;stroke-width:0.6;"/>
   </g>
   <g id="patch_7">
    <path d="M 648 172.8 
L 648 25.92 
" style="fill:none;"/>
   </g>
   <g id="patch_8">
    <path d="M 144 172.8 
L 648 172.8 
" style="fill:none;stroke:#000000;stroke-linecap:square;stroke-linejoin:miter;stroke-width:0.6;"/>
   </g>
   <g id="patch_9">
    <path d="M 144 25.92 
L 648 25.92 
" style="fill:none;"/>
   </g>
   <g id="text_12">
    <!-- 1633 -->
    <g transform="translate(624 151.852999)scale(0.2 -0.2)">
     <defs>
      <path d="M 2869 4325 
L 2869 4209 
Q 2456 4169 2195 4045 
Q 1934 3922 1679 3669 
Q 1425 3416 1258 3105 
Q 1091 2794 978 2366 
Q 1428 2675 1881 2675 
Q 2316 2675 2634 2325 
Q 2953 1975 2953 1425 
Q 2953 894 2631 456 
Q 2244 -75 1606 -75 
Q 1172 -75 869 213 
Q 275 772 275 1663 
Q 275 2231 503 2743 
Q 731 3256 1154 3653 
Q 1578 4050 1965 4187 
Q 2353 4325 2688 4325 
L 2869 4325 
z
M 925 2138 
Q 869 1716 869 1456 
Q 869 1156 980 804 
Q 1091 453 1309 247 
Q 1469 100 1697 100 
Q 1969 100 2183 356 
Q 2397 613 2397 1088 
Q 2397 1622 2184 2012 
Q 1972 2403 1581 2403 
Q 1463 2403 1327 2353 
Q 1191 2303 925 2138 
z
" id="TimesNewRomanPSMT-36" transform="scale(0.015625)"/>
     </defs>
     <use xlink:href="#TimesNewRomanPSMT-31"/>
     <use x="50" xlink:href="#TimesNewRomanPSMT-36"/>
     <use x="100" xlink:href="#TimesNewRomanPSMT-33"/>
     <use x="150" xlink:href="#TimesNewRomanPSMT-33"/>
    </g>
   </g>
   <g id="text_13">
    <!-- 722 -->
    <g transform="translate(356.222903 104.164687)scale(0.2 -0.2)">
     <use xlink:href="#TimesNewRomanPSMT-37"/>
     <use x="50" xlink:href="#TimesNewRomanPSMT-32"/>
     <use x="100" xlink:href="#TimesNewRomanPSMT-32"/>
    </g>
   </g>
   <g id="text_14">
    <!-- 826 -->
    <g transform="translate(386.792407 56.476376)scale(0.2 -0.2)">
     <defs>
      <path d="M 1228 2134 
Q 725 2547 579 2797 
Q 434 3047 434 3316 
Q 434 3728 753 4026 
Q 1072 4325 1600 4325 
Q 2113 4325 2425 4047 
Q 2738 3769 2738 3413 
Q 2738 3175 2569 2928 
Q 2400 2681 1866 2347 
Q 2416 1922 2594 1678 
Q 2831 1359 2831 1006 
Q 2831 559 2490 242 
Q 2150 -75 1597 -75 
Q 994 -75 656 303 
Q 388 606 388 966 
Q 388 1247 577 1523 
Q 766 1800 1228 2134 
z
M 1719 2469 
Q 2094 2806 2194 3001 
Q 2294 3197 2294 3444 
Q 2294 3772 2109 3958 
Q 1925 4144 1606 4144 
Q 1288 4144 1088 3959 
Q 888 3775 888 3528 
Q 888 3366 970 3203 
Q 1053 3041 1206 2894 
L 1719 2469 
z
M 1375 2016 
Q 1116 1797 991 1539 
Q 866 1281 866 981 
Q 866 578 1086 336 
Q 1306 94 1647 94 
Q 1984 94 2187 284 
Q 2391 475 2391 747 
Q 2391 972 2272 1150 
Q 2050 1481 1375 2016 
z
" id="TimesNewRomanPSMT-38" transform="scale(0.015625)"/>
     </defs>
     <use xlink:href="#TimesNewRomanPSMT-38"/>
     <use x="50" xlink:href="#TimesNewRomanPSMT-32"/>
     <use x="100" xlink:href="#TimesNewRomanPSMT-36"/>
    </g>
   </g>
   <g id="text_15">
    <!-- No missing steps limitation data statistics -->
    <g transform="translate(230.170312 20.92)scale(0.2 -0.2)">
     <defs>
      <path d="M -84 4238 
L 1066 4238 
L 3656 1059 
L 3656 3503 
Q 3656 3894 3569 3991 
Q 3453 4122 3203 4122 
L 3056 4122 
L 3056 4238 
L 4531 4238 
L 4531 4122 
L 4381 4122 
Q 4113 4122 4000 3959 
Q 3931 3859 3931 3503 
L 3931 -69 
L 3819 -69 
L 1025 3344 
L 1025 734 
Q 1025 344 1109 247 
Q 1228 116 1475 116 
L 1625 116 
L 1625 0 
L 150 0 
L 150 116 
L 297 116 
Q 569 116 681 278 
Q 750 378 750 734 
L 750 3681 
Q 566 3897 470 3965 
Q 375 4034 191 4094 
Q 100 4122 -84 4122 
L -84 4238 
z
" id="TimesNewRomanPSMT-4e" transform="scale(0.015625)"/>
      <path d="M 2050 2947 
L 2050 1972 
L 1947 1972 
Q 1828 2431 1642 2597 
Q 1456 2763 1169 2763 
Q 950 2763 815 2647 
Q 681 2531 681 2391 
Q 681 2216 781 2091 
Q 878 1963 1175 1819 
L 1631 1597 
Q 2266 1288 2266 781 
Q 2266 391 1970 151 
Q 1675 -88 1309 -88 
Q 1047 -88 709 6 
Q 606 38 541 38 
Q 469 38 428 -44 
L 325 -44 
L 325 978 
L 428 978 
Q 516 541 762 319 
Q 1009 97 1316 97 
Q 1531 97 1667 223 
Q 1803 350 1803 528 
Q 1803 744 1651 891 
Q 1500 1038 1047 1263 
Q 594 1488 453 1669 
Q 313 1847 313 2119 
Q 313 2472 555 2709 
Q 797 2947 1181 2947 
Q 1350 2947 1591 2875 
Q 1750 2828 1803 2828 
Q 1853 2828 1881 2850 
Q 1909 2872 1947 2947 
L 2050 2947 
z
" id="TimesNewRomanPSMT-73" transform="scale(0.015625)"/>
      <path d="M 966 1044 
Q 703 1172 562 1401 
Q 422 1631 422 1909 
Q 422 2334 742 2640 
Q 1063 2947 1563 2947 
Q 1972 2947 2272 2747 
L 2878 2747 
Q 3013 2747 3034 2739 
Q 3056 2731 3066 2713 
Q 3084 2684 3084 2613 
Q 3084 2531 3069 2500 
Q 3059 2484 3036 2475 
Q 3013 2466 2878 2466 
L 2506 2466 
Q 2681 2241 2681 1891 
Q 2681 1491 2375 1206 
Q 2069 922 1553 922 
Q 1341 922 1119 984 
Q 981 866 932 777 
Q 884 688 884 625 
Q 884 572 936 522 
Q 988 472 1138 450 
Q 1225 438 1575 428 
Q 2219 413 2409 384 
Q 2700 344 2873 169 
Q 3047 -6 3047 -263 
Q 3047 -616 2716 -925 
Q 2228 -1381 1444 -1381 
Q 841 -1381 425 -1109 
Q 191 -953 191 -784 
Q 191 -709 225 -634 
Q 278 -519 444 -313 
Q 466 -284 763 25 
Q 600 122 533 198 
Q 466 275 466 372 
Q 466 481 555 628 
Q 644 775 966 1044 
z
M 1509 2797 
Q 1278 2797 1122 2612 
Q 966 2428 966 2047 
Q 966 1553 1178 1281 
Q 1341 1075 1591 1075 
Q 1828 1075 1981 1253 
Q 2134 1431 2134 1813 
Q 2134 2309 1919 2591 
Q 1759 2797 1509 2797 
z
M 934 0 
Q 788 -159 713 -296 
Q 638 -434 638 -550 
Q 638 -700 819 -813 
Q 1131 -1006 1722 -1006 
Q 2284 -1006 2551 -807 
Q 2819 -609 2819 -384 
Q 2819 -222 2659 -153 
Q 2497 -84 2016 -72 
Q 1313 -53 934 0 
z
" id="TimesNewRomanPSMT-67" transform="scale(0.015625)"/>
      <path d="M 681 1784 
Q 678 1147 991 784 
Q 1303 422 1725 422 
Q 2006 422 2214 576 
Q 2422 731 2563 1106 
L 2659 1044 
Q 2594 616 2278 264 
Q 1963 -88 1488 -88 
Q 972 -88 605 314 
Q 238 716 238 1394 
Q 238 2128 614 2539 
Q 991 2950 1559 2950 
Q 2041 2950 2350 2633 
Q 2659 2316 2659 1784 
L 681 1784 
z
M 681 1966 
L 2006 1966 
Q 1991 2241 1941 2353 
Q 1863 2528 1708 2628 
Q 1553 2728 1384 2728 
Q 1125 2728 920 2526 
Q 716 2325 681 1966 
z
" id="TimesNewRomanPSMT-65" transform="scale(0.015625)"/>
      <path d="M -6 2578 
L 875 2934 
L 994 2934 
L 994 2266 
Q 1216 2644 1439 2795 
Q 1663 2947 1909 2947 
Q 2341 2947 2628 2609 
Q 2981 2197 2981 1534 
Q 2981 794 2556 309 
Q 2206 -88 1675 -88 
Q 1444 -88 1275 -22 
Q 1150 25 994 166 
L 994 -706 
Q 994 -1000 1030 -1079 
Q 1066 -1159 1155 -1206 
Q 1244 -1253 1478 -1253 
L 1478 -1369 
L -22 -1369 
L -22 -1253 
L 56 -1253 
Q 228 -1256 350 -1188 
Q 409 -1153 442 -1076 
Q 475 -1000 475 -688 
L 475 2019 
Q 475 2297 450 2372 
Q 425 2447 370 2484 
Q 316 2522 222 2522 
Q 147 2522 31 2478 
L -6 2578 
z
M 994 2081 
L 994 1013 
Q 994 666 1022 556 
Q 1066 375 1236 237 
Q 1406 100 1666 100 
Q 1978 100 2172 344 
Q 2425 663 2425 1241 
Q 2425 1897 2138 2250 
Q 1938 2494 1663 2494 
Q 1513 2494 1366 2419 
Q 1253 2363 994 2081 
z
" id="TimesNewRomanPSMT-70" transform="scale(0.015625)"/>
      <path d="M 2222 322 
Q 2013 103 1813 7 
Q 1613 -88 1381 -88 
Q 913 -88 563 304 
Q 213 697 213 1313 
Q 213 1928 600 2439 
Q 988 2950 1597 2950 
Q 1975 2950 2222 2709 
L 2222 3238 
Q 2222 3728 2198 3840 
Q 2175 3953 2125 3993 
Q 2075 4034 2000 4034 
Q 1919 4034 1784 3984 
L 1744 4094 
L 2597 4444 
L 2738 4444 
L 2738 1134 
Q 2738 631 2761 520 
Q 2784 409 2836 365 
Q 2888 322 2956 322 
Q 3041 322 3181 375 
L 3216 266 
L 2366 -88 
L 2222 -88 
L 2222 322 
z
M 2222 541 
L 2222 2016 
Q 2203 2228 2109 2403 
Q 2016 2578 1861 2667 
Q 1706 2756 1559 2756 
Q 1284 2756 1069 2509 
Q 784 2184 784 1559 
Q 784 928 1059 592 
Q 1334 256 1672 256 
Q 1956 256 2222 541 
z
" id="TimesNewRomanPSMT-64" transform="scale(0.015625)"/>
      <path d="M 2631 1088 
Q 2516 522 2178 217 
Q 1841 -88 1431 -88 
Q 944 -88 581 321 
Q 219 731 219 1428 
Q 219 2103 620 2525 
Q 1022 2947 1584 2947 
Q 2006 2947 2278 2723 
Q 2550 2500 2550 2259 
Q 2550 2141 2473 2067 
Q 2397 1994 2259 1994 
Q 2075 1994 1981 2113 
Q 1928 2178 1911 2362 
Q 1894 2547 1784 2644 
Q 1675 2738 1481 2738 
Q 1169 2738 978 2506 
Q 725 2200 725 1697 
Q 725 1184 976 792 
Q 1228 400 1656 400 
Q 1963 400 2206 609 
Q 2378 753 2541 1131 
L 2631 1088 
z
" id="TimesNewRomanPSMT-63" transform="scale(0.015625)"/>
     </defs>
     <use xlink:href="#TimesNewRomanPSMT-4e"/>
     <use x="72.216797" xlink:href="#TimesNewRomanPSMT-6f"/>
     <use x="122.216797" xlink:href="#TimesNewRomanPSMT-20"/>
     <use x="147.216797" xlink:href="#TimesNewRomanPSMT-6d"/>
     <use x="225" xlink:href="#TimesNewRomanPSMT-69"/>
     <use x="252.783203" xlink:href="#TimesNewRomanPSMT-73"/>
     <use x="291.699219" xlink:href="#TimesNewRomanPSMT-73"/>
     <use x="330.615234" xlink:href="#TimesNewRomanPSMT-69"/>
     <use x="358.398438" xlink:href="#TimesNewRomanPSMT-6e"/>
     <use x="408.398438" xlink:href="#TimesNewRomanPSMT-67"/>
     <use x="458.398438" xlink:href="#TimesNewRomanPSMT-20"/>
     <use x="483.398438" xlink:href="#TimesNewRomanPSMT-73"/>
     <use x="522.314453" xlink:href="#TimesNewRomanPSMT-74"/>
     <use x="550.097656" xlink:href="#TimesNewRomanPSMT-65"/>
     <use x="594.482422" xlink:href="#TimesNewRomanPSMT-70"/>
     <use x="644.482422" xlink:href="#TimesNewRomanPSMT-73"/>
     <use x="683.398438" xlink:href="#TimesNewRomanPSMT-20"/>
     <use x="708.398438" xlink:href="#TimesNewRomanPSMT-6c"/>
     <use x="736.181641" xlink:href="#TimesNewRomanPSMT-69"/>
     <use x="763.964844" xlink:href="#TimesNewRomanPSMT-6d"/>
     <use x="841.748047" xlink:href="#TimesNewRomanPSMT-69"/>
     <use x="869.53125" xlink:href="#TimesNewRomanPSMT-74"/>
     <use x="897.314453" xlink:href="#TimesNewRomanPSMT-61"/>
     <use x="941.699219" xlink:href="#TimesNewRomanPSMT-74"/>
     <use x="969.482422" xlink:href="#TimesNewRomanPSMT-69"/>
     <use x="997.265625" xlink:href="#TimesNewRomanPSMT-6f"/>
     <use x="1047.265625" xlink:href="#TimesNewRomanPSMT-6e"/>
     <use x="1097.265625" xlink:href="#TimesNewRomanPSMT-20"/>
     <use x="1122.265625" xlink:href="#TimesNewRomanPSMT-64"/>
     <use x="1172.265625" xlink:href="#TimesNewRomanPSMT-61"/>
     <use x="1216.650391" xlink:href="#TimesNewRomanPSMT-74"/>
     <use x="1244.433594" xlink:href="#TimesNewRomanPSMT-61"/>
     <use x="1288.818359" xlink:href="#TimesNewRomanPSMT-20"/>
     <use x="1313.818359" xlink:href="#TimesNewRomanPSMT-73"/>
     <use x="1352.734375" xlink:href="#TimesNewRomanPSMT-74"/>
     <use x="1380.517578" xlink:href="#TimesNewRomanPSMT-61"/>
     <use x="1424.902344" xlink:href="#TimesNewRomanPSMT-74"/>
     <use x="1452.685547" xlink:href="#TimesNewRomanPSMT-69"/>
     <use x="1480.46875" xlink:href="#TimesNewRomanPSMT-73"/>
     <use x="1519.384766" xlink:href="#TimesNewRomanPSMT-74"/>
     <use x="1547.167969" xlink:href="#TimesNewRomanPSMT-69"/>
     <use x="1574.951172" xlink:href="#TimesNewRomanPSMT-63"/>
     <use x="1619.335938" xlink:href="#TimesNewRomanPSMT-73"/>
    </g>
   </g>
  </g>
 </g>
 <defs>
  <clipPath id="pb1526c4361">
   <rect height="146.88" width="504" x="144" y="25.92"/>
  </clipPath>
 </defs>
</svg>
