<?xml version="1.0" encoding="utf-8" standalone="no"?>
<!DOCTYPE svg PUBLIC "-//W3C//DTD SVG 1.1//EN"
  "http://www.w3.org/Graphics/SVG/1.1/DTD/svg11.dtd">
<svg height="720pt" version="1.1" viewBox="0 0 1800 720" width="1800pt" xmlns="http://www.w3.org/2000/svg" xmlns:xlink="http://www.w3.org/1999/xlink">
 <metadata>
  <rdf:RDF xmlns:cc="http://creativecommons.org/ns#" xmlns:dc="http://purl.org/dc/elements/1.1/" xmlns:rdf="http://www.w3.org/1999/02/22-rdf-syntax-ns#">
   <cc:Work>
    <dc:type rdf:resource="http://purl.org/dc/dcmitype/StillImage"/>
    <dc:date>2024-06-08T08:34:04.791726</dc:date>
    <dc:format>image/svg+xml</dc:format>
    <dc:creator>
     <cc:Agent>
      <dc:title>Matplotlib v3.4.3, https://matplotlib.org/</dc:title>
     </cc:Agent>
    </dc:creator>
   </cc:Work>
  </rdf:RDF>
 </metadata>
 <defs>
  <style type="text/css">*{stroke-linecap:butt;stroke-linejoin:round;}</style>
 </defs>
 <g id="figure_1">
  <g id="patch_1">
   <path d="M 0 720 
L 1800 720 
L 1800 0 
L 0 0 
z
" style="fill:#ffffff;"/>
  </g>
  <g id="axes_1">
   <g id="patch_2">
    <path d="M 1199.7 363.6 
C 1199.7 327.19843 1192.529684 291.150818 1178.599406 257.520153 
C 1164.669128 223.889487 1144.249797 193.329798 1118.51 167.59 
C 1092.770202 141.850203 1062.210513 121.430872 1028.579847 107.500594 
C 994.949182 93.570316 958.90157 86.4 922.5 86.4 
C 886.09843 86.4 850.050818 93.570316 816.420153 107.500594 
C 782.789487 121.430872 752.229798 141.850203 726.49 167.59 
C 700.750203 193.329798 680.330872 223.889487 666.400594 257.520153 
C 652.470316 291.150818 645.3 327.19843 645.3 363.6 
C 645.3 400.00157 652.470316 436.049182 666.400594 469.679847 
C 680.330872 503.310513 700.750203 533.870202 726.49 559.61 
C 752.229798 585.349797 782.789487 605.769128 816.420153 619.699406 
C 850.050818 633.629684 886.09843 640.8 922.5 640.8 
C 958.90157 640.8 994.949182 633.629684 1028.579847 619.699406 
C 1062.210513 605.769128 1092.770202 585.349797 1118.51 559.61 
C 1144.249797 533.870202 1164.669128 503.310513 1178.599406 469.679847 
C 1192.529684 436.049182 1199.7 400.00157 1199.7 363.6 
M 922.5 363.6 
C 922.5 363.6 922.5 363.6 922.5 363.6 
C 922.5 363.6 922.5 363.6 922.5 363.6 
C 922.5 363.6 922.5 363.6 922.5 363.6 
C 922.5 363.6 922.5 363.6 922.5 363.6 
C 922.5 363.6 922.5 363.6 922.5 363.6 
C 922.5 363.6 922.5 363.6 922.5 363.6 
C 922.5 363.6 922.5 363.6 922.5 363.6 
C 922.5 363.6 922.5 363.6 922.5 363.6 
C 922.5 363.6 922.5 363.6 922.5 363.6 
C 922.5 363.6 922.5 363.6 922.5 363.6 
C 922.5 363.6 922.5 363.6 922.5 363.6 
C 922.5 363.6 922.5 363.6 922.5 363.6 
C 922.5 363.6 922.5 363.6 922.5 363.6 
C 922.5 363.6 922.5 363.6 922.5 363.6 
C 922.5 363.6 922.5 363.6 922.5 363.6 
C 922.5 363.6 922.5 363.6 922.5 363.6 
M 1199.7 363.6 
z
" style="fill:#ffffff;"/>
   </g>
   <g id="matplotlib.axis_1">
    <g id="xtick_1">
     <g id="line2d_1">
      <path clip-path="url(#pe79dad8376)" d="M 922.5 363.6 
L 922.5 86.4 
" style="fill:none;stroke:#000000;stroke-linecap:square;stroke-opacity:0.1;"/>
     </g>
     <g id="text_1">
      <!-- No Missing -->
      <g transform="translate(828.590625 62.02875)scale(0.4 -0.4)">
       <defs>
        <path d="M -84 4238 
L 1066 4238 
L 3656 1059 
L 3656 3503 
Q 3656 3894 3569 3991 
Q 3453 4122 3203 4122 
L 3056 4122 
L 3056 4238 
L 4531 4238 
L 4531 4122 
L 4381 4122 
Q 4113 4122 4000 3959 
Q 3931 3859 3931 3503 
L 3931 -69 
L 3819 -69 
L 1025 3344 
L 1025 734 
Q 1025 344 1109 247 
Q 1228 116 1475 116 
L 1625 116 
L 1625 0 
L 150 0 
L 150 116 
L 297 116 
Q 569 116 681 278 
Q 750 378 750 734 
L 750 3681 
Q 566 3897 470 3965 
Q 375 4034 191 4094 
Q 100 4122 -84 4122 
L -84 4238 
z
" id="TimesNewRomanPSMT-4e" transform="scale(0.015625)"/>
        <path d="M 1600 2947 
Q 2250 2947 2644 2453 
Q 2978 2031 2978 1484 
Q 2978 1100 2793 706 
Q 2609 313 2286 112 
Q 1963 -88 1566 -88 
Q 919 -88 538 428 
Q 216 863 216 1403 
Q 216 1797 411 2186 
Q 606 2575 925 2761 
Q 1244 2947 1600 2947 
z
M 1503 2744 
Q 1338 2744 1170 2645 
Q 1003 2547 900 2300 
Q 797 2053 797 1666 
Q 797 1041 1045 587 
Q 1294 134 1700 134 
Q 2003 134 2200 384 
Q 2397 634 2397 1244 
Q 2397 2006 2069 2444 
Q 1847 2744 1503 2744 
z
" id="TimesNewRomanPSMT-6f" transform="scale(0.015625)"/>
        <path id="TimesNewRomanPSMT-20" transform="scale(0.015625)"/>
        <path d="M 2619 0 
L 981 3566 
L 981 734 
Q 981 344 1066 247 
Q 1181 116 1431 116 
L 1581 116 
L 1581 0 
L 106 0 
L 106 116 
L 256 116 
Q 525 116 638 278 
Q 706 378 706 734 
L 706 3503 
Q 706 3784 644 3909 
Q 600 4000 483 4061 
Q 366 4122 106 4122 
L 106 4238 
L 1306 4238 
L 2844 922 
L 4356 4238 
L 5556 4238 
L 5556 4122 
L 5409 4122 
Q 5138 4122 5025 3959 
Q 4956 3859 4956 3503 
L 4956 734 
Q 4956 344 5044 247 
Q 5159 116 5409 116 
L 5556 116 
L 5556 0 
L 3756 0 
L 3756 116 
L 3906 116 
Q 4178 116 4288 278 
Q 4356 378 4356 734 
L 4356 3566 
L 2722 0 
L 2619 0 
z
" id="TimesNewRomanPSMT-4d" transform="scale(0.015625)"/>
        <path d="M 928 4444 
Q 1059 4444 1151 4351 
Q 1244 4259 1244 4128 
Q 1244 3997 1151 3903 
Q 1059 3809 928 3809 
Q 797 3809 703 3903 
Q 609 3997 609 4128 
Q 609 4259 701 4351 
Q 794 4444 928 4444 
z
M 1188 2947 
L 1188 647 
Q 1188 378 1227 289 
Q 1266 200 1342 156 
Q 1419 113 1622 113 
L 1622 0 
L 231 0 
L 231 113 
Q 441 113 512 153 
Q 584 194 626 287 
Q 669 381 669 647 
L 669 1750 
Q 669 2216 641 2353 
Q 619 2453 572 2492 
Q 525 2531 444 2531 
Q 356 2531 231 2484 
L 188 2597 
L 1050 2947 
L 1188 2947 
z
" id="TimesNewRomanPSMT-69" transform="scale(0.015625)"/>
        <path d="M 2050 2947 
L 2050 1972 
L 1947 1972 
Q 1828 2431 1642 2597 
Q 1456 2763 1169 2763 
Q 950 2763 815 2647 
Q 681 2531 681 2391 
Q 681 2216 781 2091 
Q 878 1963 1175 1819 
L 1631 1597 
Q 2266 1288 2266 781 
Q 2266 391 1970 151 
Q 1675 -88 1309 -88 
Q 1047 -88 709 6 
Q 606 38 541 38 
Q 469 38 428 -44 
L 325 -44 
L 325 978 
L 428 978 
Q 516 541 762 319 
Q 1009 97 1316 97 
Q 1531 97 1667 223 
Q 1803 350 1803 528 
Q 1803 744 1651 891 
Q 1500 1038 1047 1263 
Q 594 1488 453 1669 
Q 313 1847 313 2119 
Q 313 2472 555 2709 
Q 797 2947 1181 2947 
Q 1350 2947 1591 2875 
Q 1750 2828 1803 2828 
Q 1853 2828 1881 2850 
Q 1909 2872 1947 2947 
L 2050 2947 
z
" id="TimesNewRomanPSMT-73" transform="scale(0.015625)"/>
        <path d="M 1034 2341 
Q 1538 2947 1994 2947 
Q 2228 2947 2397 2830 
Q 2566 2713 2666 2444 
Q 2734 2256 2734 1869 
L 2734 647 
Q 2734 375 2778 278 
Q 2813 200 2889 156 
Q 2966 113 3172 113 
L 3172 0 
L 1756 0 
L 1756 113 
L 1816 113 
Q 2016 113 2095 173 
Q 2175 234 2206 353 
Q 2219 400 2219 647 
L 2219 1819 
Q 2219 2209 2117 2386 
Q 2016 2563 1775 2563 
Q 1403 2563 1034 2156 
L 1034 647 
Q 1034 356 1069 288 
Q 1113 197 1189 155 
Q 1266 113 1500 113 
L 1500 0 
L 84 0 
L 84 113 
L 147 113 
Q 366 113 442 223 
Q 519 334 519 647 
L 519 1709 
Q 519 2225 495 2337 
Q 472 2450 423 2490 
Q 375 2531 294 2531 
Q 206 2531 84 2484 
L 38 2597 
L 900 2947 
L 1034 2947 
L 1034 2341 
z
" id="TimesNewRomanPSMT-6e" transform="scale(0.015625)"/>
        <path d="M 966 1044 
Q 703 1172 562 1401 
Q 422 1631 422 1909 
Q 422 2334 742 2640 
Q 1063 2947 1563 2947 
Q 1972 2947 2272 2747 
L 2878 2747 
Q 3013 2747 3034 2739 
Q 3056 2731 3066 2713 
Q 3084 2684 3084 2613 
Q 3084 2531 3069 2500 
Q 3059 2484 3036 2475 
Q 3013 2466 2878 2466 
L 2506 2466 
Q 2681 2241 2681 1891 
Q 2681 1491 2375 1206 
Q 2069 922 1553 922 
Q 1341 922 1119 984 
Q 981 866 932 777 
Q 884 688 884 625 
Q 884 572 936 522 
Q 988 472 1138 450 
Q 1225 438 1575 428 
Q 2219 413 2409 384 
Q 2700 344 2873 169 
Q 3047 -6 3047 -263 
Q 3047 -616 2716 -925 
Q 2228 -1381 1444 -1381 
Q 841 -1381 425 -1109 
Q 191 -953 191 -784 
Q 191 -709 225 -634 
Q 278 -519 444 -313 
Q 466 -284 763 25 
Q 600 122 533 198 
Q 466 275 466 372 
Q 466 481 555 628 
Q 644 775 966 1044 
z
M 1509 2797 
Q 1278 2797 1122 2612 
Q 966 2428 966 2047 
Q 966 1553 1178 1281 
Q 1341 1075 1591 1075 
Q 1828 1075 1981 1253 
Q 2134 1431 2134 1813 
Q 2134 2309 1919 2591 
Q 1759 2797 1509 2797 
z
M 934 0 
Q 788 -159 713 -296 
Q 638 -434 638 -550 
Q 638 -700 819 -813 
Q 1131 -1006 1722 -1006 
Q 2284 -1006 2551 -807 
Q 2819 -609 2819 -384 
Q 2819 -222 2659 -153 
Q 2497 -84 2016 -72 
Q 1313 -53 934 0 
z
" id="TimesNewRomanPSMT-67" transform="scale(0.015625)"/>
       </defs>
       <use xlink:href="#TimesNewRomanPSMT-4e"/>
       <use x="72.216797" xlink:href="#TimesNewRomanPSMT-6f"/>
       <use x="122.216797" xlink:href="#TimesNewRomanPSMT-20"/>
       <use x="147.216797" xlink:href="#TimesNewRomanPSMT-4d"/>
       <use x="236.132812" xlink:href="#TimesNewRomanPSMT-69"/>
       <use x="263.916016" xlink:href="#TimesNewRomanPSMT-73"/>
       <use x="302.832031" xlink:href="#TimesNewRomanPSMT-73"/>
       <use x="341.748047" xlink:href="#TimesNewRomanPSMT-69"/>
       <use x="369.53125" xlink:href="#TimesNewRomanPSMT-6e"/>
       <use x="419.53125" xlink:href="#TimesNewRomanPSMT-67"/>
      </g>
      <!-- Steps -->
      <g transform="translate(879.159375 103.99)scale(0.4 -0.4)">
       <defs>
        <path d="M 2934 4334 
L 2934 2869 
L 2819 2869 
Q 2763 3291 2617 3541 
Q 2472 3791 2203 3937 
Q 1934 4084 1647 4084 
Q 1322 4084 1109 3886 
Q 897 3688 897 3434 
Q 897 3241 1031 3081 
Q 1225 2847 1953 2456 
Q 2547 2138 2764 1967 
Q 2981 1797 3098 1565 
Q 3216 1334 3216 1081 
Q 3216 600 2842 251 
Q 2469 -97 1881 -97 
Q 1697 -97 1534 -69 
Q 1438 -53 1133 45 
Q 828 144 747 144 
Q 669 144 623 97 
Q 578 50 556 -97 
L 441 -97 
L 441 1356 
L 556 1356 
Q 638 900 775 673 
Q 913 447 1195 297 
Q 1478 147 1816 147 
Q 2206 147 2432 353 
Q 2659 559 2659 841 
Q 2659 997 2573 1156 
Q 2488 1316 2306 1453 
Q 2184 1547 1640 1851 
Q 1097 2156 867 2337 
Q 638 2519 519 2737 
Q 400 2956 400 3219 
Q 400 3675 750 4004 
Q 1100 4334 1641 4334 
Q 1978 4334 2356 4169 
Q 2531 4091 2603 4091 
Q 2684 4091 2736 4139 
Q 2788 4188 2819 4334 
L 2934 4334 
z
" id="TimesNewRomanPSMT-53" transform="scale(0.015625)"/>
        <path d="M 1031 3803 
L 1031 2863 
L 1700 2863 
L 1700 2644 
L 1031 2644 
L 1031 788 
Q 1031 509 1111 412 
Q 1191 316 1316 316 
Q 1419 316 1516 380 
Q 1613 444 1666 569 
L 1788 569 
Q 1678 263 1478 108 
Q 1278 -47 1066 -47 
Q 922 -47 784 33 
Q 647 113 581 261 
Q 516 409 516 719 
L 516 2644 
L 63 2644 
L 63 2747 
Q 234 2816 414 2980 
Q 594 3144 734 3369 
Q 806 3488 934 3803 
L 1031 3803 
z
" id="TimesNewRomanPSMT-74" transform="scale(0.015625)"/>
        <path d="M 681 1784 
Q 678 1147 991 784 
Q 1303 422 1725 422 
Q 2006 422 2214 576 
Q 2422 731 2563 1106 
L 2659 1044 
Q 2594 616 2278 264 
Q 1963 -88 1488 -88 
Q 972 -88 605 314 
Q 238 716 238 1394 
Q 238 2128 614 2539 
Q 991 2950 1559 2950 
Q 2041 2950 2350 2633 
Q 2659 2316 2659 1784 
L 681 1784 
z
M 681 1966 
L 2006 1966 
Q 1991 2241 1941 2353 
Q 1863 2528 1708 2628 
Q 1553 2728 1384 2728 
Q 1125 2728 920 2526 
Q 716 2325 681 1966 
z
" id="TimesNewRomanPSMT-65" transform="scale(0.015625)"/>
        <path d="M -6 2578 
L 875 2934 
L 994 2934 
L 994 2266 
Q 1216 2644 1439 2795 
Q 1663 2947 1909 2947 
Q 2341 2947 2628 2609 
Q 2981 2197 2981 1534 
Q 2981 794 2556 309 
Q 2206 -88 1675 -88 
Q 1444 -88 1275 -22 
Q 1150 25 994 166 
L 994 -706 
Q 994 -1000 1030 -1079 
Q 1066 -1159 1155 -1206 
Q 1244 -1253 1478 -1253 
L 1478 -1369 
L -22 -1369 
L -22 -1253 
L 56 -1253 
Q 228 -1256 350 -1188 
Q 409 -1153 442 -1076 
Q 475 -1000 475 -688 
L 475 2019 
Q 475 2297 450 2372 
Q 425 2447 370 2484 
Q 316 2522 222 2522 
Q 147 2522 31 2478 
L -6 2578 
z
M 994 2081 
L 994 1013 
Q 994 666 1022 556 
Q 1066 375 1236 237 
Q 1406 100 1666 100 
Q 1978 100 2172 344 
Q 2425 663 2425 1241 
Q 2425 1897 2138 2250 
Q 1938 2494 1663 2494 
Q 1513 2494 1366 2419 
Q 1253 2363 994 2081 
z
" id="TimesNewRomanPSMT-70" transform="scale(0.015625)"/>
       </defs>
       <use xlink:href="#TimesNewRomanPSMT-53"/>
       <use x="55.615234" xlink:href="#TimesNewRomanPSMT-74"/>
       <use x="83.398438" xlink:href="#TimesNewRomanPSMT-65"/>
       <use x="127.783203" xlink:href="#TimesNewRomanPSMT-70"/>
       <use x="177.783203" xlink:href="#TimesNewRomanPSMT-73"/>
      </g>
     </g>
    </g>
    <g id="xtick_2">
     <g id="line2d_2">
      <path clip-path="url(#pe79dad8376)" d="M 922.5 363.6 
L 1139.223687 190.768627 
" style="fill:none;stroke:#000000;stroke-linecap:square;stroke-opacity:0.1;"/>
     </g>
     <g id="text_2">
      <!-- No Redundant -->
      <g transform="translate(1033.290621 171.32951)scale(0.4 -0.4)">
       <defs>
        <path d="M 4325 0 
L 3194 0 
L 1759 1981 
Q 1600 1975 1500 1975 
Q 1459 1975 1412 1976 
Q 1366 1978 1316 1981 
L 1316 750 
Q 1316 350 1403 253 
Q 1522 116 1759 116 
L 1925 116 
L 1925 0 
L 109 0 
L 109 116 
L 269 116 
Q 538 116 653 291 
Q 719 388 719 750 
L 719 3488 
Q 719 3888 631 3984 
Q 509 4122 269 4122 
L 109 4122 
L 109 4238 
L 1653 4238 
Q 2328 4238 2648 4139 
Q 2969 4041 3192 3777 
Q 3416 3513 3416 3147 
Q 3416 2756 3161 2468 
Q 2906 2181 2372 2063 
L 3247 847 
Q 3547 428 3762 290 
Q 3978 153 4325 116 
L 4325 0 
z
M 1316 2178 
Q 1375 2178 1419 2176 
Q 1463 2175 1491 2175 
Q 2097 2175 2405 2437 
Q 2713 2700 2713 3106 
Q 2713 3503 2464 3751 
Q 2216 4000 1806 4000 
Q 1625 4000 1316 3941 
L 1316 2178 
z
" id="TimesNewRomanPSMT-52" transform="scale(0.015625)"/>
        <path d="M 2222 322 
Q 2013 103 1813 7 
Q 1613 -88 1381 -88 
Q 913 -88 563 304 
Q 213 697 213 1313 
Q 213 1928 600 2439 
Q 988 2950 1597 2950 
Q 1975 2950 2222 2709 
L 2222 3238 
Q 2222 3728 2198 3840 
Q 2175 3953 2125 3993 
Q 2075 4034 2000 4034 
Q 1919 4034 1784 3984 
L 1744 4094 
L 2597 4444 
L 2738 4444 
L 2738 1134 
Q 2738 631 2761 520 
Q 2784 409 2836 365 
Q 2888 322 2956 322 
Q 3041 322 3181 375 
L 3216 266 
L 2366 -88 
L 2222 -88 
L 2222 322 
z
M 2222 541 
L 2222 2016 
Q 2203 2228 2109 2403 
Q 2016 2578 1861 2667 
Q 1706 2756 1559 2756 
Q 1284 2756 1069 2509 
Q 784 2184 784 1559 
Q 784 928 1059 592 
Q 1334 256 1672 256 
Q 1956 256 2222 541 
z
" id="TimesNewRomanPSMT-64" transform="scale(0.015625)"/>
        <path d="M 2709 2863 
L 2709 1128 
Q 2709 631 2732 520 
Q 2756 409 2807 365 
Q 2859 322 2928 322 
Q 3025 322 3147 375 
L 3191 266 
L 2334 -88 
L 2194 -88 
L 2194 519 
Q 1825 119 1631 15 
Q 1438 -88 1222 -88 
Q 981 -88 804 51 
Q 628 191 559 409 
Q 491 628 491 1028 
L 491 2306 
Q 491 2509 447 2587 
Q 403 2666 317 2708 
Q 231 2750 6 2747 
L 6 2863 
L 1009 2863 
L 1009 947 
Q 1009 547 1148 422 
Q 1288 297 1484 297 
Q 1619 297 1789 381 
Q 1959 466 2194 703 
L 2194 2325 
Q 2194 2569 2105 2655 
Q 2016 2741 1734 2747 
L 1734 2863 
L 2709 2863 
z
" id="TimesNewRomanPSMT-75" transform="scale(0.015625)"/>
        <path d="M 1822 413 
Q 1381 72 1269 19 
Q 1100 -59 909 -59 
Q 613 -59 420 144 
Q 228 347 228 678 
Q 228 888 322 1041 
Q 450 1253 767 1440 
Q 1084 1628 1822 1897 
L 1822 2009 
Q 1822 2438 1686 2597 
Q 1550 2756 1291 2756 
Q 1094 2756 978 2650 
Q 859 2544 859 2406 
L 866 2225 
Q 866 2081 792 2003 
Q 719 1925 600 1925 
Q 484 1925 411 2006 
Q 338 2088 338 2228 
Q 338 2497 613 2722 
Q 888 2947 1384 2947 
Q 1766 2947 2009 2819 
Q 2194 2722 2281 2516 
Q 2338 2381 2338 1966 
L 2338 994 
Q 2338 584 2353 492 
Q 2369 400 2405 369 
Q 2441 338 2488 338 
Q 2538 338 2575 359 
Q 2641 400 2828 588 
L 2828 413 
Q 2478 -56 2159 -56 
Q 2006 -56 1915 50 
Q 1825 156 1822 413 
z
M 1822 616 
L 1822 1706 
Q 1350 1519 1213 1441 
Q 966 1303 859 1153 
Q 753 1003 753 825 
Q 753 600 887 451 
Q 1022 303 1197 303 
Q 1434 303 1822 616 
z
" id="TimesNewRomanPSMT-61" transform="scale(0.015625)"/>
       </defs>
       <use xlink:href="#TimesNewRomanPSMT-4e"/>
       <use x="72.216797" xlink:href="#TimesNewRomanPSMT-6f"/>
       <use x="122.216797" xlink:href="#TimesNewRomanPSMT-20"/>
       <use x="147.216797" xlink:href="#TimesNewRomanPSMT-52"/>
       <use x="213.916016" xlink:href="#TimesNewRomanPSMT-65"/>
       <use x="258.300781" xlink:href="#TimesNewRomanPSMT-64"/>
       <use x="308.300781" xlink:href="#TimesNewRomanPSMT-75"/>
       <use x="358.300781" xlink:href="#TimesNewRomanPSMT-6e"/>
       <use x="408.300781" xlink:href="#TimesNewRomanPSMT-64"/>
       <use x="458.300781" xlink:href="#TimesNewRomanPSMT-61"/>
       <use x="502.685547" xlink:href="#TimesNewRomanPSMT-6e"/>
       <use x="552.685547" xlink:href="#TimesNewRomanPSMT-74"/>
      </g>
      <!-- Steps -->
      <g transform="translate(1106.046871 213.21576)scale(0.4 -0.4)">
       <use xlink:href="#TimesNewRomanPSMT-53"/>
       <use x="55.615234" xlink:href="#TimesNewRomanPSMT-74"/>
       <use x="83.398438" xlink:href="#TimesNewRomanPSMT-65"/>
       <use x="127.783203" xlink:href="#TimesNewRomanPSMT-70"/>
       <use x="177.783203" xlink:href="#TimesNewRomanPSMT-73"/>
      </g>
     </g>
    </g>
    <g id="xtick_3">
     <g id="line2d_3">
      <path clip-path="url(#pe79dad8376)" d="M 922.5 363.6 
L 1192.750017 425.282803 
" style="fill:none;stroke:#000000;stroke-linecap:square;stroke-opacity:0.1;"/>
     </g>
     <g id="text_3">
      <!-- No Duplicate -->
      <g transform="translate(1098.233455 416.841825)scale(0.4 -0.4)">
       <defs>
        <path d="M 109 0 
L 109 116 
L 269 116 
Q 538 116 650 288 
Q 719 391 719 750 
L 719 3488 
Q 719 3884 631 3984 
Q 509 4122 269 4122 
L 109 4122 
L 109 4238 
L 1834 4238 
Q 2784 4238 3279 4022 
Q 3775 3806 4076 3303 
Q 4378 2800 4378 2141 
Q 4378 1256 3841 663 
Q 3238 0 2003 0 
L 109 0 
z
M 1319 306 
Q 1716 219 1984 219 
Q 2709 219 3187 728 
Q 3666 1238 3666 2109 
Q 3666 2988 3187 3494 
Q 2709 4000 1959 4000 
Q 1678 4000 1319 3909 
L 1319 306 
z
" id="TimesNewRomanPSMT-44" transform="scale(0.015625)"/>
        <path d="M 1184 4444 
L 1184 647 
Q 1184 378 1223 290 
Q 1263 203 1344 158 
Q 1425 113 1647 113 
L 1647 0 
L 244 0 
L 244 113 
Q 441 113 512 153 
Q 584 194 625 287 
Q 666 381 666 647 
L 666 3247 
Q 666 3731 644 3842 
Q 622 3953 573 3993 
Q 525 4034 450 4034 
Q 369 4034 244 3984 
L 191 4094 
L 1044 4444 
L 1184 4444 
z
" id="TimesNewRomanPSMT-6c" transform="scale(0.015625)"/>
        <path d="M 2631 1088 
Q 2516 522 2178 217 
Q 1841 -88 1431 -88 
Q 944 -88 581 321 
Q 219 731 219 1428 
Q 219 2103 620 2525 
Q 1022 2947 1584 2947 
Q 2006 2947 2278 2723 
Q 2550 2500 2550 2259 
Q 2550 2141 2473 2067 
Q 2397 1994 2259 1994 
Q 2075 1994 1981 2113 
Q 1928 2178 1911 2362 
Q 1894 2547 1784 2644 
Q 1675 2738 1481 2738 
Q 1169 2738 978 2506 
Q 725 2200 725 1697 
Q 725 1184 976 792 
Q 1228 400 1656 400 
Q 1963 400 2206 609 
Q 2378 753 2541 1131 
L 2631 1088 
z
" id="TimesNewRomanPSMT-63" transform="scale(0.015625)"/>
       </defs>
       <use xlink:href="#TimesNewRomanPSMT-4e"/>
       <use x="72.216797" xlink:href="#TimesNewRomanPSMT-6f"/>
       <use x="122.216797" xlink:href="#TimesNewRomanPSMT-20"/>
       <use x="147.216797" xlink:href="#TimesNewRomanPSMT-44"/>
       <use x="219.433594" xlink:href="#TimesNewRomanPSMT-75"/>
       <use x="269.433594" xlink:href="#TimesNewRomanPSMT-70"/>
       <use x="319.433594" xlink:href="#TimesNewRomanPSMT-6c"/>
       <use x="347.216797" xlink:href="#TimesNewRomanPSMT-69"/>
       <use x="375" xlink:href="#TimesNewRomanPSMT-63"/>
       <use x="419.384766" xlink:href="#TimesNewRomanPSMT-61"/>
       <use x="463.769531" xlink:href="#TimesNewRomanPSMT-74"/>
       <use x="491.552734" xlink:href="#TimesNewRomanPSMT-65"/>
      </g>
      <!-- Steps -->
      <g transform="translate(1162.083455 458.728075)scale(0.4 -0.4)">
       <use xlink:href="#TimesNewRomanPSMT-53"/>
       <use x="55.615234" xlink:href="#TimesNewRomanPSMT-74"/>
       <use x="83.398438" xlink:href="#TimesNewRomanPSMT-65"/>
       <use x="127.783203" xlink:href="#TimesNewRomanPSMT-70"/>
       <use x="177.783203" xlink:href="#TimesNewRomanPSMT-73"/>
      </g>
     </g>
    </g>
    <g id="xtick_4">
     <g id="line2d_4">
      <path clip-path="url(#pe79dad8376)" d="M 922.5 363.6 
L 1042.772572 613.34857 
" style="fill:none;stroke:#000000;stroke-linecap:square;stroke-opacity:0.1;"/>
     </g>
     <g id="text_4">
      <!-- Executable -->
      <g transform="translate(959.572436 634.67054)scale(0.4 -0.4)">
       <defs>
        <path d="M 1338 4006 
L 1338 2331 
L 2269 2331 
Q 2631 2331 2753 2441 
Q 2916 2584 2934 2947 
L 3050 2947 
L 3050 1472 
L 2934 1472 
Q 2891 1781 2847 1869 
Q 2791 1978 2662 2040 
Q 2534 2103 2269 2103 
L 1338 2103 
L 1338 706 
Q 1338 425 1363 364 
Q 1388 303 1450 267 
Q 1513 231 1688 231 
L 2406 231 
Q 2766 231 2928 281 
Q 3091 331 3241 478 
Q 3434 672 3638 1063 
L 3763 1063 
L 3397 0 
L 131 0 
L 131 116 
L 281 116 
Q 431 116 566 188 
Q 666 238 702 338 
Q 738 438 738 747 
L 738 3500 
Q 738 3903 656 3997 
Q 544 4122 281 4122 
L 131 4122 
L 131 4238 
L 3397 4238 
L 3444 3309 
L 3322 3309 
Q 3256 3644 3176 3769 
Q 3097 3894 2941 3959 
Q 2816 4006 2500 4006 
L 1338 4006 
z
" id="TimesNewRomanPSMT-45" transform="scale(0.015625)"/>
        <path d="M 84 2863 
L 1431 2863 
L 1431 2747 
Q 1303 2747 1251 2703 
Q 1200 2659 1200 2588 
Q 1200 2513 1309 2356 
Q 1344 2306 1413 2200 
L 1616 1875 
L 1850 2200 
Q 2075 2509 2075 2591 
Q 2075 2656 2022 2701 
Q 1969 2747 1850 2747 
L 1850 2863 
L 2819 2863 
L 2819 2747 
Q 2666 2738 2553 2663 
Q 2400 2556 2134 2200 
L 1744 1678 
L 2456 653 
Q 2719 275 2831 198 
Q 2944 122 3122 113 
L 3122 0 
L 1772 0 
L 1772 113 
Q 1913 113 1991 175 
Q 2050 219 2050 291 
Q 2050 363 1850 653 
L 1431 1266 
L 972 653 
Q 759 369 759 316 
Q 759 241 829 180 
Q 900 119 1041 113 
L 1041 0 
L 106 0 
L 106 113 
Q 219 128 303 191 
Q 422 281 703 653 
L 1303 1450 
L 759 2238 
Q 528 2575 401 2661 
Q 275 2747 84 2747 
L 84 2863 
z
" id="TimesNewRomanPSMT-78" transform="scale(0.015625)"/>
        <path d="M 984 2369 
Q 1400 2947 1881 2947 
Q 2322 2947 2650 2570 
Q 2978 2194 2978 1541 
Q 2978 778 2472 313 
Q 2038 -88 1503 -88 
Q 1253 -88 995 3 
Q 738 94 469 275 
L 469 3241 
Q 469 3728 445 3840 
Q 422 3953 372 3993 
Q 322 4034 247 4034 
Q 159 4034 28 3984 
L -16 4094 
L 844 4444 
L 984 4444 
L 984 2369 
z
M 984 2169 
L 984 456 
Q 1144 300 1314 220 
Q 1484 141 1663 141 
Q 1947 141 2192 453 
Q 2438 766 2438 1363 
Q 2438 1913 2192 2208 
Q 1947 2503 1634 2503 
Q 1469 2503 1303 2419 
Q 1178 2356 984 2169 
z
" id="TimesNewRomanPSMT-62" transform="scale(0.015625)"/>
       </defs>
       <use xlink:href="#TimesNewRomanPSMT-45"/>
       <use x="61.083984" xlink:href="#TimesNewRomanPSMT-78"/>
       <use x="111.083984" xlink:href="#TimesNewRomanPSMT-65"/>
       <use x="155.46875" xlink:href="#TimesNewRomanPSMT-63"/>
       <use x="199.853516" xlink:href="#TimesNewRomanPSMT-75"/>
       <use x="249.853516" xlink:href="#TimesNewRomanPSMT-74"/>
       <use x="277.636719" xlink:href="#TimesNewRomanPSMT-61"/>
       <use x="322.021484" xlink:href="#TimesNewRomanPSMT-62"/>
       <use x="372.021484" xlink:href="#TimesNewRomanPSMT-6c"/>
       <use x="399.804688" xlink:href="#TimesNewRomanPSMT-65"/>
      </g>
     </g>
    </g>
    <g id="xtick_5">
     <g id="line2d_5">
      <path clip-path="url(#pe79dad8376)" d="M 922.5 363.6 
L 802.227428 613.34857 
" style="fill:none;stroke:#000000;stroke-linecap:square;stroke-opacity:0.1;"/>
     </g>
     <g id="text_5">
      <!-- Satisfy -->
      <g transform="translate(741.030689 613.689915)scale(0.4 -0.4)">
       <defs>
        <path d="M 1319 2638 
L 1319 756 
Q 1319 356 1406 250 
Q 1522 113 1716 113 
L 1975 113 
L 1975 0 
L 266 0 
L 266 113 
L 394 113 
Q 519 113 622 175 
Q 725 238 764 344 
Q 803 450 803 756 
L 803 2638 
L 247 2638 
L 247 2863 
L 803 2863 
L 803 3050 
Q 803 3478 940 3775 
Q 1078 4072 1361 4255 
Q 1644 4438 1997 4438 
Q 2325 4438 2600 4225 
Q 2781 4084 2781 3909 
Q 2781 3816 2700 3733 
Q 2619 3650 2525 3650 
Q 2453 3650 2373 3701 
Q 2294 3753 2178 3923 
Q 2063 4094 1966 4153 
Q 1869 4213 1750 4213 
Q 1606 4213 1506 4136 
Q 1406 4059 1362 3898 
Q 1319 3738 1319 3069 
L 1319 2863 
L 2056 2863 
L 2056 2638 
L 1319 2638 
z
" id="TimesNewRomanPSMT-66" transform="scale(0.015625)"/>
        <path d="M 38 2863 
L 1372 2863 
L 1372 2747 
L 1306 2747 
Q 1166 2747 1095 2686 
Q 1025 2625 1025 2534 
Q 1025 2413 1128 2197 
L 1825 753 
L 2466 2334 
Q 2519 2463 2519 2588 
Q 2519 2644 2497 2672 
Q 2472 2706 2419 2726 
Q 2366 2747 2231 2747 
L 2231 2863 
L 3163 2863 
L 3163 2747 
Q 3047 2734 2984 2696 
Q 2922 2659 2847 2556 
Q 2819 2513 2741 2316 
L 1575 -541 
Q 1406 -956 1132 -1168 
Q 859 -1381 606 -1381 
Q 422 -1381 303 -1275 
Q 184 -1169 184 -1031 
Q 184 -900 270 -820 
Q 356 -741 506 -741 
Q 609 -741 788 -809 
Q 913 -856 944 -856 
Q 1038 -856 1148 -759 
Q 1259 -663 1372 -384 
L 1575 113 
L 547 2272 
Q 500 2369 397 2513 
Q 319 2622 269 2659 
Q 197 2709 38 2747 
L 38 2863 
z
" id="TimesNewRomanPSMT-79" transform="scale(0.015625)"/>
       </defs>
       <use xlink:href="#TimesNewRomanPSMT-53"/>
       <use x="55.615234" xlink:href="#TimesNewRomanPSMT-61"/>
       <use x="100" xlink:href="#TimesNewRomanPSMT-74"/>
       <use x="127.783203" xlink:href="#TimesNewRomanPSMT-69"/>
       <use x="155.566406" xlink:href="#TimesNewRomanPSMT-73"/>
       <use x="194.482422" xlink:href="#TimesNewRomanPSMT-66"/>
       <use x="227.783203" xlink:href="#TimesNewRomanPSMT-79"/>
      </g>
      <!-- Constraint -->
      <g transform="translate(713.255689 655.651165)scale(0.4 -0.4)">
       <defs>
        <path d="M 3853 4334 
L 3950 2894 
L 3853 2894 
Q 3659 3541 3300 3825 
Q 2941 4109 2438 4109 
Q 2016 4109 1675 3895 
Q 1334 3681 1139 3212 
Q 944 2744 944 2047 
Q 944 1472 1128 1050 
Q 1313 628 1683 403 
Q 2053 178 2528 178 
Q 2941 178 3256 354 
Q 3572 531 3950 1056 
L 4047 994 
Q 3728 428 3303 165 
Q 2878 -97 2294 -97 
Q 1241 -97 663 684 
Q 231 1266 231 2053 
Q 231 2688 515 3219 
Q 800 3750 1298 4042 
Q 1797 4334 2388 4334 
Q 2847 4334 3294 4109 
Q 3425 4041 3481 4041 
Q 3566 4041 3628 4100 
Q 3709 4184 3744 4334 
L 3853 4334 
z
" id="TimesNewRomanPSMT-43" transform="scale(0.015625)"/>
        <path d="M 1038 2947 
L 1038 2303 
Q 1397 2947 1775 2947 
Q 1947 2947 2059 2842 
Q 2172 2738 2172 2600 
Q 2172 2478 2090 2393 
Q 2009 2309 1897 2309 
Q 1788 2309 1652 2417 
Q 1516 2525 1450 2525 
Q 1394 2525 1328 2463 
Q 1188 2334 1038 2041 
L 1038 669 
Q 1038 431 1097 309 
Q 1138 225 1241 169 
Q 1344 113 1538 113 
L 1538 0 
L 72 0 
L 72 113 
Q 291 113 397 181 
Q 475 231 506 341 
Q 522 394 522 644 
L 522 1753 
Q 522 2253 501 2348 
Q 481 2444 426 2487 
Q 372 2531 291 2531 
Q 194 2531 72 2484 
L 41 2597 
L 906 2947 
L 1038 2947 
z
" id="TimesNewRomanPSMT-72" transform="scale(0.015625)"/>
       </defs>
       <use xlink:href="#TimesNewRomanPSMT-43"/>
       <use x="66.699219" xlink:href="#TimesNewRomanPSMT-6f"/>
       <use x="116.699219" xlink:href="#TimesNewRomanPSMT-6e"/>
       <use x="166.699219" xlink:href="#TimesNewRomanPSMT-73"/>
       <use x="205.615234" xlink:href="#TimesNewRomanPSMT-74"/>
       <use x="233.398438" xlink:href="#TimesNewRomanPSMT-72"/>
       <use x="266.699219" xlink:href="#TimesNewRomanPSMT-61"/>
       <use x="311.083984" xlink:href="#TimesNewRomanPSMT-69"/>
       <use x="338.867188" xlink:href="#TimesNewRomanPSMT-6e"/>
       <use x="388.867188" xlink:href="#TimesNewRomanPSMT-74"/>
      </g>
     </g>
    </g>
    <g id="xtick_6">
     <g id="line2d_6">
      <path clip-path="url(#pe79dad8376)" d="M 922.5 363.6 
L 652.249983 425.282803 
" style="fill:none;stroke:#000000;stroke-linecap:square;stroke-opacity:0.1;"/>
     </g>
     <g id="text_6">
      <!-- Complete -->
      <g transform="translate(561.810295 416.841825)scale(0.4 -0.4)">
       <defs>
        <path d="M 1050 2338 
Q 1363 2650 1419 2697 
Q 1559 2816 1721 2881 
Q 1884 2947 2044 2947 
Q 2313 2947 2506 2790 
Q 2700 2634 2766 2338 
Q 3088 2713 3309 2830 
Q 3531 2947 3766 2947 
Q 3994 2947 4170 2830 
Q 4347 2713 4450 2447 
Q 4519 2266 4519 1878 
L 4519 647 
Q 4519 378 4559 278 
Q 4591 209 4675 161 
Q 4759 113 4950 113 
L 4950 0 
L 3538 0 
L 3538 113 
L 3597 113 
Q 3781 113 3884 184 
Q 3956 234 3988 344 
Q 4000 397 4000 647 
L 4000 1878 
Q 4000 2228 3916 2372 
Q 3794 2572 3525 2572 
Q 3359 2572 3192 2489 
Q 3025 2406 2788 2181 
L 2781 2147 
L 2788 2013 
L 2788 647 
Q 2788 353 2820 281 
Q 2853 209 2943 161 
Q 3034 113 3253 113 
L 3253 0 
L 1806 0 
L 1806 113 
Q 2044 113 2133 169 
Q 2222 225 2256 338 
Q 2272 391 2272 647 
L 2272 1878 
Q 2272 2228 2169 2381 
Q 2031 2581 1784 2581 
Q 1616 2581 1450 2491 
Q 1191 2353 1050 2181 
L 1050 647 
Q 1050 366 1089 281 
Q 1128 197 1204 155 
Q 1281 113 1516 113 
L 1516 0 
L 100 0 
L 100 113 
Q 297 113 375 155 
Q 453 197 493 289 
Q 534 381 534 647 
L 534 1741 
Q 534 2213 506 2350 
Q 484 2453 437 2492 
Q 391 2531 309 2531 
Q 222 2531 100 2484 
L 53 2597 
L 916 2947 
L 1050 2947 
L 1050 2338 
z
" id="TimesNewRomanPSMT-6d" transform="scale(0.015625)"/>
       </defs>
       <use xlink:href="#TimesNewRomanPSMT-43"/>
       <use x="66.699219" xlink:href="#TimesNewRomanPSMT-6f"/>
       <use x="116.699219" xlink:href="#TimesNewRomanPSMT-6d"/>
       <use x="194.482422" xlink:href="#TimesNewRomanPSMT-70"/>
       <use x="244.482422" xlink:href="#TimesNewRomanPSMT-6c"/>
       <use x="272.265625" xlink:href="#TimesNewRomanPSMT-65"/>
       <use x="316.650391" xlink:href="#TimesNewRomanPSMT-74"/>
       <use x="344.433594" xlink:href="#TimesNewRomanPSMT-65"/>
      </g>
      <!-- Script -->
      <g transform="translate(591.804045 458.728075)scale(0.4 -0.4)">
       <use xlink:href="#TimesNewRomanPSMT-53"/>
       <use x="55.615234" xlink:href="#TimesNewRomanPSMT-63"/>
       <use x="100" xlink:href="#TimesNewRomanPSMT-72"/>
       <use x="133.300781" xlink:href="#TimesNewRomanPSMT-69"/>
       <use x="161.083984" xlink:href="#TimesNewRomanPSMT-70"/>
       <use x="211.083984" xlink:href="#TimesNewRomanPSMT-74"/>
      </g>
     </g>
    </g>
    <g id="xtick_7">
     <g id="line2d_7">
      <path clip-path="url(#pe79dad8376)" d="M 922.5 363.6 
L 705.776313 190.768627 
" style="fill:none;stroke:#000000;stroke-linecap:square;stroke-opacity:0.1;"/>
     </g>
     <g id="text_7">
      <!-- Step -->
      <g transform="translate(660.056254 171.32951)scale(0.4 -0.4)">
       <use xlink:href="#TimesNewRomanPSMT-53"/>
       <use x="55.615234" xlink:href="#TimesNewRomanPSMT-74"/>
       <use x="83.398438" xlink:href="#TimesNewRomanPSMT-65"/>
       <use x="127.783203" xlink:href="#TimesNewRomanPSMT-70"/>
      </g>
      <!-- Correct -->
      <g transform="translate(635.640629 213.21576)scale(0.4 -0.4)">
       <use xlink:href="#TimesNewRomanPSMT-43"/>
       <use x="66.699219" xlink:href="#TimesNewRomanPSMT-6f"/>
       <use x="116.699219" xlink:href="#TimesNewRomanPSMT-72"/>
       <use x="150" xlink:href="#TimesNewRomanPSMT-72"/>
       <use x="183.300781" xlink:href="#TimesNewRomanPSMT-65"/>
       <use x="227.685547" xlink:href="#TimesNewRomanPSMT-63"/>
       <use x="272.070312" xlink:href="#TimesNewRomanPSMT-74"/>
      </g>
     </g>
    </g>
    <g id="xtick_8"/>
    <g id="xtick_9"/>
    <g id="xtick_10"/>
    <g id="xtick_11"/>
    <g id="xtick_12"/>
    <g id="xtick_13"/>
    <g id="xtick_14"/>
    <g id="xtick_15"/>
    <g id="xtick_16"/>
    <g id="xtick_17"/>
    <g id="xtick_18"/>
    <g id="xtick_19"/>
    <g id="xtick_20"/>
    <g id="xtick_21"/>
    <g id="xtick_22"/>
    <g id="xtick_23"/>
    <g id="xtick_24"/>
    <g id="xtick_25"/>
    <g id="xtick_26"/>
    <g id="xtick_27"/>
    <g id="xtick_28"/>
    <g id="xtick_29"/>
   </g>
   <g id="matplotlib.axis_2">
    <g id="ytick_1">
     <g id="line2d_8">
      <path clip-path="url(#pe79dad8376)" d="M 922.5 309.725067 
C 929.574791 309.725067 936.580789 311.118646 943.117044 313.826052 
C 949.653299 316.533457 955.592698 320.502036 960.595331 325.504669 
C 965.597964 330.507302 969.566543 336.446701 972.273948 342.982956 
C 974.981354 349.519211 976.374933 356.525209 976.374933 363.6 
C 976.374933 370.674791 974.981354 377.680789 972.273948 384.217044 
C 969.566543 390.753299 965.597964 396.692698 960.595331 401.695331 
C 955.592698 406.697964 949.653299 410.666543 943.117044 413.373948 
C 936.580789 416.081354 929.574791 417.474933 922.5 417.474933 
C 915.425209 417.474933 908.419211 416.081354 901.882956 413.373948 
C 895.346701 410.666543 889.407302 406.697964 884.404669 401.695331 
C 879.402036 396.692698 875.433457 390.753299 872.726052 384.217044 
C 870.018646 377.680789 868.625067 370.674791 868.625067 363.6 
C 868.625067 356.525209 870.018646 349.519211 872.726052 342.982956 
C 875.433457 336.446701 879.402036 330.507302 884.404669 325.504669 
C 889.407302 320.502036 895.346701 316.533457 901.882956 313.826052 
C 908.419211 311.118646 915.425209 309.725067 922.5 309.725067 
" style="fill:none;stroke:#000000;stroke-linecap:square;stroke-opacity:0.1;"/>
     </g>
     <g id="text_8">
      <!-- 0.2 -->
      <g transform="translate(943.117044 305.269802)scale(0.4 -0.4)">
       <defs>
        <path d="M 231 2094 
Q 231 2819 450 3342 
Q 669 3866 1031 4122 
Q 1313 4325 1613 4325 
Q 2100 4325 2488 3828 
Q 2972 3213 2972 2159 
Q 2972 1422 2759 906 
Q 2547 391 2217 158 
Q 1888 -75 1581 -75 
Q 975 -75 572 641 
Q 231 1244 231 2094 
z
M 844 2016 
Q 844 1141 1059 588 
Q 1238 122 1591 122 
Q 1759 122 1940 273 
Q 2122 425 2216 781 
Q 2359 1319 2359 2297 
Q 2359 3022 2209 3506 
Q 2097 3866 1919 4016 
Q 1791 4119 1609 4119 
Q 1397 4119 1231 3928 
Q 1006 3669 925 3112 
Q 844 2556 844 2016 
z
" id="TimesNewRomanPSMT-30" transform="scale(0.015625)"/>
        <path d="M 800 606 
Q 947 606 1047 504 
Q 1147 403 1147 259 
Q 1147 116 1045 14 
Q 944 -88 800 -88 
Q 656 -88 554 14 
Q 453 116 453 259 
Q 453 406 554 506 
Q 656 606 800 606 
z
" id="TimesNewRomanPSMT-2e" transform="scale(0.015625)"/>
        <path d="M 2934 816 
L 2638 0 
L 138 0 
L 138 116 
Q 1241 1122 1691 1759 
Q 2141 2397 2141 2925 
Q 2141 3328 1894 3587 
Q 1647 3847 1303 3847 
Q 991 3847 742 3664 
Q 494 3481 375 3128 
L 259 3128 
Q 338 3706 661 4015 
Q 984 4325 1469 4325 
Q 1984 4325 2329 3994 
Q 2675 3663 2675 3213 
Q 2675 2891 2525 2569 
Q 2294 2063 1775 1497 
Q 997 647 803 472 
L 1909 472 
Q 2247 472 2383 497 
Q 2519 522 2628 598 
Q 2738 675 2819 816 
L 2934 816 
z
" id="TimesNewRomanPSMT-32" transform="scale(0.015625)"/>
       </defs>
       <use xlink:href="#TimesNewRomanPSMT-30"/>
       <use x="50" xlink:href="#TimesNewRomanPSMT-2e"/>
       <use x="75" xlink:href="#TimesNewRomanPSMT-32"/>
      </g>
     </g>
    </g>
    <g id="ytick_2">
     <g id="line2d_9">
      <path clip-path="url(#pe79dad8376)" d="M 922.5 255.850134 
C 936.649583 255.850134 950.661579 258.637293 963.734089 264.052104 
C 976.806599 269.466915 988.685395 277.404073 998.690661 287.409339 
C 1008.695927 297.414605 1016.633085 309.293401 1022.047896 322.365911 
C 1027.462707 335.438421 1030.249866 349.450417 1030.249866 363.6 
C 1030.249866 377.749583 1027.462707 391.761579 1022.047896 404.834089 
C 1016.633085 417.906599 1008.695927 429.785395 998.690661 439.790661 
C 988.685395 449.795927 976.806599 457.733085 963.734089 463.147896 
C 950.661579 468.562707 936.649583 471.349866 922.5 471.349866 
C 908.350417 471.349866 894.338421 468.562707 881.265911 463.147896 
C 868.193401 457.733085 856.314605 449.795927 846.309339 439.790661 
C 836.304073 429.785395 828.366915 417.906599 822.952104 404.834089 
C 817.537293 391.761579 814.750134 377.749583 814.750134 363.6 
C 814.750134 349.450417 817.537293 335.438421 822.952104 322.365911 
C 828.366915 309.293401 836.304073 297.414605 846.309339 287.409339 
C 856.314605 277.404073 868.193401 269.466915 881.265911 264.052104 
C 894.338421 258.637293 908.350417 255.850134 922.5 255.850134 
" style="fill:none;stroke:#000000;stroke-linecap:square;stroke-opacity:0.1;"/>
     </g>
     <g id="text_9">
      <!-- 0.4 -->
      <g transform="translate(963.734089 255.495854)scale(0.4 -0.4)">
       <defs>
        <path d="M 2978 1563 
L 2978 1119 
L 2409 1119 
L 2409 0 
L 1894 0 
L 1894 1119 
L 100 1119 
L 100 1519 
L 2066 4325 
L 2409 4325 
L 2409 1563 
L 2978 1563 
z
M 1894 1563 
L 1894 3666 
L 406 1563 
L 1894 1563 
z
" id="TimesNewRomanPSMT-34" transform="scale(0.015625)"/>
       </defs>
       <use xlink:href="#TimesNewRomanPSMT-30"/>
       <use x="50" xlink:href="#TimesNewRomanPSMT-2e"/>
       <use x="75" xlink:href="#TimesNewRomanPSMT-34"/>
      </g>
     </g>
    </g>
    <g id="ytick_3">
     <g id="line2d_10">
      <path clip-path="url(#pe79dad8376)" d="M 922.5 201.9752 
C 943.724374 201.9752 964.742368 206.155939 984.351133 214.278156 
C 1003.959898 222.400372 1021.778093 234.306109 1036.785992 249.314008 
C 1051.793891 264.321907 1063.699628 282.140102 1071.821844 301.748867 
C 1079.944061 321.357632 1084.1248 342.375626 1084.1248 363.6 
C 1084.1248 384.824374 1079.944061 405.842368 1071.821844 425.451133 
C 1063.699628 445.059898 1051.793891 462.878093 1036.785992 477.885992 
C 1021.778093 492.893891 1003.959898 504.799628 984.351133 512.921844 
C 964.742368 521.044061 943.724374 525.2248 922.5 525.2248 
C 901.275626 525.2248 880.257632 521.044061 860.648867 512.921844 
C 841.040102 504.799628 823.221907 492.893891 808.214008 477.885992 
C 793.206109 462.878093 781.300372 445.059898 773.178156 425.451133 
C 765.055939 405.842368 760.8752 384.824374 760.8752 363.6 
C 760.8752 342.375626 765.055939 321.357632 773.178156 301.748867 
C 781.300372 282.140102 793.206109 264.321907 808.214008 249.314008 
C 823.221907 234.306109 841.040102 222.400372 860.648867 214.278156 
C 880.257632 206.155939 901.275626 201.9752 922.5 201.9752 
" style="fill:none;stroke:#000000;stroke-linecap:square;stroke-opacity:0.1;"/>
     </g>
    </g>
    <g id="ytick_4">
     <g id="line2d_11">
      <path clip-path="url(#pe79dad8376)" d="M 922.5 148.100267 
C 950.799166 148.100267 978.823158 153.674586 1004.968177 164.504208 
C 1031.113197 175.333829 1054.87079 191.208146 1074.881322 211.218678 
C 1094.891854 231.22921 1110.766171 254.986803 1121.595792 281.131823 
C 1132.425414 307.276842 1137.999733 335.300834 1137.999733 363.6 
C 1137.999733 391.899166 1132.425414 419.923158 1121.595792 446.068177 
C 1110.766171 472.213197 1094.891854 495.97079 1074.881322 515.981322 
C 1054.87079 535.991854 1031.113197 551.866171 1004.968177 562.695792 
C 978.823158 573.525414 950.799166 579.099733 922.5 579.099733 
C 894.200834 579.099733 866.176842 573.525414 840.031823 562.695792 
C 813.886803 551.866171 790.12921 535.991854 770.118678 515.981322 
C 750.108146 495.97079 734.233829 472.213197 723.404208 446.068177 
C 712.574586 419.923158 707.000267 391.899166 707.000267 363.6 
C 707.000267 335.300834 712.574586 307.276842 723.404208 281.131823 
C 734.233829 254.986803 750.108146 231.22921 770.118678 211.218678 
C 790.12921 191.208146 813.886803 175.333829 840.031823 164.504208 
C 866.176842 153.674586 894.200834 148.100267 922.5 148.100267 
" style="fill:none;stroke:#000000;stroke-linecap:square;stroke-opacity:0.1;"/>
     </g>
     <g id="text_10">
      <!-- 0.8 -->
      <g transform="translate(1004.968177 155.947958)scale(0.4 -0.4)">
       <defs>
        <path d="M 1228 2134 
Q 725 2547 579 2797 
Q 434 3047 434 3316 
Q 434 3728 753 4026 
Q 1072 4325 1600 4325 
Q 2113 4325 2425 4047 
Q 2738 3769 2738 3413 
Q 2738 3175 2569 2928 
Q 2400 2681 1866 2347 
Q 2416 1922 2594 1678 
Q 2831 1359 2831 1006 
Q 2831 559 2490 242 
Q 2150 -75 1597 -75 
Q 994 -75 656 303 
Q 388 606 388 966 
Q 388 1247 577 1523 
Q 766 1800 1228 2134 
z
M 1719 2469 
Q 2094 2806 2194 3001 
Q 2294 3197 2294 3444 
Q 2294 3772 2109 3958 
Q 1925 4144 1606 4144 
Q 1288 4144 1088 3959 
Q 888 3775 888 3528 
Q 888 3366 970 3203 
Q 1053 3041 1206 2894 
L 1719 2469 
z
M 1375 2016 
Q 1116 1797 991 1539 
Q 866 1281 866 981 
Q 866 578 1086 336 
Q 1306 94 1647 94 
Q 1984 94 2187 284 
Q 2391 475 2391 747 
Q 2391 972 2272 1150 
Q 2050 1481 1375 2016 
z
" id="TimesNewRomanPSMT-38" transform="scale(0.015625)"/>
       </defs>
       <use xlink:href="#TimesNewRomanPSMT-30"/>
       <use x="50" xlink:href="#TimesNewRomanPSMT-2e"/>
       <use x="75" xlink:href="#TimesNewRomanPSMT-38"/>
      </g>
     </g>
    </g>
    <g id="ytick_5">
     <g id="line2d_12">
      <path clip-path="url(#pe79dad8376)" d="M 922.5 94.225334 
C 957.873957 94.225334 992.903947 101.193232 1025.585222 114.73026 
C 1058.266497 128.267287 1087.963488 148.110182 1112.976653 173.123347 
C 1137.989818 198.136512 1157.832713 227.833503 1171.36974 260.514778 
C 1184.906768 293.196053 1191.874666 328.226043 1191.874666 363.6 
C 1191.874666 398.973957 1184.906768 434.003947 1171.36974 466.685222 
C 1157.832713 499.366497 1137.989818 529.063488 1112.976653 554.076653 
C 1087.963488 579.089818 1058.266497 598.932713 1025.585222 612.46974 
C 992.903947 626.006768 957.873957 632.974666 922.5 632.974666 
C 887.126043 632.974666 852.096053 626.006768 819.414778 612.46974 
C 786.733503 598.932713 757.036512 579.089818 732.023347 554.076653 
C 707.010182 529.063488 687.167287 499.366497 673.63026 466.685222 
C 660.093232 434.003947 653.125334 398.973957 653.125334 363.6 
C 653.125334 328.226043 660.093232 293.196053 673.63026 260.514778 
C 687.167287 227.833503 707.010182 198.136512 732.023347 173.123347 
C 757.036512 148.110182 786.733503 128.267287 819.414778 114.73026 
C 852.096053 101.193232 887.126043 94.225334 922.5 94.225334 
" style="fill:none;stroke:#000000;stroke-linecap:square;stroke-opacity:0.1;"/>
     </g>
     <g id="text_11">
      <!-- 1.0 -->
      <g transform="translate(1025.585222 106.17401)scale(0.4 -0.4)">
       <defs>
        <path d="M 750 3822 
L 1781 4325 
L 1884 4325 
L 1884 747 
Q 1884 391 1914 303 
Q 1944 216 2037 169 
Q 2131 122 2419 116 
L 2419 0 
L 825 0 
L 825 116 
Q 1125 122 1212 167 
Q 1300 213 1334 289 
Q 1369 366 1369 747 
L 1369 3034 
Q 1369 3497 1338 3628 
Q 1316 3728 1258 3775 
Q 1200 3822 1119 3822 
Q 1003 3822 797 3725 
L 750 3822 
z
" id="TimesNewRomanPSMT-31" transform="scale(0.015625)"/>
       </defs>
       <use xlink:href="#TimesNewRomanPSMT-31"/>
       <use x="50" xlink:href="#TimesNewRomanPSMT-2e"/>
       <use x="75" xlink:href="#TimesNewRomanPSMT-30"/>
      </g>
     </g>
    </g>
    <g id="ytick_6"/>
    <g id="ytick_7"/>
    <g id="ytick_8"/>
    <g id="ytick_9"/>
    <g id="ytick_10"/>
    <g id="ytick_11"/>
    <g id="ytick_12"/>
    <g id="ytick_13"/>
    <g id="ytick_14"/>
    <g id="ytick_15"/>
    <g id="ytick_16"/>
    <g id="ytick_17"/>
    <g id="ytick_18"/>
    <g id="ytick_19"/>
    <g id="ytick_20"/>
   </g>
   <g id="line2d_13">
    <path clip-path="url(#pe79dad8376)" d="M 922.5 155.373383 
L 1070.345127 245.697445 
L 1185.120881 423.541502 
L 1015.183689 556.059663 
L 849.334818 515.529066 
L 793.815768 392.971336 
L 834.256256 293.227962 
L 922.5 155.373383 
" style="fill:none;stroke:#fa7070;stroke-linecap:square;stroke-width:3;"/>
    <defs>
     <path d="M 0 7.5 
C 1.989023 7.5 3.896849 6.709753 5.303301 5.303301 
C 6.709753 3.896849 7.5 1.989023 7.5 0 
C 7.5 -1.989023 6.709753 -3.896849 5.303301 -5.303301 
C 3.896849 -6.709753 1.989023 -7.5 0 -7.5 
C -1.989023 -7.5 -3.896849 -6.709753 -5.303301 -5.303301 
C -6.709753 -3.896849 -7.5 -1.989023 -7.5 0 
C -7.5 1.989023 -6.709753 3.896849 -5.303301 5.303301 
C -3.896849 6.709753 -1.989023 7.5 0 7.5 
z
" id="mebd0049cbe" style="stroke:#fa7070;stroke-width:3;"/>
    </defs>
    <g clip-path="url(#pe79dad8376)">
     <use style="fill:#ffffff;stroke:#fa7070;stroke-width:3;" x="922.5" xlink:href="#mebd0049cbe" y="155.373383"/>
     <use style="fill:#ffffff;stroke:#fa7070;stroke-width:3;" x="1070.345127" xlink:href="#mebd0049cbe" y="245.697445"/>
     <use style="fill:#ffffff;stroke:#fa7070;stroke-width:3;" x="1185.120881" xlink:href="#mebd0049cbe" y="423.541502"/>
     <use style="fill:#ffffff;stroke:#fa7070;stroke-width:3;" x="1015.183689" xlink:href="#mebd0049cbe" y="556.059663"/>
     <use style="fill:#ffffff;stroke:#fa7070;stroke-width:3;" x="849.334818" xlink:href="#mebd0049cbe" y="515.529066"/>
     <use style="fill:#ffffff;stroke:#fa7070;stroke-width:3;" x="793.815768" xlink:href="#mebd0049cbe" y="392.971336"/>
     <use style="fill:#ffffff;stroke:#fa7070;stroke-width:3;" x="834.256256" xlink:href="#mebd0049cbe" y="293.227962"/>
     <use style="fill:#ffffff;stroke:#fa7070;stroke-width:3;" x="922.5" xlink:href="#mebd0049cbe" y="155.373383"/>
    </g>
   </g>
   <g id="line2d_14">
    <path clip-path="url(#pe79dad8376)" d="M 922.5 193.624586 
L 1098.987488 222.855925 
L 1182.494672 422.942087 
L 1011.092984 547.565226 
L 836.361439 542.468564 
L 752.846911 402.32221 
L 755.489764 230.413781 
L 922.5 193.624586 
" style="fill:none;stroke:#7aa2e3;stroke-linecap:square;stroke-width:3;"/>
    <defs>
     <path d="M 0 -7.5 
L -7.5 7.5 
L 7.5 7.5 
z
" id="m97f79ab659" style="stroke:#7aa2e3;stroke-linejoin:miter;stroke-width:3;"/>
    </defs>
    <g clip-path="url(#pe79dad8376)">
     <use style="fill:#ffffff;stroke:#7aa2e3;stroke-linejoin:miter;stroke-width:3;" x="922.5" xlink:href="#m97f79ab659" y="193.624586"/>
     <use style="fill:#ffffff;stroke:#7aa2e3;stroke-linejoin:miter;stroke-width:3;" x="1098.987488" xlink:href="#m97f79ab659" y="222.855925"/>
     <use style="fill:#ffffff;stroke:#7aa2e3;stroke-linejoin:miter;stroke-width:3;" x="1182.494672" xlink:href="#m97f79ab659" y="422.942087"/>
     <use style="fill:#ffffff;stroke:#7aa2e3;stroke-linejoin:miter;stroke-width:3;" x="1011.092984" xlink:href="#m97f79ab659" y="547.565226"/>
     <use style="fill:#ffffff;stroke:#7aa2e3;stroke-linejoin:miter;stroke-width:3;" x="836.361439" xlink:href="#m97f79ab659" y="542.468564"/>
     <use style="fill:#ffffff;stroke:#7aa2e3;stroke-linejoin:miter;stroke-width:3;" x="752.846911" xlink:href="#m97f79ab659" y="402.32221"/>
     <use style="fill:#ffffff;stroke:#7aa2e3;stroke-linejoin:miter;stroke-width:3;" x="755.489764" xlink:href="#m97f79ab659" y="230.413781"/>
     <use style="fill:#ffffff;stroke:#7aa2e3;stroke-linejoin:miter;stroke-width:3;" x="922.5" xlink:href="#m97f79ab659" y="193.624586"/>
    </g>
   </g>
   <g id="patch_3">
    <path d="M 922.5 86.4 
C 886.09843 86.4 850.050818 93.570316 816.420153 107.500594 
C 782.789487 121.430872 752.229798 141.850203 726.49 167.59 
C 700.750203 193.329798 680.330872 223.889487 666.400594 257.520153 
C 652.470316 291.150818 645.3 327.19843 645.3 363.6 
C 645.3 400.00157 652.470316 436.049182 666.400594 469.679847 
C 680.330872 503.310513 700.750203 533.870202 726.49 559.61 
C 752.229798 585.349797 782.789487 605.769128 816.420153 619.699406 
C 850.050818 633.629684 886.09843 640.8 922.5 640.8 
C 958.90157 640.8 994.949182 633.629684 1028.579847 619.699406 
C 1062.210513 605.769128 1092.770202 585.349797 1118.51 559.61 
C 1144.249797 533.870202 1164.669128 503.310513 1178.599406 469.679847 
C 1192.529684 436.049182 1199.7 400.00157 1199.7 363.6 
C 1199.7 327.19843 1192.529684 291.150818 1178.599406 257.520153 
C 1164.669128 223.889487 1144.249797 193.329798 1118.51 167.59 
C 1092.770202 141.850203 1062.210513 121.430872 1028.579847 107.500594 
C 994.949182 93.570316 958.90157 86.4 922.5 86.4 
" style="fill:none;stroke:#000000;stroke-linecap:square;stroke-linejoin:miter;stroke-width:0.6;"/>
   </g>
   <g id="legend_1">
    <g id="patch_4">
     <path d="M 1169.32625 219.6625 
L 1643.22 219.6625 
L 1643.22 86.4 
L 1169.32625 86.4 
z
" style="fill:#ffffff;opacity:0.8;stroke:#000000;stroke-linejoin:miter;stroke-width:0.6;"/>
    </g>
    <g id="line2d_15">
     <path d="M 1189.32625 120.4 
L 1269.32625 120.4 
" style="fill:none;stroke:#fa7070;stroke-linecap:square;stroke-width:3;"/>
    </g>
    <g id="line2d_16">
     <g>
      <use style="fill:#ffffff;stroke:#fa7070;stroke-width:3;" x="1229.32625" xlink:href="#mebd0049cbe" y="120.4"/>
     </g>
    </g>
    <g id="text_12">
     <!-- With gold answer -->
     <g transform="translate(1289.32625 134.4)scale(0.4 -0.4)">
      <defs>
       <path d="M 5991 4238 
L 5991 4122 
Q 5825 4122 5722 4062 
Q 5619 4003 5525 3841 
Q 5463 3731 5328 3319 
L 4147 -97 
L 4022 -97 
L 3056 2613 
L 2097 -97 
L 1984 -97 
L 725 3422 
Q 584 3816 547 3888 
Q 484 4006 376 4064 
Q 269 4122 84 4122 
L 84 4238 
L 1653 4238 
L 1653 4122 
L 1578 4122 
Q 1413 4122 1325 4047 
Q 1238 3972 1238 3866 
Q 1238 3756 1375 3363 
L 2209 984 
L 2913 3006 
L 2788 3363 
L 2688 3647 
Q 2622 3803 2541 3922 
Q 2500 3981 2441 4022 
Q 2363 4078 2284 4103 
Q 2225 4122 2097 4122 
L 2097 4238 
L 3747 4238 
L 3747 4122 
L 3634 4122 
Q 3459 4122 3378 4047 
Q 3297 3972 3297 3844 
Q 3297 3684 3438 3288 
L 4250 984 
L 5056 3319 
Q 5194 3706 5194 3856 
Q 5194 3928 5148 3990 
Q 5103 4053 5034 4078 
Q 4916 4122 4725 4122 
L 4725 4238 
L 5991 4238 
z
" id="TimesNewRomanPSMT-57" transform="scale(0.015625)"/>
       <path d="M 1041 4444 
L 1041 2350 
Q 1388 2731 1591 2839 
Q 1794 2947 1997 2947 
Q 2241 2947 2416 2812 
Q 2591 2678 2675 2391 
Q 2734 2191 2734 1659 
L 2734 647 
Q 2734 375 2778 275 
Q 2809 200 2884 156 
Q 2959 113 3159 113 
L 3159 0 
L 1753 0 
L 1753 113 
L 1819 113 
Q 2019 113 2097 173 
Q 2175 234 2206 353 
Q 2216 403 2216 647 
L 2216 1659 
Q 2216 2128 2167 2275 
Q 2119 2422 2012 2495 
Q 1906 2569 1756 2569 
Q 1603 2569 1437 2487 
Q 1272 2406 1041 2159 
L 1041 647 
Q 1041 353 1073 281 
Q 1106 209 1195 161 
Q 1284 113 1503 113 
L 1503 0 
L 84 0 
L 84 113 
Q 275 113 384 172 
Q 447 203 484 290 
Q 522 378 522 647 
L 522 3238 
Q 522 3728 498 3840 
Q 475 3953 426 3993 
Q 378 4034 297 4034 
Q 231 4034 84 3984 
L 41 4094 
L 897 4444 
L 1041 4444 
z
" id="TimesNewRomanPSMT-68" transform="scale(0.015625)"/>
       <path d="M 41 2863 
L 1241 2863 
L 1241 2747 
Q 1075 2734 1023 2687 
Q 972 2641 972 2553 
Q 972 2456 1025 2319 
L 1638 672 
L 2253 2013 
L 2091 2434 
Q 2016 2622 1894 2694 
Q 1825 2738 1638 2747 
L 1638 2863 
L 3000 2863 
L 3000 2747 
Q 2775 2738 2681 2666 
Q 2619 2616 2619 2506 
Q 2619 2444 2644 2378 
L 3294 734 
L 3897 2319 
Q 3959 2488 3959 2588 
Q 3959 2647 3898 2694 
Q 3838 2741 3659 2747 
L 3659 2863 
L 4563 2863 
L 4563 2747 
Q 4291 2706 4163 2378 
L 3206 -88 
L 3078 -88 
L 2363 1741 
L 1528 -88 
L 1413 -88 
L 494 2319 
Q 403 2547 315 2626 
Q 228 2706 41 2747 
L 41 2863 
z
" id="TimesNewRomanPSMT-77" transform="scale(0.015625)"/>
      </defs>
      <use xlink:href="#TimesNewRomanPSMT-57"/>
      <use x="90.384766" xlink:href="#TimesNewRomanPSMT-69"/>
      <use x="118.167969" xlink:href="#TimesNewRomanPSMT-74"/>
      <use x="145.951172" xlink:href="#TimesNewRomanPSMT-68"/>
      <use x="195.951172" xlink:href="#TimesNewRomanPSMT-20"/>
      <use x="220.951172" xlink:href="#TimesNewRomanPSMT-67"/>
      <use x="270.951172" xlink:href="#TimesNewRomanPSMT-6f"/>
      <use x="320.951172" xlink:href="#TimesNewRomanPSMT-6c"/>
      <use x="348.734375" xlink:href="#TimesNewRomanPSMT-64"/>
      <use x="398.734375" xlink:href="#TimesNewRomanPSMT-20"/>
      <use x="423.734375" xlink:href="#TimesNewRomanPSMT-61"/>
      <use x="468.119141" xlink:href="#TimesNewRomanPSMT-6e"/>
      <use x="518.119141" xlink:href="#TimesNewRomanPSMT-73"/>
      <use x="557.035156" xlink:href="#TimesNewRomanPSMT-77"/>
      <use x="629.251953" xlink:href="#TimesNewRomanPSMT-65"/>
      <use x="673.636719" xlink:href="#TimesNewRomanPSMT-72"/>
     </g>
    </g>
    <g id="line2d_17">
     <path d="M 1189.32625 177.03125 
L 1269.32625 177.03125 
" style="fill:none;stroke:#7aa2e3;stroke-linecap:square;stroke-width:3;"/>
    </g>
    <g id="line2d_18">
     <g>
      <use style="fill:#ffffff;stroke:#7aa2e3;stroke-linejoin:miter;stroke-width:3;" x="1229.32625" xlink:href="#m97f79ab659" y="177.03125"/>
     </g>
    </g>
    <g id="text_13">
     <!-- Without gold answer -->
     <g transform="translate(1289.32625 191.03125)scale(0.4 -0.4)">
      <use xlink:href="#TimesNewRomanPSMT-57"/>
      <use x="90.384766" xlink:href="#TimesNewRomanPSMT-69"/>
      <use x="118.167969" xlink:href="#TimesNewRomanPSMT-74"/>
      <use x="145.951172" xlink:href="#TimesNewRomanPSMT-68"/>
      <use x="195.951172" xlink:href="#TimesNewRomanPSMT-6f"/>
      <use x="245.951172" xlink:href="#TimesNewRomanPSMT-75"/>
      <use x="295.951172" xlink:href="#TimesNewRomanPSMT-74"/>
      <use x="323.734375" xlink:href="#TimesNewRomanPSMT-20"/>
      <use x="348.734375" xlink:href="#TimesNewRomanPSMT-67"/>
      <use x="398.734375" xlink:href="#TimesNewRomanPSMT-6f"/>
      <use x="448.734375" xlink:href="#TimesNewRomanPSMT-6c"/>
      <use x="476.517578" xlink:href="#TimesNewRomanPSMT-64"/>
      <use x="526.517578" xlink:href="#TimesNewRomanPSMT-20"/>
      <use x="551.517578" xlink:href="#TimesNewRomanPSMT-61"/>
      <use x="595.902344" xlink:href="#TimesNewRomanPSMT-6e"/>
      <use x="645.902344" xlink:href="#TimesNewRomanPSMT-73"/>
      <use x="684.818359" xlink:href="#TimesNewRomanPSMT-77"/>
      <use x="757.035156" xlink:href="#TimesNewRomanPSMT-65"/>
      <use x="801.419922" xlink:href="#TimesNewRomanPSMT-72"/>
     </g>
    </g>
   </g>
  </g>
 </g>
 <defs>
  <clipPath id="pe79dad8376">
   <path d="M 1199.7 363.6 
C 1199.7 327.19843 1192.529684 291.150818 1178.599406 257.520153 
C 1164.669128 223.889487 1144.249797 193.329798 1118.51 167.59 
C 1092.770202 141.850203 1062.210513 121.430872 1028.579847 107.500594 
C 994.949182 93.570316 958.90157 86.4 922.5 86.4 
C 886.09843 86.4 850.050818 93.570316 816.420153 107.500594 
C 782.789487 121.430872 752.229798 141.850203 726.49 167.59 
C 700.750203 193.329798 680.330872 223.889487 666.400594 257.520153 
C 652.470316 291.150818 645.3 327.19843 645.3 363.6 
C 645.3 400.00157 652.470316 436.049182 666.400594 469.679847 
C 680.330872 503.310513 700.750203 533.870202 726.49 559.61 
C 752.229798 585.349797 782.789487 605.769128 816.420153 619.699406 
C 850.050818 633.629684 886.09843 640.8 922.5 640.8 
C 958.90157 640.8 994.949182 633.629684 1028.579847 619.699406 
C 1062.210513 605.769128 1092.770202 585.349797 1118.51 559.61 
C 1144.249797 533.870202 1164.669128 503.310513 1178.599406 469.679847 
C 1192.529684 436.049182 1199.7 400.00157 1199.7 363.6 
M 922.5 363.6 
C 922.5 363.6 922.5 363.6 922.5 363.6 
C 922.5 363.6 922.5 363.6 922.5 363.6 
C 922.5 363.6 922.5 363.6 922.5 363.6 
C 922.5 363.6 922.5 363.6 922.5 363.6 
C 922.5 363.6 922.5 363.6 922.5 363.6 
C 922.5 363.6 922.5 363.6 922.5 363.6 
C 922.5 363.6 922.5 363.6 922.5 363.6 
C 922.5 363.6 922.5 363.6 922.5 363.6 
C 922.5 363.6 922.5 363.6 922.5 363.6 
C 922.5 363.6 922.5 363.6 922.5 363.6 
C 922.5 363.6 922.5 363.6 922.5 363.6 
C 922.5 363.6 922.5 363.6 922.5 363.6 
C 922.5 363.6 922.5 363.6 922.5 363.6 
C 922.5 363.6 922.5 363.6 922.5 363.6 
C 922.5 363.6 922.5 363.6 922.5 363.6 
C 922.5 363.6 922.5 363.6 922.5 363.6 
M 1199.7 363.6 
z
"/>
  </clipPath>
 </defs>
</svg>
