<?xml version="1.0" encoding="utf-8" standalone="no"?>
<!DOCTYPE svg PUBLIC "-//W3C//DTD SVG 1.1//EN"
  "http://www.w3.org/Graphics/SVG/1.1/DTD/svg11.dtd">
<svg height="936pt" version="1.1" viewBox="0 0 2160 936" width="2160pt" xmlns="http://www.w3.org/2000/svg" xmlns:xlink="http://www.w3.org/1999/xlink">
 <metadata>
  <rdf:RDF xmlns:cc="http://creativecommons.org/ns#" xmlns:dc="http://purl.org/dc/elements/1.1/" xmlns:rdf="http://www.w3.org/1999/02/22-rdf-syntax-ns#">
   <cc:Work>
    <dc:type rdf:resource="http://purl.org/dc/dcmitype/StillImage"/>
    <dc:date>2024-06-07T08:05:28.738483</dc:date>
    <dc:format>image/svg+xml</dc:format>
    <dc:creator>
     <cc:Agent>
      <dc:title>Matplotlib v3.4.3, https://matplotlib.org/</dc:title>
     </cc:Agent>
    </dc:creator>
   </cc:Work>
  </rdf:RDF>
 </metadata>
 <defs>
  <style type="text/css">*{stroke-linecap:butt;stroke-linejoin:round;}</style>
 </defs>
 <g id="figure_1">
  <g id="patch_1">
   <path d="M 0 936 
L 2160 936 
L 2160 0 
L 0 0 
z
" style="fill:#ffffff;"/>
  </g>
  <g id="axes_1">
   <g id="patch_2">
    <path d="M 1467.36 472.68 
C 1467.36 425.357958 1458.03859 378.496064 1439.929228 334.776198 
C 1421.819867 291.056333 1395.274736 251.328737 1361.813 217.867 
C 1328.351263 184.405264 1288.623667 157.860133 1244.903802 139.750772 
C 1201.183936 121.64141 1154.322042 112.32 1107 112.32 
C 1059.677958 112.32 1012.816064 121.64141 969.096198 139.750772 
C 925.376333 157.860133 885.648737 184.405264 852.187 217.867 
C 818.725264 251.328737 792.180133 291.056333 774.070772 334.776198 
C 755.96141 378.496064 746.64 425.357958 746.64 472.68 
C 746.64 520.002042 755.96141 566.863936 774.070772 610.583802 
C 792.180133 654.303667 818.725264 694.031263 852.187 727.493 
C 885.648737 760.954736 925.376333 787.499867 969.096198 805.609228 
C 1012.816064 823.71859 1059.677958 833.04 1107 833.04 
C 1154.322042 833.04 1201.183936 823.71859 1244.903802 805.609228 
C 1288.623667 787.499867 1328.351263 760.954736 1361.813 727.493 
C 1395.274736 694.031263 1421.819867 654.303667 1439.929228 610.583802 
C 1458.03859 566.863936 1467.36 520.002042 1467.36 472.68 
M 1107 472.68 
C 1107 472.68 1107 472.68 1107 472.68 
C 1107 472.68 1107 472.68 1107 472.68 
C 1107 472.68 1107 472.68 1107 472.68 
C 1107 472.68 1107 472.68 1107 472.68 
C 1107 472.68 1107 472.68 1107 472.68 
C 1107 472.68 1107 472.68 1107 472.68 
C 1107 472.68 1107 472.68 1107 472.68 
C 1107 472.68 1107 472.68 1107 472.68 
C 1107 472.68 1107 472.68 1107 472.68 
C 1107 472.68 1107 472.68 1107 472.68 
C 1107 472.68 1107 472.68 1107 472.68 
C 1107 472.68 1107 472.68 1107 472.68 
C 1107 472.68 1107 472.68 1107 472.68 
C 1107 472.68 1107 472.68 1107 472.68 
C 1107 472.68 1107 472.68 1107 472.68 
C 1107 472.68 1107 472.68 1107 472.68 
M 1467.36 472.68 
z
" style="fill:#ffffff;"/>
   </g>
   <g id="matplotlib.axis_1">
    <g id="xtick_1">
     <g id="line2d_1">
      <path clip-path="url(#p779f20e48f)" d="M 1107 472.68 
L 1107 112.32 
" style="fill:none;stroke:#000000;stroke-linecap:square;stroke-opacity:0.1;"/>
     </g>
     <g id="text_1">
      <!-- No missing -->
      <g transform="translate(1033.655 90.223)scale(0.32 -0.32)">
       <defs>
        <path d="M -84 4238 
L 1066 4238 
L 3656 1059 
L 3656 3503 
Q 3656 3894 3569 3991 
Q 3453 4122 3203 4122 
L 3056 4122 
L 3056 4238 
L 4531 4238 
L 4531 4122 
L 4381 4122 
Q 4113 4122 4000 3959 
Q 3931 3859 3931 3503 
L 3931 -69 
L 3819 -69 
L 1025 3344 
L 1025 734 
Q 1025 344 1109 247 
Q 1228 116 1475 116 
L 1625 116 
L 1625 0 
L 150 0 
L 150 116 
L 297 116 
Q 569 116 681 278 
Q 750 378 750 734 
L 750 3681 
Q 566 3897 470 3965 
Q 375 4034 191 4094 
Q 100 4122 -84 4122 
L -84 4238 
z
" id="TimesNewRomanPSMT-4e" transform="scale(0.015625)"/>
        <path d="M 1600 2947 
Q 2250 2947 2644 2453 
Q 2978 2031 2978 1484 
Q 2978 1100 2793 706 
Q 2609 313 2286 112 
Q 1963 -88 1566 -88 
Q 919 -88 538 428 
Q 216 863 216 1403 
Q 216 1797 411 2186 
Q 606 2575 925 2761 
Q 1244 2947 1600 2947 
z
M 1503 2744 
Q 1338 2744 1170 2645 
Q 1003 2547 900 2300 
Q 797 2053 797 1666 
Q 797 1041 1045 587 
Q 1294 134 1700 134 
Q 2003 134 2200 384 
Q 2397 634 2397 1244 
Q 2397 2006 2069 2444 
Q 1847 2744 1503 2744 
z
" id="TimesNewRomanPSMT-6f" transform="scale(0.015625)"/>
        <path id="TimesNewRomanPSMT-20" transform="scale(0.015625)"/>
        <path d="M 1050 2338 
Q 1363 2650 1419 2697 
Q 1559 2816 1721 2881 
Q 1884 2947 2044 2947 
Q 2313 2947 2506 2790 
Q 2700 2634 2766 2338 
Q 3088 2713 3309 2830 
Q 3531 2947 3766 2947 
Q 3994 2947 4170 2830 
Q 4347 2713 4450 2447 
Q 4519 2266 4519 1878 
L 4519 647 
Q 4519 378 4559 278 
Q 4591 209 4675 161 
Q 4759 113 4950 113 
L 4950 0 
L 3538 0 
L 3538 113 
L 3597 113 
Q 3781 113 3884 184 
Q 3956 234 3988 344 
Q 4000 397 4000 647 
L 4000 1878 
Q 4000 2228 3916 2372 
Q 3794 2572 3525 2572 
Q 3359 2572 3192 2489 
Q 3025 2406 2788 2181 
L 2781 2147 
L 2788 2013 
L 2788 647 
Q 2788 353 2820 281 
Q 2853 209 2943 161 
Q 3034 113 3253 113 
L 3253 0 
L 1806 0 
L 1806 113 
Q 2044 113 2133 169 
Q 2222 225 2256 338 
Q 2272 391 2272 647 
L 2272 1878 
Q 2272 2228 2169 2381 
Q 2031 2581 1784 2581 
Q 1616 2581 1450 2491 
Q 1191 2353 1050 2181 
L 1050 647 
Q 1050 366 1089 281 
Q 1128 197 1204 155 
Q 1281 113 1516 113 
L 1516 0 
L 100 0 
L 100 113 
Q 297 113 375 155 
Q 453 197 493 289 
Q 534 381 534 647 
L 534 1741 
Q 534 2213 506 2350 
Q 484 2453 437 2492 
Q 391 2531 309 2531 
Q 222 2531 100 2484 
L 53 2597 
L 916 2947 
L 1050 2947 
L 1050 2338 
z
" id="TimesNewRomanPSMT-6d" transform="scale(0.015625)"/>
        <path d="M 928 4444 
Q 1059 4444 1151 4351 
Q 1244 4259 1244 4128 
Q 1244 3997 1151 3903 
Q 1059 3809 928 3809 
Q 797 3809 703 3903 
Q 609 3997 609 4128 
Q 609 4259 701 4351 
Q 794 4444 928 4444 
z
M 1188 2947 
L 1188 647 
Q 1188 378 1227 289 
Q 1266 200 1342 156 
Q 1419 113 1622 113 
L 1622 0 
L 231 0 
L 231 113 
Q 441 113 512 153 
Q 584 194 626 287 
Q 669 381 669 647 
L 669 1750 
Q 669 2216 641 2353 
Q 619 2453 572 2492 
Q 525 2531 444 2531 
Q 356 2531 231 2484 
L 188 2597 
L 1050 2947 
L 1188 2947 
z
" id="TimesNewRomanPSMT-69" transform="scale(0.015625)"/>
        <path d="M 2050 2947 
L 2050 1972 
L 1947 1972 
Q 1828 2431 1642 2597 
Q 1456 2763 1169 2763 
Q 950 2763 815 2647 
Q 681 2531 681 2391 
Q 681 2216 781 2091 
Q 878 1963 1175 1819 
L 1631 1597 
Q 2266 1288 2266 781 
Q 2266 391 1970 151 
Q 1675 -88 1309 -88 
Q 1047 -88 709 6 
Q 606 38 541 38 
Q 469 38 428 -44 
L 325 -44 
L 325 978 
L 428 978 
Q 516 541 762 319 
Q 1009 97 1316 97 
Q 1531 97 1667 223 
Q 1803 350 1803 528 
Q 1803 744 1651 891 
Q 1500 1038 1047 1263 
Q 594 1488 453 1669 
Q 313 1847 313 2119 
Q 313 2472 555 2709 
Q 797 2947 1181 2947 
Q 1350 2947 1591 2875 
Q 1750 2828 1803 2828 
Q 1853 2828 1881 2850 
Q 1909 2872 1947 2947 
L 2050 2947 
z
" id="TimesNewRomanPSMT-73" transform="scale(0.015625)"/>
        <path d="M 1034 2341 
Q 1538 2947 1994 2947 
Q 2228 2947 2397 2830 
Q 2566 2713 2666 2444 
Q 2734 2256 2734 1869 
L 2734 647 
Q 2734 375 2778 278 
Q 2813 200 2889 156 
Q 2966 113 3172 113 
L 3172 0 
L 1756 0 
L 1756 113 
L 1816 113 
Q 2016 113 2095 173 
Q 2175 234 2206 353 
Q 2219 400 2219 647 
L 2219 1819 
Q 2219 2209 2117 2386 
Q 2016 2563 1775 2563 
Q 1403 2563 1034 2156 
L 1034 647 
Q 1034 356 1069 288 
Q 1113 197 1189 155 
Q 1266 113 1500 113 
L 1500 0 
L 84 0 
L 84 113 
L 147 113 
Q 366 113 442 223 
Q 519 334 519 647 
L 519 1709 
Q 519 2225 495 2337 
Q 472 2450 423 2490 
Q 375 2531 294 2531 
Q 206 2531 84 2484 
L 38 2597 
L 900 2947 
L 1034 2947 
L 1034 2341 
z
" id="TimesNewRomanPSMT-6e" transform="scale(0.015625)"/>
        <path d="M 966 1044 
Q 703 1172 562 1401 
Q 422 1631 422 1909 
Q 422 2334 742 2640 
Q 1063 2947 1563 2947 
Q 1972 2947 2272 2747 
L 2878 2747 
Q 3013 2747 3034 2739 
Q 3056 2731 3066 2713 
Q 3084 2684 3084 2613 
Q 3084 2531 3069 2500 
Q 3059 2484 3036 2475 
Q 3013 2466 2878 2466 
L 2506 2466 
Q 2681 2241 2681 1891 
Q 2681 1491 2375 1206 
Q 2069 922 1553 922 
Q 1341 922 1119 984 
Q 981 866 932 777 
Q 884 688 884 625 
Q 884 572 936 522 
Q 988 472 1138 450 
Q 1225 438 1575 428 
Q 2219 413 2409 384 
Q 2700 344 2873 169 
Q 3047 -6 3047 -263 
Q 3047 -616 2716 -925 
Q 2228 -1381 1444 -1381 
Q 841 -1381 425 -1109 
Q 191 -953 191 -784 
Q 191 -709 225 -634 
Q 278 -519 444 -313 
Q 466 -284 763 25 
Q 600 122 533 198 
Q 466 275 466 372 
Q 466 481 555 628 
Q 644 775 966 1044 
z
M 1509 2797 
Q 1278 2797 1122 2612 
Q 966 2428 966 2047 
Q 966 1553 1178 1281 
Q 1341 1075 1591 1075 
Q 1828 1075 1981 1253 
Q 2134 1431 2134 1813 
Q 2134 2309 1919 2591 
Q 1759 2797 1509 2797 
z
M 934 0 
Q 788 -159 713 -296 
Q 638 -434 638 -550 
Q 638 -700 819 -813 
Q 1131 -1006 1722 -1006 
Q 2284 -1006 2551 -807 
Q 2819 -609 2819 -384 
Q 2819 -222 2659 -153 
Q 2497 -84 2016 -72 
Q 1313 -53 934 0 
z
" id="TimesNewRomanPSMT-67" transform="scale(0.015625)"/>
       </defs>
       <use xlink:href="#TimesNewRomanPSMT-4e"/>
       <use x="72.216797" xlink:href="#TimesNewRomanPSMT-6f"/>
       <use x="122.216797" xlink:href="#TimesNewRomanPSMT-20"/>
       <use x="147.216797" xlink:href="#TimesNewRomanPSMT-6d"/>
       <use x="225" xlink:href="#TimesNewRomanPSMT-69"/>
       <use x="252.783203" xlink:href="#TimesNewRomanPSMT-73"/>
       <use x="291.699219" xlink:href="#TimesNewRomanPSMT-73"/>
       <use x="330.615234" xlink:href="#TimesNewRomanPSMT-69"/>
       <use x="358.398438" xlink:href="#TimesNewRomanPSMT-6e"/>
       <use x="408.398438" xlink:href="#TimesNewRomanPSMT-67"/>
      </g>
      <!-- steps -->
      <g transform="translate(1074.9975 123.792)scale(0.32 -0.32)">
       <defs>
        <path d="M 1031 3803 
L 1031 2863 
L 1700 2863 
L 1700 2644 
L 1031 2644 
L 1031 788 
Q 1031 509 1111 412 
Q 1191 316 1316 316 
Q 1419 316 1516 380 
Q 1613 444 1666 569 
L 1788 569 
Q 1678 263 1478 108 
Q 1278 -47 1066 -47 
Q 922 -47 784 33 
Q 647 113 581 261 
Q 516 409 516 719 
L 516 2644 
L 63 2644 
L 63 2747 
Q 234 2816 414 2980 
Q 594 3144 734 3369 
Q 806 3488 934 3803 
L 1031 3803 
z
" id="TimesNewRomanPSMT-74" transform="scale(0.015625)"/>
        <path d="M 681 1784 
Q 678 1147 991 784 
Q 1303 422 1725 422 
Q 2006 422 2214 576 
Q 2422 731 2563 1106 
L 2659 1044 
Q 2594 616 2278 264 
Q 1963 -88 1488 -88 
Q 972 -88 605 314 
Q 238 716 238 1394 
Q 238 2128 614 2539 
Q 991 2950 1559 2950 
Q 2041 2950 2350 2633 
Q 2659 2316 2659 1784 
L 681 1784 
z
M 681 1966 
L 2006 1966 
Q 1991 2241 1941 2353 
Q 1863 2528 1708 2628 
Q 1553 2728 1384 2728 
Q 1125 2728 920 2526 
Q 716 2325 681 1966 
z
" id="TimesNewRomanPSMT-65" transform="scale(0.015625)"/>
        <path d="M -6 2578 
L 875 2934 
L 994 2934 
L 994 2266 
Q 1216 2644 1439 2795 
Q 1663 2947 1909 2947 
Q 2341 2947 2628 2609 
Q 2981 2197 2981 1534 
Q 2981 794 2556 309 
Q 2206 -88 1675 -88 
Q 1444 -88 1275 -22 
Q 1150 25 994 166 
L 994 -706 
Q 994 -1000 1030 -1079 
Q 1066 -1159 1155 -1206 
Q 1244 -1253 1478 -1253 
L 1478 -1369 
L -22 -1369 
L -22 -1253 
L 56 -1253 
Q 228 -1256 350 -1188 
Q 409 -1153 442 -1076 
Q 475 -1000 475 -688 
L 475 2019 
Q 475 2297 450 2372 
Q 425 2447 370 2484 
Q 316 2522 222 2522 
Q 147 2522 31 2478 
L -6 2578 
z
M 994 2081 
L 994 1013 
Q 994 666 1022 556 
Q 1066 375 1236 237 
Q 1406 100 1666 100 
Q 1978 100 2172 344 
Q 2425 663 2425 1241 
Q 2425 1897 2138 2250 
Q 1938 2494 1663 2494 
Q 1513 2494 1366 2419 
Q 1253 2363 994 2081 
z
" id="TimesNewRomanPSMT-70" transform="scale(0.015625)"/>
       </defs>
       <use xlink:href="#TimesNewRomanPSMT-73"/>
       <use x="38.916016" xlink:href="#TimesNewRomanPSMT-74"/>
       <use x="66.699219" xlink:href="#TimesNewRomanPSMT-65"/>
       <use x="111.083984" xlink:href="#TimesNewRomanPSMT-70"/>
       <use x="161.083984" xlink:href="#TimesNewRomanPSMT-73"/>
      </g>
     </g>
    </g>
    <g id="xtick_2">
     <g id="line2d_2">
      <path clip-path="url(#p779f20e48f)" d="M 1107 472.68 
L 1388.740793 247.999215 
" style="fill:none;stroke:#000000;stroke-linecap:square;stroke-opacity:0.1;"/>
     </g>
     <g id="text_2">
      <!-- No redundant -->
      <g transform="translate(1311.372102 230.826848)scale(0.32 -0.32)">
       <defs>
        <path d="M 1038 2947 
L 1038 2303 
Q 1397 2947 1775 2947 
Q 1947 2947 2059 2842 
Q 2172 2738 2172 2600 
Q 2172 2478 2090 2393 
Q 2009 2309 1897 2309 
Q 1788 2309 1652 2417 
Q 1516 2525 1450 2525 
Q 1394 2525 1328 2463 
Q 1188 2334 1038 2041 
L 1038 669 
Q 1038 431 1097 309 
Q 1138 225 1241 169 
Q 1344 113 1538 113 
L 1538 0 
L 72 0 
L 72 113 
Q 291 113 397 181 
Q 475 231 506 341 
Q 522 394 522 644 
L 522 1753 
Q 522 2253 501 2348 
Q 481 2444 426 2487 
Q 372 2531 291 2531 
Q 194 2531 72 2484 
L 41 2597 
L 906 2947 
L 1038 2947 
z
" id="TimesNewRomanPSMT-72" transform="scale(0.015625)"/>
        <path d="M 2222 322 
Q 2013 103 1813 7 
Q 1613 -88 1381 -88 
Q 913 -88 563 304 
Q 213 697 213 1313 
Q 213 1928 600 2439 
Q 988 2950 1597 2950 
Q 1975 2950 2222 2709 
L 2222 3238 
Q 2222 3728 2198 3840 
Q 2175 3953 2125 3993 
Q 2075 4034 2000 4034 
Q 1919 4034 1784 3984 
L 1744 4094 
L 2597 4444 
L 2738 4444 
L 2738 1134 
Q 2738 631 2761 520 
Q 2784 409 2836 365 
Q 2888 322 2956 322 
Q 3041 322 3181 375 
L 3216 266 
L 2366 -88 
L 2222 -88 
L 2222 322 
z
M 2222 541 
L 2222 2016 
Q 2203 2228 2109 2403 
Q 2016 2578 1861 2667 
Q 1706 2756 1559 2756 
Q 1284 2756 1069 2509 
Q 784 2184 784 1559 
Q 784 928 1059 592 
Q 1334 256 1672 256 
Q 1956 256 2222 541 
z
" id="TimesNewRomanPSMT-64" transform="scale(0.015625)"/>
        <path d="M 2709 2863 
L 2709 1128 
Q 2709 631 2732 520 
Q 2756 409 2807 365 
Q 2859 322 2928 322 
Q 3025 322 3147 375 
L 3191 266 
L 2334 -88 
L 2194 -88 
L 2194 519 
Q 1825 119 1631 15 
Q 1438 -88 1222 -88 
Q 981 -88 804 51 
Q 628 191 559 409 
Q 491 628 491 1028 
L 491 2306 
Q 491 2509 447 2587 
Q 403 2666 317 2708 
Q 231 2750 6 2747 
L 6 2863 
L 1009 2863 
L 1009 947 
Q 1009 547 1148 422 
Q 1288 297 1484 297 
Q 1619 297 1789 381 
Q 1959 466 2194 703 
L 2194 2325 
Q 2194 2569 2105 2655 
Q 2016 2741 1734 2747 
L 1734 2863 
L 2709 2863 
z
" id="TimesNewRomanPSMT-75" transform="scale(0.015625)"/>
        <path d="M 1822 413 
Q 1381 72 1269 19 
Q 1100 -59 909 -59 
Q 613 -59 420 144 
Q 228 347 228 678 
Q 228 888 322 1041 
Q 450 1253 767 1440 
Q 1084 1628 1822 1897 
L 1822 2009 
Q 1822 2438 1686 2597 
Q 1550 2756 1291 2756 
Q 1094 2756 978 2650 
Q 859 2544 859 2406 
L 866 2225 
Q 866 2081 792 2003 
Q 719 1925 600 1925 
Q 484 1925 411 2006 
Q 338 2088 338 2228 
Q 338 2497 613 2722 
Q 888 2947 1384 2947 
Q 1766 2947 2009 2819 
Q 2194 2722 2281 2516 
Q 2338 2381 2338 1966 
L 2338 994 
Q 2338 584 2353 492 
Q 2369 400 2405 369 
Q 2441 338 2488 338 
Q 2538 338 2575 359 
Q 2641 400 2828 588 
L 2828 413 
Q 2478 -56 2159 -56 
Q 2006 -56 1915 50 
Q 1825 156 1822 413 
z
M 1822 616 
L 1822 1706 
Q 1350 1519 1213 1441 
Q 966 1303 859 1153 
Q 753 1003 753 825 
Q 753 600 887 451 
Q 1022 303 1197 303 
Q 1434 303 1822 616 
z
" id="TimesNewRomanPSMT-61" transform="scale(0.015625)"/>
       </defs>
       <use xlink:href="#TimesNewRomanPSMT-4e"/>
       <use x="72.216797" xlink:href="#TimesNewRomanPSMT-6f"/>
       <use x="122.216797" xlink:href="#TimesNewRomanPSMT-20"/>
       <use x="147.216797" xlink:href="#TimesNewRomanPSMT-72"/>
       <use x="180.517578" xlink:href="#TimesNewRomanPSMT-65"/>
       <use x="224.902344" xlink:href="#TimesNewRomanPSMT-64"/>
       <use x="274.902344" xlink:href="#TimesNewRomanPSMT-75"/>
       <use x="324.902344" xlink:href="#TimesNewRomanPSMT-6e"/>
       <use x="374.902344" xlink:href="#TimesNewRomanPSMT-64"/>
       <use x="424.902344" xlink:href="#TimesNewRomanPSMT-61"/>
       <use x="469.287109" xlink:href="#TimesNewRomanPSMT-6e"/>
       <use x="519.287109" xlink:href="#TimesNewRomanPSMT-74"/>
      </g>
      <!-- steps -->
      <g transform="translate(1366.902102 264.335848)scale(0.32 -0.32)">
       <use xlink:href="#TimesNewRomanPSMT-73"/>
       <use x="38.916016" xlink:href="#TimesNewRomanPSMT-74"/>
       <use x="66.699219" xlink:href="#TimesNewRomanPSMT-65"/>
       <use x="111.083984" xlink:href="#TimesNewRomanPSMT-70"/>
       <use x="161.083984" xlink:href="#TimesNewRomanPSMT-73"/>
      </g>
     </g>
    </g>
    <g id="xtick_3">
     <g id="line2d_3">
      <path clip-path="url(#p779f20e48f)" d="M 1107 472.68 
L 1458.325022 552.867644 
" style="fill:none;stroke:#000000;stroke-linecap:square;stroke-opacity:0.1;"/>
     </g>
     <g id="text_3">
      <!-- No duplicate -->
      <g transform="translate(1388.801585 546.693416)scale(0.32 -0.32)">
       <defs>
        <path d="M 1184 4444 
L 1184 647 
Q 1184 378 1223 290 
Q 1263 203 1344 158 
Q 1425 113 1647 113 
L 1647 0 
L 244 0 
L 244 113 
Q 441 113 512 153 
Q 584 194 625 287 
Q 666 381 666 647 
L 666 3247 
Q 666 3731 644 3842 
Q 622 3953 573 3993 
Q 525 4034 450 4034 
Q 369 4034 244 3984 
L 191 4094 
L 1044 4444 
L 1184 4444 
z
" id="TimesNewRomanPSMT-6c" transform="scale(0.015625)"/>
        <path d="M 2631 1088 
Q 2516 522 2178 217 
Q 1841 -88 1431 -88 
Q 944 -88 581 321 
Q 219 731 219 1428 
Q 219 2103 620 2525 
Q 1022 2947 1584 2947 
Q 2006 2947 2278 2723 
Q 2550 2500 2550 2259 
Q 2550 2141 2473 2067 
Q 2397 1994 2259 1994 
Q 2075 1994 1981 2113 
Q 1928 2178 1911 2362 
Q 1894 2547 1784 2644 
Q 1675 2738 1481 2738 
Q 1169 2738 978 2506 
Q 725 2200 725 1697 
Q 725 1184 976 792 
Q 1228 400 1656 400 
Q 1963 400 2206 609 
Q 2378 753 2541 1131 
L 2631 1088 
z
" id="TimesNewRomanPSMT-63" transform="scale(0.015625)"/>
       </defs>
       <use xlink:href="#TimesNewRomanPSMT-4e"/>
       <use x="72.216797" xlink:href="#TimesNewRomanPSMT-6f"/>
       <use x="122.216797" xlink:href="#TimesNewRomanPSMT-20"/>
       <use x="147.216797" xlink:href="#TimesNewRomanPSMT-64"/>
       <use x="197.216797" xlink:href="#TimesNewRomanPSMT-75"/>
       <use x="247.216797" xlink:href="#TimesNewRomanPSMT-70"/>
       <use x="297.216797" xlink:href="#TimesNewRomanPSMT-6c"/>
       <use x="325" xlink:href="#TimesNewRomanPSMT-69"/>
       <use x="352.783203" xlink:href="#TimesNewRomanPSMT-63"/>
       <use x="397.167969" xlink:href="#TimesNewRomanPSMT-61"/>
       <use x="441.552734" xlink:href="#TimesNewRomanPSMT-74"/>
       <use x="469.335938" xlink:href="#TimesNewRomanPSMT-65"/>
      </g>
      <!-- steps -->
      <g transform="translate(1438.996585 580.202416)scale(0.32 -0.32)">
       <use xlink:href="#TimesNewRomanPSMT-73"/>
       <use x="38.916016" xlink:href="#TimesNewRomanPSMT-74"/>
       <use x="66.699219" xlink:href="#TimesNewRomanPSMT-65"/>
       <use x="111.083984" xlink:href="#TimesNewRomanPSMT-70"/>
       <use x="161.083984" xlink:href="#TimesNewRomanPSMT-73"/>
      </g>
     </g>
    </g>
    <g id="xtick_4">
     <g id="line2d_4">
      <path clip-path="url(#p779f20e48f)" d="M 1107 472.68 
L 1263.354344 797.353141 
" style="fill:none;stroke:#000000;stroke-linecap:square;stroke-opacity:0.1;"/>
     </g>
     <g id="text_4">
      <!-- Executable -->
      <g transform="translate(1197.922333 816.753237)scale(0.32 -0.32)">
       <defs>
        <path d="M 1338 4006 
L 1338 2331 
L 2269 2331 
Q 2631 2331 2753 2441 
Q 2916 2584 2934 2947 
L 3050 2947 
L 3050 1472 
L 2934 1472 
Q 2891 1781 2847 1869 
Q 2791 1978 2662 2040 
Q 2534 2103 2269 2103 
L 1338 2103 
L 1338 706 
Q 1338 425 1363 364 
Q 1388 303 1450 267 
Q 1513 231 1688 231 
L 2406 231 
Q 2766 231 2928 281 
Q 3091 331 3241 478 
Q 3434 672 3638 1063 
L 3763 1063 
L 3397 0 
L 131 0 
L 131 116 
L 281 116 
Q 431 116 566 188 
Q 666 238 702 338 
Q 738 438 738 747 
L 738 3500 
Q 738 3903 656 3997 
Q 544 4122 281 4122 
L 131 4122 
L 131 4238 
L 3397 4238 
L 3444 3309 
L 3322 3309 
Q 3256 3644 3176 3769 
Q 3097 3894 2941 3959 
Q 2816 4006 2500 4006 
L 1338 4006 
z
" id="TimesNewRomanPSMT-45" transform="scale(0.015625)"/>
        <path d="M 84 2863 
L 1431 2863 
L 1431 2747 
Q 1303 2747 1251 2703 
Q 1200 2659 1200 2588 
Q 1200 2513 1309 2356 
Q 1344 2306 1413 2200 
L 1616 1875 
L 1850 2200 
Q 2075 2509 2075 2591 
Q 2075 2656 2022 2701 
Q 1969 2747 1850 2747 
L 1850 2863 
L 2819 2863 
L 2819 2747 
Q 2666 2738 2553 2663 
Q 2400 2556 2134 2200 
L 1744 1678 
L 2456 653 
Q 2719 275 2831 198 
Q 2944 122 3122 113 
L 3122 0 
L 1772 0 
L 1772 113 
Q 1913 113 1991 175 
Q 2050 219 2050 291 
Q 2050 363 1850 653 
L 1431 1266 
L 972 653 
Q 759 369 759 316 
Q 759 241 829 180 
Q 900 119 1041 113 
L 1041 0 
L 106 0 
L 106 113 
Q 219 128 303 191 
Q 422 281 703 653 
L 1303 1450 
L 759 2238 
Q 528 2575 401 2661 
Q 275 2747 84 2747 
L 84 2863 
z
" id="TimesNewRomanPSMT-78" transform="scale(0.015625)"/>
        <path d="M 984 2369 
Q 1400 2947 1881 2947 
Q 2322 2947 2650 2570 
Q 2978 2194 2978 1541 
Q 2978 778 2472 313 
Q 2038 -88 1503 -88 
Q 1253 -88 995 3 
Q 738 94 469 275 
L 469 3241 
Q 469 3728 445 3840 
Q 422 3953 372 3993 
Q 322 4034 247 4034 
Q 159 4034 28 3984 
L -16 4094 
L 844 4444 
L 984 4444 
L 984 2369 
z
M 984 2169 
L 984 456 
Q 1144 300 1314 220 
Q 1484 141 1663 141 
Q 1947 141 2192 453 
Q 2438 766 2438 1363 
Q 2438 1913 2192 2208 
Q 1947 2503 1634 2503 
Q 1469 2503 1303 2419 
Q 1178 2356 984 2169 
z
" id="TimesNewRomanPSMT-62" transform="scale(0.015625)"/>
       </defs>
       <use xlink:href="#TimesNewRomanPSMT-45"/>
       <use x="61.083984" xlink:href="#TimesNewRomanPSMT-78"/>
       <use x="111.083984" xlink:href="#TimesNewRomanPSMT-65"/>
       <use x="155.46875" xlink:href="#TimesNewRomanPSMT-63"/>
       <use x="199.853516" xlink:href="#TimesNewRomanPSMT-75"/>
       <use x="249.853516" xlink:href="#TimesNewRomanPSMT-74"/>
       <use x="277.636719" xlink:href="#TimesNewRomanPSMT-61"/>
       <use x="322.021484" xlink:href="#TimesNewRomanPSMT-62"/>
       <use x="372.021484" xlink:href="#TimesNewRomanPSMT-6c"/>
       <use x="399.804688" xlink:href="#TimesNewRomanPSMT-65"/>
      </g>
     </g>
    </g>
    <g id="xtick_5">
     <g id="line2d_5">
      <path clip-path="url(#p779f20e48f)" d="M 1107 472.68 
L 950.645656 797.353141 
" style="fill:none;stroke:#000000;stroke-linecap:square;stroke-opacity:0.1;"/>
     </g>
     <g id="text_5">
      <!-- Satisfy -->
      <g transform="translate(900.560167 799.968737)scale(0.32 -0.32)">
       <defs>
        <path d="M 2934 4334 
L 2934 2869 
L 2819 2869 
Q 2763 3291 2617 3541 
Q 2472 3791 2203 3937 
Q 1934 4084 1647 4084 
Q 1322 4084 1109 3886 
Q 897 3688 897 3434 
Q 897 3241 1031 3081 
Q 1225 2847 1953 2456 
Q 2547 2138 2764 1967 
Q 2981 1797 3098 1565 
Q 3216 1334 3216 1081 
Q 3216 600 2842 251 
Q 2469 -97 1881 -97 
Q 1697 -97 1534 -69 
Q 1438 -53 1133 45 
Q 828 144 747 144 
Q 669 144 623 97 
Q 578 50 556 -97 
L 441 -97 
L 441 1356 
L 556 1356 
Q 638 900 775 673 
Q 913 447 1195 297 
Q 1478 147 1816 147 
Q 2206 147 2432 353 
Q 2659 559 2659 841 
Q 2659 997 2573 1156 
Q 2488 1316 2306 1453 
Q 2184 1547 1640 1851 
Q 1097 2156 867 2337 
Q 638 2519 519 2737 
Q 400 2956 400 3219 
Q 400 3675 750 4004 
Q 1100 4334 1641 4334 
Q 1978 4334 2356 4169 
Q 2531 4091 2603 4091 
Q 2684 4091 2736 4139 
Q 2788 4188 2819 4334 
L 2934 4334 
z
" id="TimesNewRomanPSMT-53" transform="scale(0.015625)"/>
        <path d="M 1319 2638 
L 1319 756 
Q 1319 356 1406 250 
Q 1522 113 1716 113 
L 1975 113 
L 1975 0 
L 266 0 
L 266 113 
L 394 113 
Q 519 113 622 175 
Q 725 238 764 344 
Q 803 450 803 756 
L 803 2638 
L 247 2638 
L 247 2863 
L 803 2863 
L 803 3050 
Q 803 3478 940 3775 
Q 1078 4072 1361 4255 
Q 1644 4438 1997 4438 
Q 2325 4438 2600 4225 
Q 2781 4084 2781 3909 
Q 2781 3816 2700 3733 
Q 2619 3650 2525 3650 
Q 2453 3650 2373 3701 
Q 2294 3753 2178 3923 
Q 2063 4094 1966 4153 
Q 1869 4213 1750 4213 
Q 1606 4213 1506 4136 
Q 1406 4059 1362 3898 
Q 1319 3738 1319 3069 
L 1319 2863 
L 2056 2863 
L 2056 2638 
L 1319 2638 
z
" id="TimesNewRomanPSMT-66" transform="scale(0.015625)"/>
        <path d="M 38 2863 
L 1372 2863 
L 1372 2747 
L 1306 2747 
Q 1166 2747 1095 2686 
Q 1025 2625 1025 2534 
Q 1025 2413 1128 2197 
L 1825 753 
L 2466 2334 
Q 2519 2463 2519 2588 
Q 2519 2644 2497 2672 
Q 2472 2706 2419 2726 
Q 2366 2747 2231 2747 
L 2231 2863 
L 3163 2863 
L 3163 2747 
Q 3047 2734 2984 2696 
Q 2922 2659 2847 2556 
Q 2819 2513 2741 2316 
L 1575 -541 
Q 1406 -956 1132 -1168 
Q 859 -1381 606 -1381 
Q 422 -1381 303 -1275 
Q 184 -1169 184 -1031 
Q 184 -900 270 -820 
Q 356 -741 506 -741 
Q 609 -741 788 -809 
Q 913 -856 944 -856 
Q 1038 -856 1148 -759 
Q 1259 -663 1372 -384 
L 1575 113 
L 547 2272 
Q 500 2369 397 2513 
Q 319 2622 269 2659 
Q 197 2709 38 2747 
L 38 2863 
z
" id="TimesNewRomanPSMT-79" transform="scale(0.015625)"/>
       </defs>
       <use xlink:href="#TimesNewRomanPSMT-53"/>
       <use x="55.615234" xlink:href="#TimesNewRomanPSMT-61"/>
       <use x="100" xlink:href="#TimesNewRomanPSMT-74"/>
       <use x="127.783203" xlink:href="#TimesNewRomanPSMT-69"/>
       <use x="155.566406" xlink:href="#TimesNewRomanPSMT-73"/>
       <use x="194.482422" xlink:href="#TimesNewRomanPSMT-66"/>
       <use x="227.783203" xlink:href="#TimesNewRomanPSMT-79"/>
      </g>
      <!-- limitation -->
      <g transform="translate(882.787667 833.537737)scale(0.32 -0.32)">
       <use xlink:href="#TimesNewRomanPSMT-6c"/>
       <use x="27.783203" xlink:href="#TimesNewRomanPSMT-69"/>
       <use x="55.566406" xlink:href="#TimesNewRomanPSMT-6d"/>
       <use x="133.349609" xlink:href="#TimesNewRomanPSMT-69"/>
       <use x="161.132812" xlink:href="#TimesNewRomanPSMT-74"/>
       <use x="188.916016" xlink:href="#TimesNewRomanPSMT-61"/>
       <use x="233.300781" xlink:href="#TimesNewRomanPSMT-74"/>
       <use x="261.083984" xlink:href="#TimesNewRomanPSMT-69"/>
       <use x="288.867188" xlink:href="#TimesNewRomanPSMT-6f"/>
       <use x="338.867188" xlink:href="#TimesNewRomanPSMT-6e"/>
      </g>
     </g>
    </g>
    <g id="xtick_6">
     <g id="line2d_6">
      <path clip-path="url(#p779f20e48f)" d="M 1107 472.68 
L 755.674978 552.867644 
" style="fill:none;stroke:#000000;stroke-linecap:square;stroke-opacity:0.1;"/>
     </g>
     <g id="text_6">
      <!-- Complete -->
      <g transform="translate(680.788415 546.693416)scale(0.32 -0.32)">
       <defs>
        <path d="M 3853 4334 
L 3950 2894 
L 3853 2894 
Q 3659 3541 3300 3825 
Q 2941 4109 2438 4109 
Q 2016 4109 1675 3895 
Q 1334 3681 1139 3212 
Q 944 2744 944 2047 
Q 944 1472 1128 1050 
Q 1313 628 1683 403 
Q 2053 178 2528 178 
Q 2941 178 3256 354 
Q 3572 531 3950 1056 
L 4047 994 
Q 3728 428 3303 165 
Q 2878 -97 2294 -97 
Q 1241 -97 663 684 
Q 231 1266 231 2053 
Q 231 2688 515 3219 
Q 800 3750 1298 4042 
Q 1797 4334 2388 4334 
Q 2847 4334 3294 4109 
Q 3425 4041 3481 4041 
Q 3566 4041 3628 4100 
Q 3709 4184 3744 4334 
L 3853 4334 
z
" id="TimesNewRomanPSMT-43" transform="scale(0.015625)"/>
       </defs>
       <use xlink:href="#TimesNewRomanPSMT-43"/>
       <use x="66.699219" xlink:href="#TimesNewRomanPSMT-6f"/>
       <use x="116.699219" xlink:href="#TimesNewRomanPSMT-6d"/>
       <use x="194.482422" xlink:href="#TimesNewRomanPSMT-70"/>
       <use x="244.482422" xlink:href="#TimesNewRomanPSMT-6c"/>
       <use x="272.265625" xlink:href="#TimesNewRomanPSMT-65"/>
       <use x="316.650391" xlink:href="#TimesNewRomanPSMT-74"/>
       <use x="344.433594" xlink:href="#TimesNewRomanPSMT-65"/>
      </g>
      <!-- script -->
      <g transform="translate(707.453415 580.202416)scale(0.32 -0.32)">
       <use xlink:href="#TimesNewRomanPSMT-73"/>
       <use x="38.916016" xlink:href="#TimesNewRomanPSMT-63"/>
       <use x="83.300781" xlink:href="#TimesNewRomanPSMT-72"/>
       <use x="116.601562" xlink:href="#TimesNewRomanPSMT-69"/>
       <use x="144.384766" xlink:href="#TimesNewRomanPSMT-70"/>
       <use x="194.384766" xlink:href="#TimesNewRomanPSMT-74"/>
      </g>
     </g>
    </g>
    <g id="xtick_7">
     <g id="line2d_7">
      <path clip-path="url(#p779f20e48f)" d="M 1107 472.68 
L 825.259207 247.999215 
" style="fill:none;stroke:#000000;stroke-linecap:square;stroke-opacity:0.1;"/>
     </g>
     <g id="text_7">
      <!-- Step -->
      <g transform="translate(786.650398 230.826848)scale(0.32 -0.32)">
       <use xlink:href="#TimesNewRomanPSMT-53"/>
       <use x="55.615234" xlink:href="#TimesNewRomanPSMT-74"/>
       <use x="83.398438" xlink:href="#TimesNewRomanPSMT-65"/>
       <use x="127.783203" xlink:href="#TimesNewRomanPSMT-70"/>
      </g>
      <!-- correct -->
      <g transform="translate(770.687898 264.335848)scale(0.32 -0.32)">
       <use xlink:href="#TimesNewRomanPSMT-63"/>
       <use x="44.384766" xlink:href="#TimesNewRomanPSMT-6f"/>
       <use x="94.384766" xlink:href="#TimesNewRomanPSMT-72"/>
       <use x="127.685547" xlink:href="#TimesNewRomanPSMT-72"/>
       <use x="160.986328" xlink:href="#TimesNewRomanPSMT-65"/>
       <use x="205.371094" xlink:href="#TimesNewRomanPSMT-63"/>
       <use x="249.755859" xlink:href="#TimesNewRomanPSMT-74"/>
      </g>
     </g>
    </g>
    <g id="xtick_8"/>
    <g id="xtick_9"/>
    <g id="xtick_10"/>
    <g id="xtick_11"/>
    <g id="xtick_12"/>
    <g id="xtick_13"/>
    <g id="xtick_14"/>
    <g id="xtick_15"/>
    <g id="xtick_16"/>
    <g id="xtick_17"/>
    <g id="xtick_18"/>
    <g id="xtick_19"/>
    <g id="xtick_20"/>
    <g id="xtick_21"/>
    <g id="xtick_22"/>
    <g id="xtick_23"/>
    <g id="xtick_24"/>
    <g id="xtick_25"/>
    <g id="xtick_26"/>
    <g id="xtick_27"/>
    <g id="xtick_28"/>
    <g id="xtick_29"/>
   </g>
   <g id="matplotlib.axis_2">
    <g id="ytick_1">
     <g id="line2d_8">
      <path clip-path="url(#p779f20e48f)" d="M 1107 403.846611 
C 1116.039118 403.846611 1124.990342 405.62712 1133.341398 409.086241 
C 1141.692454 412.545361 1149.280935 417.615822 1155.672556 424.007444 
C 1162.064178 430.399065 1167.134639 437.987546 1170.593759 446.338602 
C 1174.05288 454.689658 1175.833389 463.640882 1175.833389 472.68 
C 1175.833389 481.719118 1174.05288 490.670342 1170.593759 499.021398 
C 1167.134639 507.372454 1162.064178 514.960935 1155.672556 521.352556 
C 1149.280935 527.744178 1141.692454 532.814639 1133.341398 536.273759 
C 1124.990342 539.73288 1116.039118 541.513389 1107 541.513389 
C 1097.960882 541.513389 1089.009658 539.73288 1080.658602 536.273759 
C 1072.307546 532.814639 1064.719065 527.744178 1058.327444 521.352556 
C 1051.935822 514.960935 1046.865361 507.372454 1043.406241 499.021398 
C 1039.94712 490.670342 1038.166611 481.719118 1038.166611 472.68 
C 1038.166611 463.640882 1039.94712 454.689658 1043.406241 446.338602 
C 1046.865361 437.987546 1051.935822 430.399065 1058.327444 424.007444 
C 1064.719065 417.615822 1072.307546 412.545361 1080.658602 409.086241 
C 1089.009658 405.62712 1097.960882 403.846611 1107 403.846611 
" style="fill:none;stroke:#000000;stroke-linecap:square;stroke-opacity:0.1;"/>
     </g>
    </g>
    <g id="ytick_2">
     <g id="line2d_9">
      <path clip-path="url(#p779f20e48f)" d="M 1107 335.013222 
C 1125.078236 335.013222 1142.980683 338.57424 1159.682795 345.492481 
C 1176.384907 352.410723 1191.561869 362.551645 1204.345112 375.334888 
C 1217.128355 388.118131 1227.269277 403.295093 1234.187519 419.997205 
C 1241.10576 436.699317 1244.666778 454.601764 1244.666778 472.68 
C 1244.666778 490.758236 1241.10576 508.660683 1234.187519 525.362795 
C 1227.269277 542.064907 1217.128355 557.241869 1204.345112 570.025112 
C 1191.561869 582.808355 1176.384907 592.949277 1159.682795 599.867519 
C 1142.980683 606.78576 1125.078236 610.346778 1107 610.346778 
C 1088.921764 610.346778 1071.019317 606.78576 1054.317205 599.867519 
C 1037.615093 592.949277 1022.438131 582.808355 1009.654888 570.025112 
C 996.871645 557.241869 986.730723 542.064907 979.812481 525.362795 
C 972.89424 508.660683 969.333222 490.758236 969.333222 472.68 
C 969.333222 454.601764 972.89424 436.699317 979.812481 419.997205 
C 986.730723 403.295093 996.871645 388.118131 1009.654888 375.334888 
C 1022.438131 362.551645 1037.615093 352.410723 1054.317205 345.492481 
C 1071.019317 338.57424 1088.921764 335.013222 1107 335.013222 
" style="fill:none;stroke:#000000;stroke-linecap:square;stroke-opacity:0.1;"/>
     </g>
    </g>
    <g id="ytick_3">
     <g id="line2d_10">
      <path clip-path="url(#p779f20e48f)" d="M 1107 266.179833 
C 1134.117353 266.179833 1160.971025 271.52136 1186.024193 281.898722 
C 1211.077361 292.276084 1233.842804 307.487467 1253.017668 326.662332 
C 1272.192533 345.837196 1287.403916 368.602639 1297.781278 393.655807 
C 1308.15864 418.708975 1313.500167 445.562647 1313.500167 472.68 
C 1313.500167 499.797353 1308.15864 526.651025 1297.781278 551.704193 
C 1287.403916 576.757361 1272.192533 599.522804 1253.017668 618.697668 
C 1233.842804 637.872533 1211.077361 653.083916 1186.024193 663.461278 
C 1160.971025 673.83864 1134.117353 679.180167 1107 679.180167 
C 1079.882647 679.180167 1053.028975 673.83864 1027.975807 663.461278 
C 1002.922639 653.083916 980.157196 637.872533 960.982332 618.697668 
C 941.807467 599.522804 926.596084 576.757361 916.218722 551.704193 
C 905.84136 526.651025 900.499833 499.797353 900.499833 472.68 
C 900.499833 445.562647 905.84136 418.708975 916.218722 393.655807 
C 926.596084 368.602639 941.807467 345.837196 960.982332 326.662332 
C 980.157196 307.487467 1002.922639 292.276084 1027.975807 281.898722 
C 1053.028975 271.52136 1079.882647 266.179833 1107 266.179833 
" style="fill:none;stroke:#000000;stroke-linecap:square;stroke-opacity:0.1;"/>
     </g>
    </g>
    <g id="ytick_4">
     <g id="line2d_11">
      <path clip-path="url(#p779f20e48f)" d="M 1107 197.346444 
C 1143.156471 197.346444 1178.961367 204.46848 1212.36559 218.304963 
C 1245.769814 232.141445 1276.123739 252.423289 1301.690225 277.989775 
C 1327.256711 303.556261 1347.538555 333.910186 1361.375037 367.31441 
C 1375.21152 400.718633 1382.333556 436.523529 1382.333556 472.68 
C 1382.333556 508.836471 1375.21152 544.641367 1361.375037 578.04559 
C 1347.538555 611.449814 1327.256711 641.803739 1301.690225 667.370225 
C 1276.123739 692.936711 1245.769814 713.218555 1212.36559 727.055037 
C 1178.961367 740.89152 1143.156471 748.013556 1107 748.013556 
C 1070.843529 748.013556 1035.038633 740.89152 1001.63441 727.055037 
C 968.230186 713.218555 937.876261 692.936711 912.309775 667.370225 
C 886.743289 641.803739 866.461445 611.449814 852.624963 578.04559 
C 838.78848 544.641367 831.666444 508.836471 831.666444 472.68 
C 831.666444 436.523529 838.78848 400.718633 852.624963 367.31441 
C 866.461445 333.910186 886.743289 303.556261 912.309775 277.989775 
C 937.876261 252.423289 968.230186 232.141445 1001.63441 218.304963 
C 1035.038633 204.46848 1070.843529 197.346444 1107 197.346444 
" style="fill:none;stroke:#000000;stroke-linecap:square;stroke-opacity:0.1;"/>
     </g>
    </g>
    <g id="ytick_5">
     <g id="line2d_12">
      <path clip-path="url(#p779f20e48f)" d="M 1107 128.513055 
C 1152.195589 128.513055 1196.951708 137.4156 1238.706988 154.711204 
C 1280.462268 172.006807 1318.404673 197.359112 1350.362781 229.317219 
C 1382.320888 261.275327 1407.673193 299.217732 1424.968796 340.973012 
C 1442.2644 382.728292 1451.166945 427.484411 1451.166945 472.68 
C 1451.166945 517.875589 1442.2644 562.631708 1424.968796 604.386988 
C 1407.673193 646.142268 1382.320888 684.084673 1350.362781 716.042781 
C 1318.404673 748.000888 1280.462268 773.353193 1238.706988 790.648796 
C 1196.951708 807.9444 1152.195589 816.846945 1107 816.846945 
C 1061.804411 816.846945 1017.048292 807.9444 975.293012 790.648796 
C 933.537732 773.353193 895.595327 748.000888 863.637219 716.042781 
C 831.679112 684.084673 806.326807 646.142268 789.031204 604.386988 
C 771.7356 562.631708 762.833055 517.875589 762.833055 472.68 
C 762.833055 427.484411 771.7356 382.728292 789.031204 340.973012 
C 806.326807 299.217732 831.679112 261.275327 863.637219 229.317219 
C 895.595327 197.359112 933.537732 172.006807 975.293012 154.711204 
C 1017.048292 137.4156 1061.804411 128.513055 1107 128.513055 
" style="fill:none;stroke:#000000;stroke-linecap:square;stroke-opacity:0.1;"/>
     </g>
    </g>
    <g id="ytick_6"/>
    <g id="ytick_7"/>
    <g id="ytick_8"/>
    <g id="ytick_9"/>
    <g id="ytick_10"/>
    <g id="ytick_11"/>
    <g id="ytick_12"/>
    <g id="ytick_13"/>
    <g id="ytick_14"/>
    <g id="ytick_15"/>
    <g id="ytick_16"/>
    <g id="ytick_17"/>
    <g id="ytick_18"/>
    <g id="ytick_19"/>
    <g id="ytick_20"/>
   </g>
   <g id="line2d_13">
    <path clip-path="url(#p779f20e48f)" d="M 1107 431.724134 
L 1341.907323 285.347661 
L 1441.531347 549.034597 
L 1238.409028 745.553659 
L 999.483522 695.940266 
L 904.670609 518.860363 
L 915.683727 320.110363 
L 1107 431.724134 
" style="fill:none;stroke:#0072b2;stroke-linecap:square;stroke-width:3;"/>
   </g>
   <g id="line2d_14">
    <path clip-path="url(#p779f20e48f)" d="M 1107 431.379967 
L 1322.533523 300.797751 
L 1442.202423 549.187766 
L 1236.766415 742.142738 
L 1000.528822 693.76968 
L 892.591243 521.6174 
L 919.181774 322.899963 
L 1107 431.379967 
" style="fill:none;stroke:#d55e00;stroke-linecap:square;stroke-width:3;"/>
   </g>
   <g id="line2d_15">
    <path clip-path="url(#p779f20e48f)" d="M 1107 444.114144 
L 1317.420992 304.874858 
L 1440.189196 548.72826 
L 1229.897307 727.878888 
L 1006.203302 681.9865 
L 913.730134 516.792586 
L 940.708218 340.066729 
L 1107 444.114144 
" style="fill:none;stroke:#009e73;stroke-linecap:square;stroke-width:3;"/>
   </g>
   <g id="line2d_16">
    <path clip-path="url(#p779f20e48f)" d="M 1107 393.521603 
L 1313.922945 307.664458 
L 1442.202423 549.187766 
L 1234.526489 737.491482 
L 1004.112704 686.327671 
L 907.354913 518.247688 
L 914.338324 319.03744 
L 1107 393.521603 
" style="fill:none;stroke:#cc79a7;stroke-linecap:square;stroke-width:3;"/>
   </g>
   <g id="line2d_17">
    <path clip-path="url(#p779f20e48f)" d="M 1107 428.282464 
L 1345.674451 282.343477 
L 1442.537961 549.26435 
L 1240.798283 750.514998 
L 993.95837 707.413363 
L 873.465579 525.982708 
L 909.225794 314.960333 
L 1107 428.282464 
" style="fill:none;stroke:#f0e442;stroke-linecap:square;stroke-width:3;"/>
   </g>
   <g id="line2d_18">
    <path clip-path="url(#p779f20e48f)" d="M 1107 452.37415 
L 1331.682262 293.501875 
L 1441.531347 549.034597 
L 1238.707685 746.173826 
L 1000.827478 693.149513 
L 899.63754 520.009128 
L 916.490968 320.754117 
L 1107 452.37415 
" style="fill:none;stroke:#56b4e9;stroke-linecap:square;stroke-width:3;"/>
   </g>
   <g id="patch_3">
    <path d="M 1107 112.32 
C 1059.677958 112.32 1012.816064 121.64141 969.096198 139.750772 
C 925.376333 157.860133 885.648737 184.405264 852.187 217.867 
C 818.725264 251.328737 792.180133 291.056333 774.070772 334.776198 
C 755.96141 378.496064 746.64 425.357958 746.64 472.68 
C 746.64 520.002042 755.96141 566.863936 774.070772 610.583802 
C 792.180133 654.303667 818.725264 694.031263 852.187 727.493 
C 885.648737 760.954736 925.376333 787.499867 969.096198 805.609228 
C 1012.816064 823.71859 1059.677958 833.04 1107 833.04 
C 1154.322042 833.04 1201.183936 823.71859 1244.903802 805.609228 
C 1288.623667 787.499867 1328.351263 760.954736 1361.813 727.493 
C 1395.274736 694.031263 1421.819867 654.303667 1439.929228 610.583802 
C 1458.03859 566.863936 1467.36 520.002042 1467.36 472.68 
C 1467.36 425.357958 1458.03859 378.496064 1439.929228 334.776198 
C 1421.819867 291.056333 1395.274736 251.328737 1361.813 217.867 
C 1328.351263 184.405264 1288.623667 157.860133 1244.903802 139.750772 
C 1201.183936 121.64141 1154.322042 112.32 1107 112.32 
" style="fill:none;stroke:#000000;stroke-linecap:square;stroke-linejoin:miter;stroke-width:0.6;"/>
   </g>
   <g id="legend_1">
    <g id="patch_4">
     <path d="M 1811.086 399.79 
L 2043.936 399.79 
L 2043.936 112.32 
L 1811.086 112.32 
z
" style="fill:#ffffff;opacity:0.8;stroke:#000000;stroke-linejoin:miter;stroke-width:0.6;"/>
    </g>
    <g id="line2d_19">
     <path d="M 1827.086 139.52 
L 1891.086 139.52 
" style="fill:none;stroke:#0072b2;stroke-linecap:square;stroke-width:3;"/>
    </g>
    <g id="line2d_20"/>
    <g id="text_8">
     <!-- Qwen -->
     <g transform="translate(1907.086 150.72)scale(0.32 -0.32)">
      <defs>
       <path d="M 2819 -47 
Q 3138 -597 3508 -856 
Q 3878 -1116 4350 -1153 
L 4350 -1253 
Q 3919 -1238 3428 -1080 
Q 2938 -922 2498 -642 
Q 2059 -363 1741 -47 
Q 1291 134 1028 338 
Q 647 641 436 1083 
Q 225 1525 225 2128 
Q 225 3078 840 3706 
Q 1456 4334 2331 4334 
Q 3163 4334 3770 3704 
Q 4378 3075 4378 2116 
Q 4378 1338 3945 750 
Q 3513 163 2819 -47 
z
M 2294 4094 
Q 1725 4094 1378 3688 
Q 941 3178 941 2128 
Q 941 1100 1384 544 
Q 1728 116 2294 116 
Q 2881 116 3241 544 
Q 3663 1050 3663 2038 
Q 3663 2797 3431 3316 
Q 3253 3716 2958 3905 
Q 2663 4094 2294 4094 
z
" id="TimesNewRomanPSMT-51" transform="scale(0.015625)"/>
       <path d="M 41 2863 
L 1241 2863 
L 1241 2747 
Q 1075 2734 1023 2687 
Q 972 2641 972 2553 
Q 972 2456 1025 2319 
L 1638 672 
L 2253 2013 
L 2091 2434 
Q 2016 2622 1894 2694 
Q 1825 2738 1638 2747 
L 1638 2863 
L 3000 2863 
L 3000 2747 
Q 2775 2738 2681 2666 
Q 2619 2616 2619 2506 
Q 2619 2444 2644 2378 
L 3294 734 
L 3897 2319 
Q 3959 2488 3959 2588 
Q 3959 2647 3898 2694 
Q 3838 2741 3659 2747 
L 3659 2863 
L 4563 2863 
L 4563 2747 
Q 4291 2706 4163 2378 
L 3206 -88 
L 3078 -88 
L 2363 1741 
L 1528 -88 
L 1413 -88 
L 494 2319 
Q 403 2547 315 2626 
Q 228 2706 41 2747 
L 41 2863 
z
" id="TimesNewRomanPSMT-77" transform="scale(0.015625)"/>
      </defs>
      <use xlink:href="#TimesNewRomanPSMT-51"/>
      <use x="72.216797" xlink:href="#TimesNewRomanPSMT-77"/>
      <use x="144.433594" xlink:href="#TimesNewRomanPSMT-65"/>
      <use x="188.818359" xlink:href="#TimesNewRomanPSMT-6e"/>
     </g>
    </g>
    <g id="line2d_21">
     <path d="M 1827.086 184.765 
L 1891.086 184.765 
" style="fill:none;stroke:#d55e00;stroke-linecap:square;stroke-width:3;"/>
    </g>
    <g id="line2d_22"/>
    <g id="text_9">
     <!-- Mistral -->
     <g transform="translate(1907.086 195.965)scale(0.32 -0.32)">
      <defs>
       <path d="M 2619 0 
L 981 3566 
L 981 734 
Q 981 344 1066 247 
Q 1181 116 1431 116 
L 1581 116 
L 1581 0 
L 106 0 
L 106 116 
L 256 116 
Q 525 116 638 278 
Q 706 378 706 734 
L 706 3503 
Q 706 3784 644 3909 
Q 600 4000 483 4061 
Q 366 4122 106 4122 
L 106 4238 
L 1306 4238 
L 2844 922 
L 4356 4238 
L 5556 4238 
L 5556 4122 
L 5409 4122 
Q 5138 4122 5025 3959 
Q 4956 3859 4956 3503 
L 4956 734 
Q 4956 344 5044 247 
Q 5159 116 5409 116 
L 5556 116 
L 5556 0 
L 3756 0 
L 3756 116 
L 3906 116 
Q 4178 116 4288 278 
Q 4356 378 4356 734 
L 4356 3566 
L 2722 0 
L 2619 0 
z
" id="TimesNewRomanPSMT-4d" transform="scale(0.015625)"/>
      </defs>
      <use xlink:href="#TimesNewRomanPSMT-4d"/>
      <use x="88.916016" xlink:href="#TimesNewRomanPSMT-69"/>
      <use x="116.699219" xlink:href="#TimesNewRomanPSMT-73"/>
      <use x="155.615234" xlink:href="#TimesNewRomanPSMT-74"/>
      <use x="183.398438" xlink:href="#TimesNewRomanPSMT-72"/>
      <use x="216.699219" xlink:href="#TimesNewRomanPSMT-61"/>
      <use x="261.083984" xlink:href="#TimesNewRomanPSMT-6c"/>
     </g>
    </g>
    <g id="line2d_23">
     <path d="M 1827.086 230.01 
L 1891.086 230.01 
" style="fill:none;stroke:#009e73;stroke-linecap:square;stroke-width:3;"/>
    </g>
    <g id="line2d_24"/>
    <g id="text_10">
     <!-- Baichuan -->
     <g transform="translate(1907.086 241.21)scale(0.32 -0.32)">
      <defs>
       <path d="M 2956 2163 
Q 3397 2069 3616 1863 
Q 3919 1575 3919 1159 
Q 3919 844 3719 555 
Q 3519 266 3170 133 
Q 2822 0 2106 0 
L 106 0 
L 106 116 
L 266 116 
Q 531 116 647 284 
Q 719 394 719 750 
L 719 3488 
Q 719 3881 628 3984 
Q 506 4122 266 4122 
L 106 4122 
L 106 4238 
L 1938 4238 
Q 2450 4238 2759 4163 
Q 3228 4050 3475 3764 
Q 3722 3478 3722 3106 
Q 3722 2788 3528 2536 
Q 3334 2284 2956 2163 
z
M 1319 2331 
Q 1434 2309 1582 2298 
Q 1731 2288 1909 2288 
Q 2366 2288 2595 2386 
Q 2825 2484 2947 2687 
Q 3069 2891 3069 3131 
Q 3069 3503 2766 3765 
Q 2463 4028 1881 4028 
Q 1569 4028 1319 3959 
L 1319 2331 
z
M 1319 306 
Q 1681 222 2034 222 
Q 2600 222 2897 476 
Q 3194 731 3194 1106 
Q 3194 1353 3059 1581 
Q 2925 1809 2622 1940 
Q 2319 2072 1872 2072 
Q 1678 2072 1540 2065 
Q 1403 2059 1319 2044 
L 1319 306 
z
" id="TimesNewRomanPSMT-42" transform="scale(0.015625)"/>
       <path d="M 1041 4444 
L 1041 2350 
Q 1388 2731 1591 2839 
Q 1794 2947 1997 2947 
Q 2241 2947 2416 2812 
Q 2591 2678 2675 2391 
Q 2734 2191 2734 1659 
L 2734 647 
Q 2734 375 2778 275 
Q 2809 200 2884 156 
Q 2959 113 3159 113 
L 3159 0 
L 1753 0 
L 1753 113 
L 1819 113 
Q 2019 113 2097 173 
Q 2175 234 2206 353 
Q 2216 403 2216 647 
L 2216 1659 
Q 2216 2128 2167 2275 
Q 2119 2422 2012 2495 
Q 1906 2569 1756 2569 
Q 1603 2569 1437 2487 
Q 1272 2406 1041 2159 
L 1041 647 
Q 1041 353 1073 281 
Q 1106 209 1195 161 
Q 1284 113 1503 113 
L 1503 0 
L 84 0 
L 84 113 
Q 275 113 384 172 
Q 447 203 484 290 
Q 522 378 522 647 
L 522 3238 
Q 522 3728 498 3840 
Q 475 3953 426 3993 
Q 378 4034 297 4034 
Q 231 4034 84 3984 
L 41 4094 
L 897 4444 
L 1041 4444 
z
" id="TimesNewRomanPSMT-68" transform="scale(0.015625)"/>
      </defs>
      <use xlink:href="#TimesNewRomanPSMT-42"/>
      <use x="66.699219" xlink:href="#TimesNewRomanPSMT-61"/>
      <use x="111.083984" xlink:href="#TimesNewRomanPSMT-69"/>
      <use x="138.867188" xlink:href="#TimesNewRomanPSMT-63"/>
      <use x="183.251953" xlink:href="#TimesNewRomanPSMT-68"/>
      <use x="233.251953" xlink:href="#TimesNewRomanPSMT-75"/>
      <use x="283.251953" xlink:href="#TimesNewRomanPSMT-61"/>
      <use x="327.636719" xlink:href="#TimesNewRomanPSMT-6e"/>
     </g>
    </g>
    <g id="line2d_25">
     <path d="M 1827.086 275.255 
L 1891.086 275.255 
" style="fill:none;stroke:#cc79a7;stroke-linecap:square;stroke-width:3;"/>
    </g>
    <g id="line2d_26"/>
    <g id="text_11">
     <!-- LLaMa2 -->
     <g transform="translate(1907.086 286.455)scale(0.32 -0.32)">
      <defs>
       <path d="M 3669 1172 
L 3772 1150 
L 3409 0 
L 128 0 
L 128 116 
L 288 116 
Q 556 116 672 291 
Q 738 391 738 753 
L 738 3488 
Q 738 3884 650 3984 
Q 528 4122 288 4122 
L 128 4122 
L 128 4238 
L 2047 4238 
L 2047 4122 
Q 1709 4125 1573 4059 
Q 1438 3994 1388 3894 
Q 1338 3794 1338 3416 
L 1338 753 
Q 1338 494 1388 397 
Q 1425 331 1503 300 
Q 1581 269 1991 269 
L 2300 269 
Q 2788 269 2984 341 
Q 3181 413 3343 595 
Q 3506 778 3669 1172 
z
" id="TimesNewRomanPSMT-4c" transform="scale(0.015625)"/>
       <path d="M 2934 816 
L 2638 0 
L 138 0 
L 138 116 
Q 1241 1122 1691 1759 
Q 2141 2397 2141 2925 
Q 2141 3328 1894 3587 
Q 1647 3847 1303 3847 
Q 991 3847 742 3664 
Q 494 3481 375 3128 
L 259 3128 
Q 338 3706 661 4015 
Q 984 4325 1469 4325 
Q 1984 4325 2329 3994 
Q 2675 3663 2675 3213 
Q 2675 2891 2525 2569 
Q 2294 2063 1775 1497 
Q 997 647 803 472 
L 1909 472 
Q 2247 472 2383 497 
Q 2519 522 2628 598 
Q 2738 675 2819 816 
L 2934 816 
z
" id="TimesNewRomanPSMT-32" transform="scale(0.015625)"/>
      </defs>
      <use xlink:href="#TimesNewRomanPSMT-4c"/>
      <use x="61.083984" xlink:href="#TimesNewRomanPSMT-4c"/>
      <use x="122.167969" xlink:href="#TimesNewRomanPSMT-61"/>
      <use x="166.552734" xlink:href="#TimesNewRomanPSMT-4d"/>
      <use x="255.46875" xlink:href="#TimesNewRomanPSMT-61"/>
      <use x="299.853516" xlink:href="#TimesNewRomanPSMT-32"/>
     </g>
    </g>
    <g id="line2d_27">
     <path d="M 1827.086 320.5 
L 1891.086 320.5 
" style="fill:none;stroke:#f0e442;stroke-linecap:square;stroke-width:3;"/>
    </g>
    <g id="line2d_28"/>
    <g id="text_12">
     <!-- LLaMa3 -->
     <g transform="translate(1907.086 331.7)scale(0.32 -0.32)">
      <defs>
       <path d="M 325 3431 
Q 506 3859 782 4092 
Q 1059 4325 1472 4325 
Q 1981 4325 2253 3994 
Q 2459 3747 2459 3466 
Q 2459 3003 1878 2509 
Q 2269 2356 2469 2072 
Q 2669 1788 2669 1403 
Q 2669 853 2319 450 
Q 1863 -75 997 -75 
Q 569 -75 414 31 
Q 259 138 259 259 
Q 259 350 332 419 
Q 406 488 509 488 
Q 588 488 669 463 
Q 722 447 909 348 
Q 1097 250 1169 231 
Q 1284 197 1416 197 
Q 1734 197 1970 444 
Q 2206 691 2206 1028 
Q 2206 1275 2097 1509 
Q 2016 1684 1919 1775 
Q 1784 1900 1550 2001 
Q 1316 2103 1072 2103 
L 972 2103 
L 972 2197 
Q 1219 2228 1467 2375 
Q 1716 2522 1828 2728 
Q 1941 2934 1941 3181 
Q 1941 3503 1739 3701 
Q 1538 3900 1238 3900 
Q 753 3900 428 3381 
L 325 3431 
z
" id="TimesNewRomanPSMT-33" transform="scale(0.015625)"/>
      </defs>
      <use xlink:href="#TimesNewRomanPSMT-4c"/>
      <use x="61.083984" xlink:href="#TimesNewRomanPSMT-4c"/>
      <use x="122.167969" xlink:href="#TimesNewRomanPSMT-61"/>
      <use x="166.552734" xlink:href="#TimesNewRomanPSMT-4d"/>
      <use x="255.46875" xlink:href="#TimesNewRomanPSMT-61"/>
      <use x="299.853516" xlink:href="#TimesNewRomanPSMT-33"/>
     </g>
    </g>
    <g id="line2d_29">
     <path d="M 1827.086 365.745 
L 1891.086 365.745 
" style="fill:none;stroke:#56b4e9;stroke-linecap:square;stroke-width:3;"/>
    </g>
    <g id="line2d_30"/>
    <g id="text_13">
     <!-- Vicuna -->
     <g transform="translate(1907.086 376.945)scale(0.32 -0.32)">
      <defs>
       <path d="M 4544 4238 
L 4544 4122 
Q 4319 4081 4203 3978 
Q 4038 3825 3909 3509 
L 2431 -97 
L 2316 -97 
L 728 3556 
Q 606 3838 556 3900 
Q 478 3997 364 4051 
Q 250 4106 56 4122 
L 56 4238 
L 1788 4238 
L 1788 4122 
Q 1494 4094 1406 4022 
Q 1319 3950 1319 3838 
Q 1319 3681 1463 3350 
L 2541 866 
L 3541 3319 
Q 3688 3681 3688 3822 
Q 3688 3913 3597 3995 
Q 3506 4078 3291 4113 
Q 3275 4116 3238 4122 
L 3238 4238 
L 4544 4238 
z
" id="TimesNewRomanPSMT-56" transform="scale(0.015625)"/>
      </defs>
      <use xlink:href="#TimesNewRomanPSMT-56"/>
      <use x="66.216797" xlink:href="#TimesNewRomanPSMT-69"/>
      <use x="94" xlink:href="#TimesNewRomanPSMT-63"/>
      <use x="138.384766" xlink:href="#TimesNewRomanPSMT-75"/>
      <use x="188.384766" xlink:href="#TimesNewRomanPSMT-6e"/>
      <use x="238.384766" xlink:href="#TimesNewRomanPSMT-61"/>
     </g>
    </g>
   </g>
  </g>
 </g>
 <defs>
  <clipPath id="p779f20e48f">
   <path d="M 1467.36 472.68 
C 1467.36 425.357958 1458.03859 378.496064 1439.929228 334.776198 
C 1421.819867 291.056333 1395.274736 251.328737 1361.813 217.867 
C 1328.351263 184.405264 1288.623667 157.860133 1244.903802 139.750772 
C 1201.183936 121.64141 1154.322042 112.32 1107 112.32 
C 1059.677958 112.32 1012.816064 121.64141 969.096198 139.750772 
C 925.376333 157.860133 885.648737 184.405264 852.187 217.867 
C 818.725264 251.328737 792.180133 291.056333 774.070772 334.776198 
C 755.96141 378.496064 746.64 425.357958 746.64 472.68 
C 746.64 520.002042 755.96141 566.863936 774.070772 610.583802 
C 792.180133 654.303667 818.725264 694.031263 852.187 727.493 
C 885.648737 760.954736 925.376333 787.499867 969.096198 805.609228 
C 1012.816064 823.71859 1059.677958 833.04 1107 833.04 
C 1154.322042 833.04 1201.183936 823.71859 1244.903802 805.609228 
C 1288.623667 787.499867 1328.351263 760.954736 1361.813 727.493 
C 1395.274736 694.031263 1421.819867 654.303667 1439.929228 610.583802 
C 1458.03859 566.863936 1467.36 520.002042 1467.36 472.68 
M 1107 472.68 
C 1107 472.68 1107 472.68 1107 472.68 
C 1107 472.68 1107 472.68 1107 472.68 
C 1107 472.68 1107 472.68 1107 472.68 
C 1107 472.68 1107 472.68 1107 472.68 
C 1107 472.68 1107 472.68 1107 472.68 
C 1107 472.68 1107 472.68 1107 472.68 
C 1107 472.68 1107 472.68 1107 472.68 
C 1107 472.68 1107 472.68 1107 472.68 
C 1107 472.68 1107 472.68 1107 472.68 
C 1107 472.68 1107 472.68 1107 472.68 
C 1107 472.68 1107 472.68 1107 472.68 
C 1107 472.68 1107 472.68 1107 472.68 
C 1107 472.68 1107 472.68 1107 472.68 
C 1107 472.68 1107 472.68 1107 472.68 
C 1107 472.68 1107 472.68 1107 472.68 
C 1107 472.68 1107 472.68 1107 472.68 
M 1467.36 472.68 
z
"/>
  </clipPath>
 </defs>
</svg>
